<?xml version="1.0" encoding="UTF-8" standalone="no"?>
<!DOCTYPE svg PUBLIC "-//W3C//DTD SVG 1.1//EN"
 "http://www.w3.org/Graphics/SVG/1.1/DTD/svg11.dtd">
<!-- Generated by graphviz version 2.40.1 (20161225.0304)
 -->
<!-- Title: tictactoetalk Pages: 1 -->
<svg width="728pt" height="992pt"
 viewBox="72.00 72.00 656.00 920.00" xmlns="http://www.w3.org/2000/svg" xmlns:xlink="http://www.w3.org/1999/xlink">
<g id="graph0" class="graph" transform="scale(1 1) rotate(0) translate(76 916)">
<title>tictactoetalk</title>
<polygon fill="#ffffff" stroke="transparent" points="-4,4 -4,-844 580,-844 580,4 -4,4"/>
<text text-anchor="start" x="8" y="-18" font-family="Courier,monospace" font-size="10.00" fill="#696969">Uses diagram for directory tictactoetalk/</text>
<text text-anchor="start" x="8" y="-7" font-family="Courier,monospace" font-size="10.00" fill="#696969">Generated on 2019/11/06, 11:48</text>
<g id="clust1" class="cluster">
<title>cluster_directory_tictactoetalk</title>
<g id="a_clust1"><a xlink:title="tictactoetalk/">
<path fill="#f5f5f5" stroke="#696969" d="M20,-38C20,-38 556,-38 556,-38 562,-38 568,-44 568,-50 568,-50 568,-820 568,-820 568,-826 562,-832 556,-832 556,-832 20,-832 20,-832 14,-832 8,-826 8,-820 8,-820 8,-50 8,-50 8,-44 14,-38 20,-38"/>
<text text-anchor="start" x="20.5" y="-815.5" font-family="Courier,monospace" font-size="10.00" fill="#696969">tictactoetalk/</text>
</a>
</g>
</g>
<g id="clust3" class="cluster">
<title>cluster_file_/home/paul/Development/tictactoetalk/game.lgt</title>
<g id="a_clust3"><a xlink:title="tictactoetalk/game.lgt">
<path fill="#fffafa" stroke="#696969" d="M30,-230C30,-230 432,-230 432,-230 438,-230 444,-236 444,-242 444,-242 444,-783 444,-783 444,-789 438,-795 432,-795 432,-795 30,-795 30,-795 24,-795 18,-789 18,-783 18,-783 18,-242 18,-242 18,-236 24,-230 30,-230"/>
<text text-anchor="start" x="30.5" y="-778.5" font-family="Courier,monospace" font-size="10.00" fill="#696969">game.lgt</text>
</a>
</g>
</g>
<!-- board(Board) -->
<g id="node1" class="node">
<title>board(Board)</title>
<g id="a_node1"><a xlink:title="prototype">
<polygon fill="#fff8dc" stroke="#000000" points="260.5,-320 147.5,-320 147.5,-240 260.5,-240 260.5,-320"/>
<text text-anchor="start" x="156" y="-307.8" font-family="Courier,monospace" font-size="9.00" fill="#000000"> </text>
<text text-anchor="start" x="163.5" y="-307.2" font-family="Courier,monospace" font-size="11.00" fill="#000000">board(Board)</text>
<text text-anchor="start" x="247" y="-307.8" font-family="Courier,monospace" font-size="9.00" fill="#000000"> </text>
<text text-anchor="start" x="156" y="-296.8" font-family="Courier,monospace" font-size="9.00" fill="#000000"> </text>
<text text-anchor="start" x="184" y="-297.4" font-family="Courier,monospace" font-size="7.00" fill="#000000">prototype</text>
<text text-anchor="start" x="247" y="-296.8" font-family="Courier,monospace" font-size="9.00" fill="#000000"> </text>
<text text-anchor="start" x="156" y="-286.8" font-family="Courier,monospace" font-size="9.00" fill="#000000"> </text>
<text text-anchor="start" x="156" y="-276.8" font-family="Courier,monospace" font-size="9.00" fill="#000000"> </text>
<text text-anchor="start" x="188.5" y="-276.8" font-family="Courier,monospace" font-size="9.00" fill="#000000">init/0</text>
<text text-anchor="start" x="247" y="-276.8" font-family="Courier,monospace" font-size="9.00" fill="#000000"> </text>
<text text-anchor="start" x="156" y="-266.8" font-family="Courier,monospace" font-size="9.00" fill="#000000"> </text>
<text text-anchor="start" x="162" y="-266.8" font-family="Courier,monospace" font-size="9.00" fill="#000000">available_move/1</text>
<text text-anchor="start" x="247" y="-266.8" font-family="Courier,monospace" font-size="9.00" fill="#000000"> </text>
<text text-anchor="start" x="156" y="-256.8" font-family="Courier,monospace" font-size="9.00" fill="#000000"> </text>
<text text-anchor="start" x="183" y="-256.8" font-family="Courier,monospace" font-size="9.00" fill="#000000">update/3</text>
<text text-anchor="start" x="247" y="-256.8" font-family="Courier,monospace" font-size="9.00" fill="#000000"> </text>
<text text-anchor="start" x="156" y="-246.8" font-family="Courier,monospace" font-size="9.00" fill="#000000"> </text>
<text text-anchor="start" x="170" y="-246.8" font-family="Courier,monospace" font-size="9.00" fill="#000000">print_board/0</text>
<text text-anchor="start" x="247" y="-246.8" font-family="Courier,monospace" font-size="9.00" fill="#000000"> </text>
</a>
</g>
</g>
<!-- list -->
<g id="node6" class="node">
<title>list</title>
<g id="a_node6"><a xlink:title="prototype">
<polygon fill="#f5f5dc" stroke="#000000" stroke-dasharray="5,2" points="390.5,-84 321.5,-84 321.5,-48 390.5,-48 390.5,-84"/>
<text text-anchor="start" x="330" y="-68.8" font-family="Courier,monospace" font-size="9.00" fill="#000000"> </text>
<text text-anchor="start" x="342.5" y="-68.2" font-family="Courier,monospace" font-size="11.00" fill="#000000">list</text>
<text text-anchor="start" x="377" y="-68.8" font-family="Courier,monospace" font-size="9.00" fill="#000000"> </text>
<text text-anchor="start" x="330" y="-57.8" font-family="Courier,monospace" font-size="9.00" fill="#000000"> </text>
<text text-anchor="start" x="336" y="-58.4" font-family="Courier,monospace" font-size="7.00" fill="#000000">prototype</text>
<text text-anchor="start" x="377" y="-57.8" font-family="Courier,monospace" font-size="9.00" fill="#000000"> </text>
</a>
</g>
</g>
<!-- board(Board)&#45;&gt;list -->
<g id="edge1" class="edge">
<title>board(Board)&#45;&gt;list</title>
<path fill="none" stroke="#000000" d="M232.4117,-239.9993C263.0381,-196.8806 310.9167,-129.4726 337.1854,-92.489"/>
<polygon fill="#000000" stroke="#000000" points="340.1291,-94.3886 343.0665,-84.2091 334.4222,-90.3351 340.1291,-94.3886"/>
<g id="a_edge1&#45;label"><a xlink:title="uses">
<text text-anchor="middle" x="302" y="-159.8" font-family="Courier,monospace" font-size="9.00" fill="#000000">uses</text>
</a>
</g>
</g>
<!-- meta -->
<g id="node7" class="node">
<title>meta</title>
<g id="a_node7"><a xlink:title="prototype">
<polygon fill="#f5f5dc" stroke="#000000" stroke-dasharray="5,2" points="238.5,-84 169.5,-84 169.5,-48 238.5,-48 238.5,-84"/>
<text text-anchor="start" x="178" y="-68.8" font-family="Courier,monospace" font-size="9.00" fill="#000000"> </text>
<text text-anchor="start" x="190.5" y="-68.2" font-family="Courier,monospace" font-size="11.00" fill="#000000">meta</text>
<text text-anchor="start" x="225" y="-68.8" font-family="Courier,monospace" font-size="9.00" fill="#000000"> </text>
<text text-anchor="start" x="178" y="-57.8" font-family="Courier,monospace" font-size="9.00" fill="#000000"> </text>
<text text-anchor="start" x="184" y="-58.4" font-family="Courier,monospace" font-size="7.00" fill="#000000">prototype</text>
<text text-anchor="start" x="225" y="-57.8" font-family="Courier,monospace" font-size="9.00" fill="#000000"> </text>
</a>
</g>
</g>
<!-- board(Board)&#45;&gt;meta -->
<g id="edge2" class="edge">
<title>board(Board)&#45;&gt;meta</title>
<path fill="none" stroke="#000000" d="M204,-239.9993C204,-197.6083 204,-131.741 204,-94.3874"/>
<polygon fill="#000000" stroke="#000000" points="207.5001,-94.209 204,-84.2091 200.5001,-94.2091 207.5001,-94.209"/>
<g id="a_edge2&#45;label"><a xlink:title="uses">
<text text-anchor="middle" x="215" y="-159.8" font-family="Courier,monospace" font-size="9.00" fill="#000000">uses</text>
</a>
</g>
</g>
<!-- human(Char) -->
<g id="node2" class="node">
<title>human(Char)</title>
<g id="a_node2"><a xlink:title="prototype">
<polygon fill="#fff8dc" stroke="#000000" points="381.5,-298 278.5,-298 278.5,-262 381.5,-262 381.5,-298"/>
<text text-anchor="start" x="287" y="-282.8" font-family="Courier,monospace" font-size="9.00" fill="#000000"> </text>
<text text-anchor="start" x="293" y="-282.2" font-family="Courier,monospace" font-size="11.00" fill="#000000">human(Char)</text>
<text text-anchor="start" x="368" y="-282.8" font-family="Courier,monospace" font-size="9.00" fill="#000000"> </text>
<text text-anchor="start" x="287" y="-271.8" font-family="Courier,monospace" font-size="9.00" fill="#000000"> </text>
<text text-anchor="start" x="310" y="-272.4" font-family="Courier,monospace" font-size="7.00" fill="#000000">prototype</text>
<text text-anchor="start" x="368" y="-271.8" font-family="Courier,monospace" font-size="9.00" fill="#000000"> </text>
</a>
</g>
</g>
<!-- computer(Difficulty) -->
<g id="node3" class="node">
<title>computer(Difficulty)</title>
<g id="a_node3"><a xlink:title="prototype">
<polygon fill="#fff8dc" stroke="#000000" points="434,-738 270,-738 270,-688 434,-688 434,-738"/>
<text text-anchor="start" x="278" y="-725.8" font-family="Courier,monospace" font-size="9.00" fill="#000000"> </text>
<text text-anchor="start" x="284" y="-725.2" font-family="Courier,monospace" font-size="11.00" fill="#000000">computer(Difficulty)</text>
<text text-anchor="start" x="420" y="-725.8" font-family="Courier,monospace" font-size="9.00" fill="#000000"> </text>
<text text-anchor="start" x="278" y="-714.8" font-family="Courier,monospace" font-size="9.00" fill="#000000"> </text>
<text text-anchor="start" x="331.5" y="-715.4" font-family="Courier,monospace" font-size="7.00" fill="#000000">prototype</text>
<text text-anchor="start" x="420" y="-714.8" font-family="Courier,monospace" font-size="9.00" fill="#000000"> </text>
<text text-anchor="start" x="278" y="-704.8" font-family="Courier,monospace" font-size="9.00" fill="#000000"> </text>
<text text-anchor="start" x="278" y="-694.8" font-family="Courier,monospace" font-size="9.00" fill="#000000"> </text>
<text text-anchor="start" x="317.5" y="-694.8" font-family="Courier,monospace" font-size="9.00" fill="#000000">choose_move/3</text>
<text text-anchor="start" x="420" y="-694.8" font-family="Courier,monospace" font-size="9.00" fill="#000000"> </text>
</a>
</g>
</g>
<!-- computer(Difficulty)&#45;&gt;human(Char) -->
<g id="edge3" class="edge">
<title>computer(Difficulty)&#45;&gt;human(Char)</title>
<path fill="none" stroke="#000000" d="M348.3982,-687.6175C345.1901,-662.7882 341,-623.8742 341,-590 341,-590 341,-590 341,-398 341,-367.3112 337.2658,-332.3259 334.1488,-308.4688"/>
<polygon fill="#000000" stroke="#000000" points="337.5882,-307.7846 332.7758,-298.3458 330.6517,-308.7256 337.5882,-307.7846"/>
<g id="a_edge3&#45;label"><a xlink:title="uses">
<text text-anchor="middle" x="352" y="-491.8" font-family="Courier,monospace" font-size="9.00" fill="#000000">uses</text>
</a>
</g>
</g>
<!-- computer(Difficulty)&#45;&gt;list -->
<g id="edge5" class="edge">
<title>computer(Difficulty)&#45;&gt;list</title>
<path fill="none" stroke="#000000" d="M368.5892,-687.7726C382.8044,-663.6891 401,-625.8586 401,-590 401,-590 401,-590 401,-162 401,-136.8487 388.1799,-111.197 376.2252,-92.7444"/>
<polygon fill="#000000" stroke="#000000" points="379.0011,-90.6021 370.486,-84.2979 373.2112,-94.5362 379.0011,-90.6021"/>
<g id="a_edge5&#45;label"><a xlink:title="uses">
<text text-anchor="middle" x="412" y="-395.8" font-family="Courier,monospace" font-size="9.00" fill="#000000">uses</text>
</a>
</g>
</g>
<!-- fast_random -->
<g id="node8" class="node">
<title>fast_random</title>
<g id="a_node8"><a xlink:title="prototype">
<polygon fill="#f5f5dc" stroke="#000000" stroke-dasharray="5,2" points="557.5,-512 454.5,-512 454.5,-476 557.5,-476 557.5,-512"/>
<text text-anchor="start" x="463" y="-496.8" font-family="Courier,monospace" font-size="9.00" fill="#000000"> </text>
<text text-anchor="start" x="469" y="-496.2" font-family="Courier,monospace" font-size="11.00" fill="#000000">fast_random</text>
<text text-anchor="start" x="544" y="-496.8" font-family="Courier,monospace" font-size="9.00" fill="#000000"> </text>
<text text-anchor="start" x="463" y="-485.8" font-family="Courier,monospace" font-size="9.00" fill="#000000"> </text>
<text text-anchor="start" x="486" y="-486.4" font-family="Courier,monospace" font-size="7.00" fill="#000000">prototype</text>
<text text-anchor="start" x="544" y="-485.8" font-family="Courier,monospace" font-size="9.00" fill="#000000"> </text>
</a>
</g>
</g>
<!-- computer(Difficulty)&#45;&gt;fast_random -->
<g id="edge4" class="edge">
<title>computer(Difficulty)&#45;&gt;fast_random</title>
<path fill="none" stroke="#000000" d="M369.6658,-687.8779C399.0094,-646.149 457.523,-562.938 487.4446,-520.3872"/>
<polygon fill="#000000" stroke="#000000" points="490.3137,-522.3919 493.2028,-512.1985 484.5876,-518.3653 490.3137,-522.3919"/>
<g id="a_edge4&#45;label"><a xlink:title="uses">
<text text-anchor="middle" x="452" y="-587.8" font-family="Courier,monospace" font-size="9.00" fill="#000000">uses</text>
</a>
</g>
</g>
<!-- game(Mode) -->
<g id="node4" class="node">
<title>game(Mode)</title>
<g id="a_node4"><a xlink:title="prototype">
<polygon fill="#fff8dc" stroke="#000000" points="252,-738 156,-738 156,-688 252,-688 252,-738"/>
<text text-anchor="start" x="164" y="-725.8" font-family="Courier,monospace" font-size="9.00" fill="#000000"> </text>
<text text-anchor="start" x="170" y="-725.2" font-family="Courier,monospace" font-size="11.00" fill="#000000">game(Mode)</text>
<text text-anchor="start" x="238" y="-725.8" font-family="Courier,monospace" font-size="9.00" fill="#000000"> </text>
<text text-anchor="start" x="164" y="-714.8" font-family="Courier,monospace" font-size="9.00" fill="#000000"> </text>
<text text-anchor="start" x="183.5" y="-715.4" font-family="Courier,monospace" font-size="7.00" fill="#000000">prototype</text>
<text text-anchor="start" x="238" y="-714.8" font-family="Courier,monospace" font-size="9.00" fill="#000000"> </text>
<text text-anchor="start" x="164" y="-704.8" font-family="Courier,monospace" font-size="9.00" fill="#000000"> </text>
<text text-anchor="start" x="164" y="-694.8" font-family="Courier,monospace" font-size="9.00" fill="#000000"> </text>
<text text-anchor="start" x="188" y="-694.8" font-family="Courier,monospace" font-size="9.00" fill="#000000">play/0</text>
<text text-anchor="start" x="238" y="-694.8" font-family="Courier,monospace" font-size="9.00" fill="#000000"> </text>
</a>
</g>
</g>
<!-- game(Mode)&#45;&gt;board(Board) -->
<g id="edge6" class="edge">
<title>game(Mode)&#45;&gt;board(Board)</title>
<path fill="none" stroke="#000000" d="M204,-687.5583C204,-662.6851 204,-623.7396 204,-590 204,-590 204,-590 204,-398 204,-375.8306 204,-351.3183 204,-330.4054"/>
<polygon fill="#000000" stroke="#000000" points="207.5001,-330.1426 204,-320.1427 200.5001,-330.1427 207.5001,-330.1426"/>
<g id="a_edge6&#45;label"><a xlink:title="uses">
<text text-anchor="middle" x="215" y="-491.8" font-family="Courier,monospace" font-size="9.00" fill="#000000">uses</text>
</a>
</g>
</g>
<!-- player(Char) -->
<g id="node5" class="node">
<title>player(Char)</title>
<g id="a_node5"><a xlink:title="category">
<polygon fill="#e0ffff" stroke="#000000" points="138,-758 28,-758 28,-754 24,-754 24,-750 28,-750 28,-676 24,-676 24,-672 28,-672 28,-668 138,-668 138,-758"/>
<polyline fill="none" stroke="#000000" points="28,-754 32,-754 32,-750 28,-750 "/>
<polyline fill="none" stroke="#000000" points="28,-676 32,-676 32,-672 28,-672 "/>
<text text-anchor="start" x="36" y="-745.8" font-family="Courier,monospace" font-size="9.00" fill="#000000"> </text>
<text text-anchor="start" x="42" y="-745.2" font-family="Courier,monospace" font-size="11.00" fill="#000000">player(Char)</text>
<text text-anchor="start" x="124" y="-745.8" font-family="Courier,monospace" font-size="9.00" fill="#000000"> </text>
<text text-anchor="start" x="36" y="-734.8" font-family="Courier,monospace" font-size="9.00" fill="#000000"> </text>
<text text-anchor="start" x="64.5" y="-735.4" font-family="Courier,monospace" font-size="7.00" fill="#000000">category</text>
<text text-anchor="start" x="124" y="-734.8" font-family="Courier,monospace" font-size="9.00" fill="#000000"> </text>
<text text-anchor="start" x="36" y="-724.8" font-family="Courier,monospace" font-size="9.00" fill="#000000"> </text>
<text text-anchor="start" x="36" y="-714.8" font-family="Courier,monospace" font-size="9.00" fill="#000000"> </text>
<text text-anchor="start" x="67" y="-714.8" font-family="Courier,monospace" font-size="9.00" fill="#000000">char/1</text>
<text text-anchor="start" x="124" y="-714.8" font-family="Courier,monospace" font-size="9.00" fill="#000000"> </text>
<text text-anchor="start" x="36" y="-704.8" font-family="Courier,monospace" font-size="9.00" fill="#000000"> </text>
<text text-anchor="start" x="48.5" y="-704.8" font-family="Courier,monospace" font-size="9.00" fill="#000000">choose_move/2</text>
<text text-anchor="start" x="124" y="-704.8" font-family="Courier,monospace" font-size="9.00" fill="#000000"> </text>
<text text-anchor="start" x="36" y="-694.8" font-family="Courier,monospace" font-size="9.00" fill="#000000"> </text>
<text text-anchor="start" x="59" y="-694.8" font-family="Courier,monospace" font-size="9.00" fill="#000000">has_won/1</text>
<text text-anchor="start" x="124" y="-694.8" font-family="Courier,monospace" font-size="9.00" fill="#000000"> </text>
<text text-anchor="start" x="36" y="-684.8" font-family="Courier,monospace" font-size="9.00" fill="#000000"> </text>
<text text-anchor="start" x="67" y="-684.8" font-family="Courier,monospace" font-size="9.00" fill="#000000">move/2</text>
<text text-anchor="start" x="124" y="-684.8" font-family="Courier,monospace" font-size="9.00" fill="#000000"> </text>
<text text-anchor="start" x="36" y="-674.8" font-family="Courier,monospace" font-size="9.00" fill="#000000"> </text>
<text text-anchor="start" x="59" y="-674.8" font-family="Courier,monospace" font-size="9.00" fill="#000000">win_msg/0</text>
<text text-anchor="start" x="124" y="-674.8" font-family="Courier,monospace" font-size="9.00" fill="#000000"> </text>
</a>
</g>
</g>
</g>
</svg>
