<?xml version="1.0" encoding="UTF-8" standalone="no"?>
<!DOCTYPE svg PUBLIC "-//W3C//DTD SVG 1.1//EN"
 "http://www.w3.org/Graphics/SVG/1.1/DTD/svg11.dtd">
<!-- Generated by graphviz version 2.43.0 (0)
 -->
<!-- Title: tictactoetalk Pages: 1 -->
<svg width="710pt" height="676pt"
 viewBox="72.00 72.00 638.00 604.00" xmlns="http://www.w3.org/2000/svg" xmlns:xlink="http://www.w3.org/1999/xlink">
<g id="graph0" class="graph" transform="scale(1 1) rotate(0) translate(76 600)">
<title>tictactoetalk</title>
<polygon fill="white" stroke="transparent" points="-4,4 -4,-528 562,-528 562,4 -4,4"/>
<text text-anchor="start" x="8" y="-18" font-family="Courier,monospace" font-size="10.00" fill="dimgray">Entity diagram for directory tictactoetalk/</text>
<text text-anchor="start" x="8" y="-7" font-family="Courier,monospace" font-size="10.00" fill="dimgray">Generated on 2019/11/07, 00:21</text>
<g id="clust1" class="cluster">
<title>cluster_directory_tictactoetalk</title>
<g id="a_clust1"><a xlink:title="tictactoetalk/">
<path fill="whitesmoke" stroke="dimgray" d="M20,-38C20,-38 538,-38 538,-38 544,-38 550,-44 550,-50 550,-50 550,-504 550,-504 550,-510 544,-516 538,-516 538,-516 20,-516 20,-516 14,-516 8,-510 8,-504 8,-504 8,-50 8,-50 8,-44 14,-38 20,-38"/>
<text text-anchor="start" x="20.5" y="-48.5" font-family="Courier,monospace" font-size="10.00" fill="dimgray">tictactoetalk/</text>
</a>
</g>
</g>
<g id="clust3" class="cluster">
<title>cluster_file_/home/paul/Development/tictactoetalk/game.lgt</title>
<g id="a_clust3"><a xlink:title="tictactoetalk/game.lgt">
<path fill="snow" stroke="dimgray" d="M110,-75C110,-75 414,-75 414,-75 420,-75 426,-81 426,-87 426,-87 426,-494 426,-494 426,-500 420,-506 414,-506 414,-506 110,-506 110,-506 104,-506 98,-500 98,-494 98,-494 98,-87 98,-87 98,-81 104,-75 110,-75"/>
<text text-anchor="start" x="110.5" y="-85.5" font-family="Courier,monospace" font-size="10.00" fill="dimgray">game.lgt</text>
</a>
</g>
</g>
<!-- board(Board) -->
<g id="node1" class="node">
<title>board(Board)</title>
<g id="a_node1"><a xlink:title="prototype">
<polygon fill="cornsilk" stroke="black" points="221.5,-324 108.5,-324 108.5,-244 221.5,-244 221.5,-324"/>
<text text-anchor="start" x="117" y="-311.8" font-family="Courier,monospace" font-size="9.00"> </text>
<text text-anchor="start" x="124.5" y="-311.2" font-family="Courier,monospace" font-size="11.00">board(Board)</text>
<text text-anchor="start" x="208" y="-311.8" font-family="Courier,monospace" font-size="9.00"> </text>
<text text-anchor="start" x="117" y="-300.8" font-family="Courier,monospace" font-size="9.00"> </text>
<text text-anchor="start" x="145" y="-301.4" font-family="Courier,monospace" font-size="7.00">prototype</text>
<text text-anchor="start" x="208" y="-300.8" font-family="Courier,monospace" font-size="9.00"> </text>
<text text-anchor="start" x="117" y="-290.8" font-family="Courier,monospace" font-size="9.00"> </text>
<text text-anchor="start" x="117" y="-280.8" font-family="Courier,monospace" font-size="9.00"> </text>
<text text-anchor="start" x="149.5" y="-280.8" font-family="Courier,monospace" font-size="9.00">init/0</text>
<text text-anchor="start" x="208" y="-280.8" font-family="Courier,monospace" font-size="9.00"> </text>
<text text-anchor="start" x="117" y="-270.8" font-family="Courier,monospace" font-size="9.00"> </text>
<text text-anchor="start" x="123" y="-270.8" font-family="Courier,monospace" font-size="9.00">available_move/1</text>
<text text-anchor="start" x="208" y="-270.8" font-family="Courier,monospace" font-size="9.00"> </text>
<text text-anchor="start" x="117" y="-260.8" font-family="Courier,monospace" font-size="9.00"> </text>
<text text-anchor="start" x="144" y="-260.8" font-family="Courier,monospace" font-size="9.00">update/3</text>
<text text-anchor="start" x="208" y="-260.8" font-family="Courier,monospace" font-size="9.00"> </text>
<text text-anchor="start" x="117" y="-250.8" font-family="Courier,monospace" font-size="9.00"> </text>
<text text-anchor="start" x="131" y="-250.8" font-family="Courier,monospace" font-size="9.00">print_board/0</text>
<text text-anchor="start" x="208" y="-250.8" font-family="Courier,monospace" font-size="9.00"> </text>
</a>
</g>
</g>
<!-- list -->
<g id="node6" class="node">
<title>list</title>
<g id="a_node6"><a xlink:title="prototype">
<polygon fill="beige" stroke="black" stroke-dasharray="5,2" points="87.5,-469 18.5,-469 18.5,-433 87.5,-433 87.5,-469"/>
<text text-anchor="start" x="27" y="-453.8" font-family="Courier,monospace" font-size="9.00"> </text>
<text text-anchor="start" x="39.5" y="-453.2" font-family="Courier,monospace" font-size="11.00">list</text>
<text text-anchor="start" x="74" y="-453.8" font-family="Courier,monospace" font-size="9.00"> </text>
<text text-anchor="start" x="27" y="-442.8" font-family="Courier,monospace" font-size="9.00"> </text>
<text text-anchor="start" x="33" y="-443.4" font-family="Courier,monospace" font-size="7.00">prototype</text>
<text text-anchor="start" x="74" y="-442.8" font-family="Courier,monospace" font-size="9.00"> </text>
</a>
</g>
</g>
<!-- board(Board)&#45;&gt;list -->
<g id="edge1" class="edge">
<title>board(Board)&#45;&gt;list</title>
<path fill="none" stroke="black" d="M138.46,-324.1C117.42,-355.1 88.63,-397.52 70.42,-424.34"/>
<polygon fill="black" stroke="black" points="67.4,-422.56 64.68,-432.8 73.19,-426.49 67.4,-422.56"/>
<g id="a_edge1&#45;label"><a xlink:title="uses">
<text text-anchor="middle" x="123" y="-362.8" font-family="Courier,monospace" font-size="9.00">uses</text>
</a>
</g>
</g>
<!-- meta -->
<g id="node7" class="node">
<title>meta</title>
<g id="a_node7"><a xlink:title="prototype">
<polygon fill="beige" stroke="black" stroke-dasharray="5,2" points="505.5,-469 436.5,-469 436.5,-433 505.5,-433 505.5,-469"/>
<text text-anchor="start" x="445" y="-453.8" font-family="Courier,monospace" font-size="9.00"> </text>
<text text-anchor="start" x="457.5" y="-453.2" font-family="Courier,monospace" font-size="11.00">meta</text>
<text text-anchor="start" x="492" y="-453.8" font-family="Courier,monospace" font-size="9.00"> </text>
<text text-anchor="start" x="445" y="-442.8" font-family="Courier,monospace" font-size="9.00"> </text>
<text text-anchor="start" x="451" y="-443.4" font-family="Courier,monospace" font-size="7.00">prototype</text>
<text text-anchor="start" x="492" y="-442.8" font-family="Courier,monospace" font-size="9.00"> </text>
</a>
</g>
</g>
<!-- board(Board)&#45;&gt;meta -->
<g id="edge2" class="edge">
<title>board(Board)&#45;&gt;meta</title>
<path fill="none" stroke="black" d="M221.76,-319.75C224.85,-321.26 227.94,-322.69 231,-324 284.92,-347.11 304.49,-335.95 358,-360 392.64,-375.57 400.82,-381.69 430,-406 436.92,-411.76 443.83,-418.64 449.95,-425.22"/>
<polygon fill="black" stroke="black" points="447.43,-427.65 456.73,-432.73 452.63,-422.96 447.43,-427.65"/>
<g id="a_edge2&#45;label"><a xlink:title="uses">
<text text-anchor="middle" x="390" y="-362.8" font-family="Courier,monospace" font-size="9.00">uses</text>
</a>
</g>
</g>
<!-- human(Char) -->
<g id="node2" class="node">
<title>human(Char)</title>
<g id="a_node2"><a xlink:title="prototype">
<polygon fill="cornsilk" stroke="black" points="342.5,-302 239.5,-302 239.5,-266 342.5,-266 342.5,-302"/>
<text text-anchor="start" x="248" y="-286.8" font-family="Courier,monospace" font-size="9.00"> </text>
<text text-anchor="start" x="254" y="-286.2" font-family="Courier,monospace" font-size="11.00">human(Char)</text>
<text text-anchor="start" x="329" y="-286.8" font-family="Courier,monospace" font-size="9.00"> </text>
<text text-anchor="start" x="248" y="-275.8" font-family="Courier,monospace" font-size="9.00"> </text>
<text text-anchor="start" x="271" y="-276.4" font-family="Courier,monospace" font-size="7.00">prototype</text>
<text text-anchor="start" x="329" y="-275.8" font-family="Courier,monospace" font-size="9.00"> </text>
</a>
</g>
</g>
<!-- player(Char) -->
<g id="node5" class="node">
<title>player(Char)</title>
<g id="a_node5"><a xlink:title="category">
<polygon fill="lightcyan" stroke="black" points="398,-496 288,-496 288,-492 284,-492 284,-488 288,-488 288,-414 284,-414 284,-410 288,-410 288,-406 398,-406 398,-496"/>
<polyline fill="none" stroke="black" points="288,-492 292,-492 292,-488 288,-488 "/>
<polyline fill="none" stroke="black" points="288,-414 292,-414 292,-410 288,-410 "/>
<text text-anchor="start" x="296" y="-483.8" font-family="Courier,monospace" font-size="9.00"> </text>
<text text-anchor="start" x="302" y="-483.2" font-family="Courier,monospace" font-size="11.00">player(Char)</text>
<text text-anchor="start" x="384" y="-483.8" font-family="Courier,monospace" font-size="9.00"> </text>
<text text-anchor="start" x="296" y="-472.8" font-family="Courier,monospace" font-size="9.00"> </text>
<text text-anchor="start" x="324.5" y="-473.4" font-family="Courier,monospace" font-size="7.00">category</text>
<text text-anchor="start" x="384" y="-472.8" font-family="Courier,monospace" font-size="9.00"> </text>
<text text-anchor="start" x="296" y="-462.8" font-family="Courier,monospace" font-size="9.00"> </text>
<text text-anchor="start" x="296" y="-452.8" font-family="Courier,monospace" font-size="9.00"> </text>
<text text-anchor="start" x="327" y="-452.8" font-family="Courier,monospace" font-size="9.00">char/1</text>
<text text-anchor="start" x="384" y="-452.8" font-family="Courier,monospace" font-size="9.00"> </text>
<text text-anchor="start" x="296" y="-442.8" font-family="Courier,monospace" font-size="9.00"> </text>
<text text-anchor="start" x="308.5" y="-442.8" font-family="Courier,monospace" font-size="9.00">choose_move/2</text>
<text text-anchor="start" x="384" y="-442.8" font-family="Courier,monospace" font-size="9.00"> </text>
<text text-anchor="start" x="296" y="-432.8" font-family="Courier,monospace" font-size="9.00"> </text>
<text text-anchor="start" x="319" y="-432.8" font-family="Courier,monospace" font-size="9.00">has_won/1</text>
<text text-anchor="start" x="384" y="-432.8" font-family="Courier,monospace" font-size="9.00"> </text>
<text text-anchor="start" x="296" y="-422.8" font-family="Courier,monospace" font-size="9.00"> </text>
<text text-anchor="start" x="327" y="-422.8" font-family="Courier,monospace" font-size="9.00">move/2</text>
<text text-anchor="start" x="384" y="-422.8" font-family="Courier,monospace" font-size="9.00"> </text>
<text text-anchor="start" x="296" y="-412.8" font-family="Courier,monospace" font-size="9.00"> </text>
<text text-anchor="start" x="319" y="-412.8" font-family="Courier,monospace" font-size="9.00">win_msg/0</text>
<text text-anchor="start" x="384" y="-412.8" font-family="Courier,monospace" font-size="9.00"> </text>
</a>
</g>
</g>
<!-- human(Char)&#45;&gt;player(Char) -->
<g id="edge3" class="edge">
<title>human(Char)&#45;&gt;player(Char)</title>
<path fill="none" stroke="black" d="M296.37,-302.04C303.31,-324.05 315.71,-363.42 325.99,-396.01"/>
<polygon fill="black" stroke="black" points="332.91,-404.68 325.28,-407.09 322.88,-399.46 330.51,-397.05 332.91,-404.68"/>
<polyline fill="none" stroke="black" points="326.69,-398.25 326.09,-396.35 "/>
<g id="a_edge3&#45;label"><a xlink:title="imports">
<text text-anchor="middle" x="335.5" y="-362.8" font-family="Courier,monospace" font-size="9.00">imports</text>
</a>
</g>
</g>
<!-- computer(Difficulty) -->
<g id="node3" class="node">
<title>computer(Difficulty)</title>
<g id="a_node3"><a xlink:title="prototype">
<polygon fill="cornsilk" stroke="black" points="406,-162 242,-162 242,-112 406,-112 406,-162"/>
<text text-anchor="start" x="250" y="-149.8" font-family="Courier,monospace" font-size="9.00"> </text>
<text text-anchor="start" x="256" y="-149.2" font-family="Courier,monospace" font-size="11.00">computer(Difficulty)</text>
<text text-anchor="start" x="392" y="-149.8" font-family="Courier,monospace" font-size="9.00"> </text>
<text text-anchor="start" x="250" y="-138.8" font-family="Courier,monospace" font-size="9.00"> </text>
<text text-anchor="start" x="303.5" y="-139.4" font-family="Courier,monospace" font-size="7.00">prototype</text>
<text text-anchor="start" x="392" y="-138.8" font-family="Courier,monospace" font-size="9.00"> </text>
<text text-anchor="start" x="250" y="-128.8" font-family="Courier,monospace" font-size="9.00"> </text>
<text text-anchor="start" x="250" y="-118.8" font-family="Courier,monospace" font-size="9.00"> </text>
<text text-anchor="start" x="289.5" y="-118.8" font-family="Courier,monospace" font-size="9.00">choose_move/3</text>
<text text-anchor="start" x="392" y="-118.8" font-family="Courier,monospace" font-size="9.00"> </text>
</a>
</g>
</g>
<!-- computer(Difficulty)&#45;&gt;human(Char) -->
<g id="edge5" class="edge">
<title>computer(Difficulty)&#45;&gt;human(Char)</title>
<path fill="none" stroke="black" d="M318.48,-162.27C312.58,-188.18 303.26,-229.12 297.14,-256.02"/>
<polygon fill="black" stroke="black" points="293.69,-255.4 294.89,-265.92 300.52,-256.95 293.69,-255.4"/>
<g id="a_edge5&#45;label"><a xlink:title="uses">
<text text-anchor="middle" x="320" y="-200.8" font-family="Courier,monospace" font-size="9.00">uses</text>
</a>
</g>
</g>
<!-- computer(Difficulty)&#45;&gt;player(Char) -->
<g id="edge4" class="edge">
<title>computer(Difficulty)&#45;&gt;player(Char)</title>
<path fill="none" stroke="black" d="M331.42,-162.28C343.43,-204.4 365.08,-293.8 358,-370 357.22,-378.39 355.99,-387.22 354.56,-395.82"/>
<polygon fill="black" stroke="black" points="356.74,-406.47 348.87,-405.08 350.25,-397.2 358.13,-398.59 356.74,-406.47"/>
<polyline fill="none" stroke="black" points="354.19,-397.9 354.54,-395.93 "/>
<g id="a_edge4&#45;label"><a xlink:title="imports">
<text text-anchor="middle" x="377.5" y="-281.8" font-family="Courier,monospace" font-size="9.00">imports</text>
</a>
</g>
</g>
<!-- computer(Difficulty)&#45;&gt;list -->
<g id="edge7" class="edge">
<title>computer(Difficulty)&#45;&gt;list</title>
<path fill="none" stroke="black" d="M244.01,-162.07C179.95,-183.13 97.65,-214.83 78,-244 41.16,-298.7 44.22,-380.51 48.96,-422.68"/>
<polygon fill="black" stroke="black" points="45.5,-423.26 50.21,-432.75 52.45,-422.4 45.5,-423.26"/>
<g id="a_edge7&#45;label"><a xlink:title="uses">
<text text-anchor="middle" x="89" y="-281.8" font-family="Courier,monospace" font-size="9.00">uses</text>
</a>
</g>
</g>
<!-- fast_random -->
<g id="node8" class="node">
<title>fast_random</title>
<g id="a_node8"><a xlink:title="prototype">
<polygon fill="beige" stroke="black" stroke-dasharray="5,2" points="539.5,-302 436.5,-302 436.5,-266 539.5,-266 539.5,-302"/>
<text text-anchor="start" x="445" y="-286.8" font-family="Courier,monospace" font-size="9.00"> </text>
<text text-anchor="start" x="451" y="-286.2" font-family="Courier,monospace" font-size="11.00">fast_random</text>
<text text-anchor="start" x="526" y="-286.8" font-family="Courier,monospace" font-size="9.00"> </text>
<text text-anchor="start" x="445" y="-275.8" font-family="Courier,monospace" font-size="9.00"> </text>
<text text-anchor="start" x="468" y="-276.4" font-family="Courier,monospace" font-size="7.00">prototype</text>
<text text-anchor="start" x="526" y="-275.8" font-family="Courier,monospace" font-size="9.00"> </text>
</a>
</g>
</g>
<!-- computer(Difficulty)&#45;&gt;fast_random -->
<g id="edge6" class="edge">
<title>computer(Difficulty)&#45;&gt;fast_random</title>
<path fill="none" stroke="black" d="M351.45,-162.27C381.92,-189.21 430.78,-232.41 461.04,-259.17"/>
<polygon fill="black" stroke="black" points="458.88,-261.92 468.69,-265.92 463.51,-256.68 458.88,-261.92"/>
<g id="a_edge6&#45;label"><a xlink:title="uses">
<text text-anchor="middle" x="412" y="-200.8" font-family="Courier,monospace" font-size="9.00">uses</text>
</a>
</g>
</g>
<!-- game(Mode) -->
<g id="node4" class="node">
<title>game(Mode)</title>
<g id="a_node4"><a xlink:title="prototype">
<polygon fill="cornsilk" stroke="black" points="213,-162 117,-162 117,-112 213,-112 213,-162"/>
<text text-anchor="start" x="125" y="-149.8" font-family="Courier,monospace" font-size="9.00"> </text>
<text text-anchor="start" x="131" y="-149.2" font-family="Courier,monospace" font-size="11.00">game(Mode)</text>
<text text-anchor="start" x="199" y="-149.8" font-family="Courier,monospace" font-size="9.00"> </text>
<text text-anchor="start" x="125" y="-138.8" font-family="Courier,monospace" font-size="9.00"> </text>
<text text-anchor="start" x="144.5" y="-139.4" font-family="Courier,monospace" font-size="7.00">prototype</text>
<text text-anchor="start" x="199" y="-138.8" font-family="Courier,monospace" font-size="9.00"> </text>
<text text-anchor="start" x="125" y="-128.8" font-family="Courier,monospace" font-size="9.00"> </text>
<text text-anchor="start" x="125" y="-118.8" font-family="Courier,monospace" font-size="9.00"> </text>
<text text-anchor="start" x="149" y="-118.8" font-family="Courier,monospace" font-size="9.00">play/0</text>
<text text-anchor="start" x="199" y="-118.8" font-family="Courier,monospace" font-size="9.00"> </text>
</a>
</g>
</g>
<!-- game(Mode)&#45;&gt;board(Board) -->
<g id="edge8" class="edge">
<title>game(Mode)&#45;&gt;board(Board)</title>
<path fill="none" stroke="black" d="M165,-162.27C165,-181.74 165,-209.7 165,-233.82"/>
<polygon fill="black" stroke="black" points="161.5,-233.88 165,-243.88 168.5,-233.88 161.5,-233.88"/>
<g id="a_edge8&#45;label"><a xlink:title="uses">
<text text-anchor="middle" x="176" y="-200.8" font-family="Courier,monospace" font-size="9.00">uses</text>
</a>
</g>
</g>
</g>
</svg>
