<?xml version="1.0" encoding="UTF-8" standalone="no"?>
<!DOCTYPE svg PUBLIC "-//W3C//DTD SVG 1.1//EN"
 "http://www.w3.org/Graphics/SVG/1.1/DTD/svg11.dtd">
<!-- Generated by graphviz version 2.40.1 (20161225.0304)
 -->
<!-- Title: tictactoetalk Pages: 1 -->
<svg width="711pt" height="1199pt"
 viewBox="72.00 72.00 639.00 1127.00" xmlns="http://www.w3.org/2000/svg" xmlns:xlink="http://www.w3.org/1999/xlink">
<g id="graph0" class="graph" transform="scale(1 1) rotate(0) translate(76 1123)">
<title>tictactoetalk</title>
<polygon fill="#ffffff" stroke="transparent" points="-4,4 -4,-1051 563,-1051 563,4 -4,4"/>
<text text-anchor="start" x="8" y="-18" font-family="Courier,monospace" font-size="10.00" fill="#696969">Entity diagram for directory tictactoetalk/</text>
<text text-anchor="start" x="8" y="-7" font-family="Courier,monospace" font-size="10.00" fill="#696969">Generated on 2019/11/06, 11:48</text>
<g id="clust1" class="cluster">
<title>cluster_directory_tictactoetalk</title>
<g id="a_clust1"><a xlink:title="tictactoetalk/">
<path fill="#f5f5f5" stroke="#696969" d="M20,-38C20,-38 539,-38 539,-38 545,-38 551,-44 551,-50 551,-50 551,-1027 551,-1027 551,-1033 545,-1039 539,-1039 539,-1039 20,-1039 20,-1039 14,-1039 8,-1033 8,-1027 8,-1027 8,-50 8,-50 8,-44 14,-38 20,-38"/>
<text text-anchor="start" x="20.5" y="-48.5" font-family="Courier,monospace" font-size="10.00" fill="#696969">tictactoetalk/</text>
</a>
</g>
</g>
<g id="clust3" class="cluster">
<title>cluster_file_/home/paul/Development/tictactoetalk/game.lgt</title>
<g id="a_clust3"><a xlink:title="tictactoetalk/game.lgt">
<path fill="#fffafa" stroke="#696969" d="M110,-75C110,-75 415,-75 415,-75 421,-75 427,-81 427,-87 427,-87 427,-1017 427,-1017 427,-1023 421,-1029 415,-1029 415,-1029 110,-1029 110,-1029 104,-1029 98,-1023 98,-1017 98,-1017 98,-87 98,-87 98,-81 104,-75 110,-75"/>
<text text-anchor="start" x="110.5" y="-85.5" font-family="Courier,monospace" font-size="10.00" fill="#696969">game.lgt</text>
</a>
</g>
</g>
<!-- board(Board) -->
<g id="node1" class="node">
<title>board(Board)</title>
<g id="a_node1"><a xlink:title="prototype">
<polygon fill="#fff8dc" stroke="#000000" points="416.5,-590 303.5,-590 303.5,-510 416.5,-510 416.5,-590"/>
<text text-anchor="start" x="312" y="-577.8" font-family="Courier,monospace" font-size="9.00" fill="#000000"> </text>
<text text-anchor="start" x="319.5" y="-577.2" font-family="Courier,monospace" font-size="11.00" fill="#000000">board(Board)</text>
<text text-anchor="start" x="403" y="-577.8" font-family="Courier,monospace" font-size="9.00" fill="#000000"> </text>
<text text-anchor="start" x="312" y="-566.8" font-family="Courier,monospace" font-size="9.00" fill="#000000"> </text>
<text text-anchor="start" x="340" y="-567.4" font-family="Courier,monospace" font-size="7.00" fill="#000000">prototype</text>
<text text-anchor="start" x="403" y="-566.8" font-family="Courier,monospace" font-size="9.00" fill="#000000"> </text>
<text text-anchor="start" x="312" y="-556.8" font-family="Courier,monospace" font-size="9.00" fill="#000000"> </text>
<text text-anchor="start" x="312" y="-546.8" font-family="Courier,monospace" font-size="9.00" fill="#000000"> </text>
<text text-anchor="start" x="344.5" y="-546.8" font-family="Courier,monospace" font-size="9.00" fill="#000000">init/0</text>
<text text-anchor="start" x="403" y="-546.8" font-family="Courier,monospace" font-size="9.00" fill="#000000"> </text>
<text text-anchor="start" x="312" y="-536.8" font-family="Courier,monospace" font-size="9.00" fill="#000000"> </text>
<text text-anchor="start" x="318" y="-536.8" font-family="Courier,monospace" font-size="9.00" fill="#000000">available_move/1</text>
<text text-anchor="start" x="403" y="-536.8" font-family="Courier,monospace" font-size="9.00" fill="#000000"> </text>
<text text-anchor="start" x="312" y="-526.8" font-family="Courier,monospace" font-size="9.00" fill="#000000"> </text>
<text text-anchor="start" x="339" y="-526.8" font-family="Courier,monospace" font-size="9.00" fill="#000000">update/3</text>
<text text-anchor="start" x="403" y="-526.8" font-family="Courier,monospace" font-size="9.00" fill="#000000"> </text>
<text text-anchor="start" x="312" y="-516.8" font-family="Courier,monospace" font-size="9.00" fill="#000000"> </text>
<text text-anchor="start" x="326" y="-516.8" font-family="Courier,monospace" font-size="9.00" fill="#000000">print_board/0</text>
<text text-anchor="start" x="403" y="-516.8" font-family="Courier,monospace" font-size="9.00" fill="#000000"> </text>
</a>
</g>
</g>
<!-- list -->
<g id="node6" class="node">
<title>list</title>
<g id="a_node6"><a xlink:title="prototype">
<polygon fill="#f5f5dc" stroke="#000000" stroke-dasharray="5,2" points="87.5,-782 18.5,-782 18.5,-746 87.5,-746 87.5,-782"/>
<text text-anchor="start" x="27" y="-766.8" font-family="Courier,monospace" font-size="9.00" fill="#000000"> </text>
<text text-anchor="start" x="39.5" y="-766.2" font-family="Courier,monospace" font-size="11.00" fill="#000000">list</text>
<text text-anchor="start" x="74" y="-766.8" font-family="Courier,monospace" font-size="9.00" fill="#000000"> </text>
<text text-anchor="start" x="27" y="-755.8" font-family="Courier,monospace" font-size="9.00" fill="#000000"> </text>
<text text-anchor="start" x="33" y="-756.4" font-family="Courier,monospace" font-size="7.00" fill="#000000">prototype</text>
<text text-anchor="start" x="74" y="-755.8" font-family="Courier,monospace" font-size="9.00" fill="#000000"> </text>
</a>
</g>
</g>
<!-- board(Board)&#45;&gt;list -->
<g id="edge1" class="edge">
<title>board(Board)&#45;&gt;list</title>
<path fill="none" stroke="#000000" d="M303.3337,-589.5003C239.9844,-633.6591 139.4443,-703.7424 87.1417,-740.2009"/>
<polygon fill="#000000" stroke="#000000" points="85.072,-737.3772 78.8699,-745.9669 89.075,-743.1197 85.072,-737.3772"/>
<g id="a_edge1&#45;label"><a xlink:title="uses">
<text text-anchor="middle" x="208" y="-665.8" font-family="Courier,monospace" font-size="9.00" fill="#000000">uses</text>
</a>
</g>
</g>
<!-- meta -->
<g id="node7" class="node">
<title>meta</title>
<g id="a_node7"><a xlink:title="prototype">
<polygon fill="#f5f5dc" stroke="#000000" stroke-dasharray="5,2" points="506.5,-782 437.5,-782 437.5,-746 506.5,-746 506.5,-782"/>
<text text-anchor="start" x="446" y="-766.8" font-family="Courier,monospace" font-size="9.00" fill="#000000"> </text>
<text text-anchor="start" x="458.5" y="-766.2" font-family="Courier,monospace" font-size="11.00" fill="#000000">meta</text>
<text text-anchor="start" x="493" y="-766.8" font-family="Courier,monospace" font-size="9.00" fill="#000000"> </text>
<text text-anchor="start" x="446" y="-755.8" font-family="Courier,monospace" font-size="9.00" fill="#000000"> </text>
<text text-anchor="start" x="452" y="-756.4" font-family="Courier,monospace" font-size="7.00" fill="#000000">prototype</text>
<text text-anchor="start" x="493" y="-755.8" font-family="Courier,monospace" font-size="9.00" fill="#000000"> </text>
</a>
</g>
</g>
<!-- board(Board)&#45;&gt;meta -->
<g id="edge2" class="edge">
<title>board(Board)&#45;&gt;meta</title>
<path fill="none" stroke="#000000" d="M380.935,-590.0007C403.3113,-632.7556 438.1862,-699.3915 457.6432,-736.5682"/>
<polygon fill="#000000" stroke="#000000" points="454.732,-738.5539 462.47,-745.7909 460.934,-735.308 454.732,-738.5539"/>
<g id="a_edge2&#45;label"><a xlink:title="uses">
<text text-anchor="middle" x="435" y="-665.8" font-family="Courier,monospace" font-size="9.00" fill="#000000">uses</text>
</a>
</g>
</g>
<!-- human(Char) -->
<g id="node2" class="node">
<title>human(Char)</title>
<g id="a_node2"><a xlink:title="prototype">
<polygon fill="#fff8dc" stroke="#000000" points="211.5,-568 108.5,-568 108.5,-532 211.5,-532 211.5,-568"/>
<text text-anchor="start" x="117" y="-552.8" font-family="Courier,monospace" font-size="9.00" fill="#000000"> </text>
<text text-anchor="start" x="123" y="-552.2" font-family="Courier,monospace" font-size="11.00" fill="#000000">human(Char)</text>
<text text-anchor="start" x="198" y="-552.8" font-family="Courier,monospace" font-size="9.00" fill="#000000"> </text>
<text text-anchor="start" x="117" y="-541.8" font-family="Courier,monospace" font-size="9.00" fill="#000000"> </text>
<text text-anchor="start" x="140" y="-542.4" font-family="Courier,monospace" font-size="7.00" fill="#000000">prototype</text>
<text text-anchor="start" x="198" y="-541.8" font-family="Courier,monospace" font-size="9.00" fill="#000000"> </text>
</a>
</g>
</g>
<!-- player(Char) -->
<g id="node5" class="node">
<title>player(Char)</title>
<g id="a_node5"><a xlink:title="category">
<polygon fill="#e0ffff" stroke="#000000" points="268,-1019 158,-1019 158,-1015 154,-1015 154,-1011 158,-1011 158,-937 154,-937 154,-933 158,-933 158,-929 268,-929 268,-1019"/>
<polyline fill="none" stroke="#000000" points="158,-1015 162,-1015 162,-1011 158,-1011 "/>
<polyline fill="none" stroke="#000000" points="158,-937 162,-937 162,-933 158,-933 "/>
<text text-anchor="start" x="166" y="-1006.8" font-family="Courier,monospace" font-size="9.00" fill="#000000"> </text>
<text text-anchor="start" x="172" y="-1006.2" font-family="Courier,monospace" font-size="11.00" fill="#000000">player(Char)</text>
<text text-anchor="start" x="254" y="-1006.8" font-family="Courier,monospace" font-size="9.00" fill="#000000"> </text>
<text text-anchor="start" x="166" y="-995.8" font-family="Courier,monospace" font-size="9.00" fill="#000000"> </text>
<text text-anchor="start" x="194.5" y="-996.4" font-family="Courier,monospace" font-size="7.00" fill="#000000">category</text>
<text text-anchor="start" x="254" y="-995.8" font-family="Courier,monospace" font-size="9.00" fill="#000000"> </text>
<text text-anchor="start" x="166" y="-985.8" font-family="Courier,monospace" font-size="9.00" fill="#000000"> </text>
<text text-anchor="start" x="166" y="-975.8" font-family="Courier,monospace" font-size="9.00" fill="#000000"> </text>
<text text-anchor="start" x="197" y="-975.8" font-family="Courier,monospace" font-size="9.00" fill="#000000">char/1</text>
<text text-anchor="start" x="254" y="-975.8" font-family="Courier,monospace" font-size="9.00" fill="#000000"> </text>
<text text-anchor="start" x="166" y="-965.8" font-family="Courier,monospace" font-size="9.00" fill="#000000"> </text>
<text text-anchor="start" x="178.5" y="-965.8" font-family="Courier,monospace" font-size="9.00" fill="#000000">choose_move/2</text>
<text text-anchor="start" x="254" y="-965.8" font-family="Courier,monospace" font-size="9.00" fill="#000000"> </text>
<text text-anchor="start" x="166" y="-955.8" font-family="Courier,monospace" font-size="9.00" fill="#000000"> </text>
<text text-anchor="start" x="189" y="-955.8" font-family="Courier,monospace" font-size="9.00" fill="#000000">has_won/1</text>
<text text-anchor="start" x="254" y="-955.8" font-family="Courier,monospace" font-size="9.00" fill="#000000"> </text>
<text text-anchor="start" x="166" y="-945.8" font-family="Courier,monospace" font-size="9.00" fill="#000000"> </text>
<text text-anchor="start" x="197" y="-945.8" font-family="Courier,monospace" font-size="9.00" fill="#000000">move/2</text>
<text text-anchor="start" x="254" y="-945.8" font-family="Courier,monospace" font-size="9.00" fill="#000000"> </text>
<text text-anchor="start" x="166" y="-935.8" font-family="Courier,monospace" font-size="9.00" fill="#000000"> </text>
<text text-anchor="start" x="189" y="-935.8" font-family="Courier,monospace" font-size="9.00" fill="#000000">win_msg/0</text>
<text text-anchor="start" x="254" y="-935.8" font-family="Courier,monospace" font-size="9.00" fill="#000000"> </text>
</a>
</g>
</g>
<!-- human(Char)&#45;&gt;player(Char) -->
<g id="edge3" class="edge">
<title>human(Char)&#45;&gt;player(Char)</title>
<path fill="none" stroke="#000000" d="M164.2898,-568.2777C169.3259,-591.3705 177,-632.4001 177,-668 177,-668 177,-668 177,-855.5 177,-876.9341 182.4589,-899.644 189.1252,-919.3859"/>
<polygon fill="#000000" stroke="#000000" points="196.2455,-927.4815 188.7069,-930.1592 186.0292,-922.6206 193.5679,-919.9429 196.2455,-927.4815"/>
<polyline fill="none" stroke="#000000" points="189.7985,-921.2817 189.1291,-919.3971 "/>
<g id="a_edge3&#45;label"><a xlink:title="imports">
<text text-anchor="middle" x="195.5" y="-761.8" font-family="Courier,monospace" font-size="9.00" fill="#000000">imports</text>
</a>
</g>
</g>
<!-- computer(Difficulty) -->
<g id="node3" class="node">
<title>computer(Difficulty)</title>
<g id="a_node3"><a xlink:title="prototype">
<polygon fill="#fff8dc" stroke="#000000" points="283,-162 119,-162 119,-112 283,-112 283,-162"/>
<text text-anchor="start" x="127" y="-149.8" font-family="Courier,monospace" font-size="9.00" fill="#000000"> </text>
<text text-anchor="start" x="133" y="-149.2" font-family="Courier,monospace" font-size="11.00" fill="#000000">computer(Difficulty)</text>
<text text-anchor="start" x="269" y="-149.8" font-family="Courier,monospace" font-size="9.00" fill="#000000"> </text>
<text text-anchor="start" x="127" y="-138.8" font-family="Courier,monospace" font-size="9.00" fill="#000000"> </text>
<text text-anchor="start" x="180.5" y="-139.4" font-family="Courier,monospace" font-size="7.00" fill="#000000">prototype</text>
<text text-anchor="start" x="269" y="-138.8" font-family="Courier,monospace" font-size="9.00" fill="#000000"> </text>
<text text-anchor="start" x="127" y="-128.8" font-family="Courier,monospace" font-size="9.00" fill="#000000"> </text>
<text text-anchor="start" x="127" y="-118.8" font-family="Courier,monospace" font-size="9.00" fill="#000000"> </text>
<text text-anchor="start" x="166.5" y="-118.8" font-family="Courier,monospace" font-size="9.00" fill="#000000">choose_move/3</text>
<text text-anchor="start" x="269" y="-118.8" font-family="Courier,monospace" font-size="9.00" fill="#000000"> </text>
</a>
</g>
</g>
<!-- computer(Difficulty)&#45;&gt;human(Char) -->
<g id="edge5" class="edge">
<title>computer(Difficulty)&#45;&gt;human(Char)</title>
<path fill="none" stroke="#000000" d="M192.9409,-162.1065C187.0188,-182.785 180,-212.9903 180,-240 180,-240 180,-240 180,-432 180,-463.1317 173.1493,-498.2421 167.4668,-522.0102"/>
<polygon fill="#000000" stroke="#000000" points="164.0572,-521.2186 165.0468,-531.7671 170.8513,-522.9038 164.0572,-521.2186"/>
<g id="a_edge5&#45;label"><a xlink:title="uses">
<text text-anchor="middle" x="191" y="-333.8" font-family="Courier,monospace" font-size="9.00" fill="#000000">uses</text>
</a>
</g>
</g>
<!-- computer(Difficulty)&#45;&gt;player(Char) -->
<g id="edge4" class="edge">
<title>computer(Difficulty)&#45;&gt;player(Char)</title>
<path fill="none" stroke="#000000" d="M219.8459,-162.2259C232.9216,-182.2405 248,-211.4993 248,-240 248,-240 248,-240 248,-855.5 248,-876.7873 242.7409,-899.377 236.2999,-919.0609"/>
<polygon fill="#000000" stroke="#000000" points="236.7354,-930.072 229.1721,-927.465 231.7792,-919.9017 239.3425,-922.5087 236.7354,-930.072"/>
<polyline fill="none" stroke="#000000" points="235.5608,-921.2052 236.2126,-919.3144 "/>
<g id="a_edge4&#45;label"><a xlink:title="imports">
<text text-anchor="middle" x="266.5" y="-547.8" font-family="Courier,monospace" font-size="9.00" fill="#000000">imports</text>
</a>
</g>
</g>
<!-- computer(Difficulty)&#45;&gt;list -->
<g id="edge7" class="edge">
<title>computer(Difficulty)&#45;&gt;list</title>
<path fill="none" stroke="#000000" d="M125.6726,-162.0591C92.5356,-178.2746 61,-203.3375 61,-240 61,-240 61,-240 61,-668 61,-690.8948 58.7124,-716.7552 56.5837,-735.8628"/>
<polygon fill="#000000" stroke="#000000" points="53.0847,-735.6512 55.4003,-745.9899 60.0374,-736.4638 53.0847,-735.6512"/>
<g id="a_edge7&#45;label"><a xlink:title="uses">
<text text-anchor="middle" x="72" y="-429.8" font-family="Courier,monospace" font-size="9.00" fill="#000000">uses</text>
</a>
</g>
</g>
<!-- fast_random -->
<g id="node8" class="node">
<title>fast_random</title>
<g id="a_node8"><a xlink:title="prototype">
<polygon fill="#f5f5dc" stroke="#000000" stroke-dasharray="5,2" points="540.5,-354 437.5,-354 437.5,-318 540.5,-318 540.5,-354"/>
<text text-anchor="start" x="446" y="-338.8" font-family="Courier,monospace" font-size="9.00" fill="#000000"> </text>
<text text-anchor="start" x="452" y="-338.2" font-family="Courier,monospace" font-size="11.00" fill="#000000">fast_random</text>
<text text-anchor="start" x="527" y="-338.8" font-family="Courier,monospace" font-size="9.00" fill="#000000"> </text>
<text text-anchor="start" x="446" y="-327.8" font-family="Courier,monospace" font-size="9.00" fill="#000000"> </text>
<text text-anchor="start" x="469" y="-328.4" font-family="Courier,monospace" font-size="7.00" fill="#000000">prototype</text>
<text text-anchor="start" x="527" y="-327.8" font-family="Courier,monospace" font-size="9.00" fill="#000000"> </text>
</a>
</g>
</g>
<!-- computer(Difficulty)&#45;&gt;fast_random -->
<g id="edge6" class="edge">
<title>computer(Difficulty)&#45;&gt;fast_random</title>
<path fill="none" stroke="#000000" d="M237.1838,-162.002C292.968,-200.5473 399.262,-273.9935 454.1984,-311.9531"/>
<polygon fill="#000000" stroke="#000000" points="452.3421,-314.9246 462.5588,-317.7299 456.3214,-309.1657 452.3421,-314.9246"/>
<g id="a_edge6&#45;label"><a xlink:title="uses">
<text text-anchor="middle" x="367" y="-237.8" font-family="Courier,monospace" font-size="9.00" fill="#000000">uses</text>
</a>
</g>
</g>
<!-- game(Mode) -->
<g id="node4" class="node">
<title>game(Mode)</title>
<g id="a_node4"><a xlink:title="prototype">
<polygon fill="#fff8dc" stroke="#000000" points="408,-162 312,-162 312,-112 408,-112 408,-162"/>
<text text-anchor="start" x="320" y="-149.8" font-family="Courier,monospace" font-size="9.00" fill="#000000"> </text>
<text text-anchor="start" x="326" y="-149.2" font-family="Courier,monospace" font-size="11.00" fill="#000000">game(Mode)</text>
<text text-anchor="start" x="394" y="-149.8" font-family="Courier,monospace" font-size="9.00" fill="#000000"> </text>
<text text-anchor="start" x="320" y="-138.8" font-family="Courier,monospace" font-size="9.00" fill="#000000"> </text>
<text text-anchor="start" x="339.5" y="-139.4" font-family="Courier,monospace" font-size="7.00" fill="#000000">prototype</text>
<text text-anchor="start" x="394" y="-138.8" font-family="Courier,monospace" font-size="9.00" fill="#000000"> </text>
<text text-anchor="start" x="320" y="-128.8" font-family="Courier,monospace" font-size="9.00" fill="#000000"> </text>
<text text-anchor="start" x="320" y="-118.8" font-family="Courier,monospace" font-size="9.00" fill="#000000"> </text>
<text text-anchor="start" x="344" y="-118.8" font-family="Courier,monospace" font-size="9.00" fill="#000000">play/0</text>
<text text-anchor="start" x="394" y="-118.8" font-family="Courier,monospace" font-size="9.00" fill="#000000"> </text>
</a>
</g>
</g>
<!-- game(Mode)&#45;&gt;board(Board) -->
<g id="edge8" class="edge">
<title>game(Mode)&#45;&gt;board(Board)</title>
<path fill="none" stroke="#000000" d="M360,-162.3972C360,-183.2444 360,-213.5347 360,-240 360,-240 360,-240 360,-432 360,-454.1694 360,-478.6817 360,-499.5946"/>
<polygon fill="#000000" stroke="#000000" points="356.5001,-499.8573 360,-509.8573 363.5001,-499.8574 356.5001,-499.8573"/>
<g id="a_edge8&#45;label"><a xlink:title="uses">
<text text-anchor="middle" x="371" y="-333.8" font-family="Courier,monospace" font-size="9.00" fill="#000000">uses</text>
</a>
</g>
</g>
</g>
</svg>
