<?xml version="1.0" encoding="UTF-8" standalone="no"?>
<!DOCTYPE svg PUBLIC "-//W3C//DTD SVG 1.1//EN"
 "http://www.w3.org/Graphics/SVG/1.1/DTD/svg11.dtd">
<!-- Generated by graphviz version 2.43.0 (0)
 -->
<!-- Title: tictactoetalk Pages: 1 -->
<svg width="755pt" height="399pt"
 viewBox="72.00 72.00 683.00 327.00" xmlns="http://www.w3.org/2000/svg" xmlns:xlink="http://www.w3.org/1999/xlink">
<g id="graph0" class="graph" transform="scale(1 1) rotate(0) translate(76 323)">
<title>tictactoetalk</title>
<polygon fill="white" stroke="transparent" points="-4,4 -4,-251 607,-251 607,4 -4,4"/>
<text text-anchor="start" x="8" y="-18" font-family="Courier,monospace" font-size="10.00" fill="dimgray">Directory load diagram for directory tictactoetalk/</text>
<text text-anchor="start" x="8" y="-7" font-family="Courier,monospace" font-size="10.00" fill="dimgray">Generated on 2019/11/07, 00:21</text>
<g id="clust1" class="cluster">
<title>cluster_directory_tictactoetalk</title>
<g id="a_clust1"><a xlink:title="tictactoetalk/">
<path fill="whitesmoke" stroke="dimgray" d="M20,-38C20,-38 583,-38 583,-38 589,-38 595,-44 595,-50 595,-50 595,-227 595,-227 595,-233 589,-239 583,-239 583,-239 20,-239 20,-239 14,-239 8,-233 8,-227 8,-227 8,-50 8,-50 8,-44 14,-38 20,-38"/>
<text text-anchor="start" x="20.5" y="-222.5" font-family="Courier,monospace" font-size="10.00" fill="dimgray">tictactoetalk/</text>
</a>
</g>
</g>
<!-- /home/paul/Development/tictactoetalk/ -->
<g id="node1" class="node">
<title>/home/paul/Development/tictactoetalk/</title>
<g id="a_node1"><a xlink:title="tictactoetalk/">
<polygon fill="lightsalmon" stroke="black" points="359.5,-202 248.5,-202 248.5,-206 236.5,-206 236.5,-166 359.5,-166 359.5,-202"/>
<polyline fill="none" stroke="black" points="236.5,-202 248.5,-202 "/>
<text text-anchor="start" x="245" y="-186.8" font-family="Courier,monospace" font-size="9.00"> </text>
<text text-anchor="start" x="251" y="-186.2" font-family="Courier,monospace" font-size="11.00">tictactoetalk/</text>
<text text-anchor="start" x="346" y="-186.8" font-family="Courier,monospace" font-size="9.00"> </text>
<text text-anchor="start" x="245" y="-175.8" font-family="Courier,monospace" font-size="9.00"> </text>
<text text-anchor="start" x="278" y="-176.4" font-family="Courier,monospace" font-size="7.00">directory</text>
<text text-anchor="start" x="346" y="-175.8" font-family="Courier,monospace" font-size="9.00"> </text>
</a>
</g>
</g>
<!-- /home/paul/logtalk/library/types/ -->
<g id="node2" class="node">
<title>/home/paul/logtalk/library/types/</title>
<g id="a_node2"><a xlink:title="logtalk/library/types/">
<polygon fill="salmon" stroke="black" stroke-dasharray="5,2" points="194.5,-84 29.5,-84 29.5,-88 17.5,-88 17.5,-48 194.5,-48 194.5,-84"/>
<polyline fill="none" stroke="black" stroke-dasharray="5,2" points="17.5,-84 29.5,-84 "/>
<text text-anchor="start" x="26" y="-68.8" font-family="Courier,monospace" font-size="9.00"> </text>
<text text-anchor="start" x="32" y="-68.2" font-family="Courier,monospace" font-size="11.00">logtalk/library/types/</text>
<text text-anchor="start" x="181" y="-68.8" font-family="Courier,monospace" font-size="9.00"> </text>
<text text-anchor="start" x="26" y="-57.8" font-family="Courier,monospace" font-size="9.00"> </text>
<text text-anchor="start" x="86" y="-58.4" font-family="Courier,monospace" font-size="7.00">directory</text>
<text text-anchor="start" x="181" y="-57.8" font-family="Courier,monospace" font-size="9.00"> </text>
</a>
</g>
</g>
<!-- /home/paul/Development/tictactoetalk/&#45;&gt;/home/paul/logtalk/library/types/ -->
<g id="edge1" class="edge">
<title>/home/paul/Development/tictactoetalk/&#45;&gt;/home/paul/logtalk/library/types/</title>
<path fill="none" stroke="black" d="M269.67,-165.88C236.2,-145.67 180.42,-111.96 143.42,-89.61"/>
<polygon fill="black" stroke="black" points="144.82,-86.36 134.45,-84.19 141.2,-92.35 144.82,-86.36"/>
<g id="a_edge1&#45;label"><a xlink:title="loads">
<text text-anchor="middle" x="220.5" y="-122.8" font-family="Courier,monospace" font-size="9.00">loads</text>
</a>
</g>
</g>
<!-- /home/paul/logtalk/library/meta/ -->
<g id="node3" class="node">
<title>/home/paul/logtalk/library/meta/</title>
<g id="a_node3"><a xlink:title="logtalk/library/meta/">
<polygon fill="salmon" stroke="black" stroke-dasharray="5,2" points="383,-84 225,-84 225,-88 213,-88 213,-48 383,-48 383,-84"/>
<polyline fill="none" stroke="black" stroke-dasharray="5,2" points="213,-84 225,-84 "/>
<text text-anchor="start" x="221" y="-68.8" font-family="Courier,monospace" font-size="9.00"> </text>
<text text-anchor="start" x="227" y="-68.2" font-family="Courier,monospace" font-size="11.00">logtalk/library/meta/</text>
<text text-anchor="start" x="369" y="-68.8" font-family="Courier,monospace" font-size="9.00"> </text>
<text text-anchor="start" x="221" y="-57.8" font-family="Courier,monospace" font-size="9.00"> </text>
<text text-anchor="start" x="277.5" y="-58.4" font-family="Courier,monospace" font-size="7.00">directory</text>
<text text-anchor="start" x="369" y="-57.8" font-family="Courier,monospace" font-size="9.00"> </text>
</a>
</g>
</g>
<!-- /home/paul/Development/tictactoetalk/&#45;&gt;/home/paul/logtalk/library/meta/ -->
<g id="edge2" class="edge">
<title>/home/paul/Development/tictactoetalk/&#45;&gt;/home/paul/logtalk/library/meta/</title>
<path fill="none" stroke="black" d="M298,-165.88C298,-147.04 298,-116.47 298,-94.3"/>
<polygon fill="black" stroke="black" points="301.5,-94.19 298,-84.19 294.5,-94.19 301.5,-94.19"/>
<g id="a_edge2&#45;label"><a xlink:title="loads">
<text text-anchor="middle" x="311.5" y="-122.8" font-family="Courier,monospace" font-size="9.00">loads</text>
</a>
</g>
</g>
<!-- /home/paul/logtalk/library/random/ -->
<g id="node4" class="node">
<title>/home/paul/logtalk/library/random/</title>
<g id="a_node4"><a xlink:title="logtalk/library/random/">
<polygon fill="salmon" stroke="black" stroke-dasharray="5,2" points="585,-84 413,-84 413,-88 401,-88 401,-48 585,-48 585,-84"/>
<polyline fill="none" stroke="black" stroke-dasharray="5,2" points="401,-84 413,-84 "/>
<text text-anchor="start" x="409" y="-68.8" font-family="Courier,monospace" font-size="9.00"> </text>
<text text-anchor="start" x="415" y="-68.2" font-family="Courier,monospace" font-size="11.00">logtalk/library/random/</text>
<text text-anchor="start" x="571" y="-68.8" font-family="Courier,monospace" font-size="9.00"> </text>
<text text-anchor="start" x="409" y="-57.8" font-family="Courier,monospace" font-size="9.00"> </text>
<text text-anchor="start" x="472.5" y="-58.4" font-family="Courier,monospace" font-size="7.00">directory</text>
<text text-anchor="start" x="571" y="-57.8" font-family="Courier,monospace" font-size="9.00"> </text>
</a>
</g>
</g>
<!-- /home/paul/Development/tictactoetalk/&#45;&gt;/home/paul/logtalk/library/random/ -->
<g id="edge3" class="edge">
<title>/home/paul/Development/tictactoetalk/&#45;&gt;/home/paul/logtalk/library/random/</title>
<path fill="none" stroke="black" d="M326.77,-165.88C360.9,-145.58 417.9,-111.68 455.47,-89.33"/>
<polygon fill="black" stroke="black" points="457.3,-92.31 464.11,-84.19 453.73,-86.29 457.3,-92.31"/>
<g id="a_edge3&#45;label"><a xlink:title="loads">
<text text-anchor="middle" x="414.5" y="-122.8" font-family="Courier,monospace" font-size="9.00">loads</text>
</a>
</g>
</g>
</g>
</svg>
