<?xml version="1.0" encoding="UTF-8" standalone="no"?>
<!DOCTYPE svg PUBLIC "-//W3C//DTD SVG 1.1//EN"
 "http://www.w3.org/Graphics/SVG/1.1/DTD/svg11.dtd">
<!-- Generated by graphviz version 2.43.0 (0)
 -->
<!-- Title: tictactoetalk Pages: 1 -->
<svg width="614pt" height="399pt"
 viewBox="72.00 72.00 542.00 327.00" xmlns="http://www.w3.org/2000/svg" xmlns:xlink="http://www.w3.org/1999/xlink">
<g id="graph0" class="graph" transform="scale(1 1) rotate(0) translate(76 323)">
<title>tictactoetalk</title>
<polygon fill="white" stroke="transparent" points="-4,4 -4,-251 466,-251 466,4 -4,4"/>
<text text-anchor="start" x="8" y="-18" font-family="Courier,monospace" font-size="10.00" fill="dimgray">File load diagram for directory tictactoetalk/</text>
<text text-anchor="start" x="8" y="-7" font-family="Courier,monospace" font-size="10.00" fill="dimgray">Generated on 2019/11/07, 00:21</text>
<g id="clust1" class="cluster">
<title>cluster_directory_tictactoetalk</title>
<g id="a_clust1"><a xlink:title="tictactoetalk/">
<path fill="whitesmoke" stroke="dimgray" d="M20,-38C20,-38 442,-38 442,-38 448,-38 454,-44 454,-50 454,-50 454,-227 454,-227 454,-233 448,-239 442,-239 442,-239 20,-239 20,-239 14,-239 8,-233 8,-227 8,-227 8,-50 8,-50 8,-44 14,-38 20,-38"/>
<text text-anchor="start" x="20.5" y="-222.5" font-family="Courier,monospace" font-size="10.00" fill="dimgray">tictactoetalk/</text>
</a>
</g>
</g>
<!-- /home/paul/Development/tictactoetalk/loader.lgt -->
<g id="node1" class="node">
<title>/home/paul/Development/tictactoetalk/loader.lgt</title>
<g id="a_node1"><a xlink:title="tictactoetalk/loader.lgt">
<polygon fill="paleturquoise" stroke="black" points="273,-202 177,-202 177,-166 273,-166 273,-202"/>
<text text-anchor="start" x="185" y="-186.8" font-family="Courier,monospace" font-size="9.00"> </text>
<text text-anchor="start" x="191" y="-186.2" font-family="Courier,monospace" font-size="11.00">loader.lgt</text>
<text text-anchor="start" x="259" y="-186.8" font-family="Courier,monospace" font-size="9.00"> </text>
<text text-anchor="start" x="185" y="-175.8" font-family="Courier,monospace" font-size="9.00"> </text>
<text text-anchor="start" x="215.5" y="-176.4" font-family="Courier,monospace" font-size="7.00">file</text>
<text text-anchor="start" x="259" y="-175.8" font-family="Courier,monospace" font-size="9.00"> </text>
</a>
</g>
</g>
<!-- /home/paul/Development/tictactoetalk/game.lgt -->
<g id="node2" class="node">
<title>/home/paul/Development/tictactoetalk/game.lgt</title>
<g id="a_node2"><a xlink:title="tictactoetalk/game.lgt">
<polygon fill="paleturquoise" stroke="black" points="101.5,-84 18.5,-84 18.5,-48 101.5,-48 101.5,-84"/>
<text text-anchor="start" x="27" y="-68.8" font-family="Courier,monospace" font-size="9.00"> </text>
<text text-anchor="start" x="33" y="-68.2" font-family="Courier,monospace" font-size="11.00">game.lgt</text>
<text text-anchor="start" x="88" y="-68.8" font-family="Courier,monospace" font-size="9.00"> </text>
<text text-anchor="start" x="27" y="-57.8" font-family="Courier,monospace" font-size="9.00"> </text>
<text text-anchor="start" x="51" y="-58.4" font-family="Courier,monospace" font-size="7.00">file</text>
<text text-anchor="start" x="88" y="-57.8" font-family="Courier,monospace" font-size="9.00"> </text>
</a>
</g>
</g>
<!-- /home/paul/Development/tictactoetalk/loader.lgt&#45;&gt;/home/paul/Development/tictactoetalk/game.lgt -->
<g id="edge4" class="edge">
<title>/home/paul/Development/tictactoetalk/loader.lgt&#45;&gt;/home/paul/Development/tictactoetalk/game.lgt</title>
<path fill="none" stroke="black" d="M200.65,-165.88C172.14,-145.84 124.76,-112.53 92.97,-90.18"/>
<polygon fill="black" stroke="black" points="94.64,-87.07 84.45,-84.19 90.61,-92.8 94.64,-87.07"/>
<g id="a_edge4&#45;label"><a xlink:title="loads">
<text text-anchor="middle" x="160.5" y="-122.8" font-family="Courier,monospace" font-size="9.00">loads</text>
</a>
</g>
</g>
<!-- /home/paul/logtalk/library/types/loader.lgt -->
<g id="node3" class="node">
<title>/home/paul/logtalk/library/types/loader.lgt</title>
<g id="a_node3"><a xlink:title="logtalk/library/types/loader.lgt">
<polygon fill="powderblue" stroke="black" stroke-dasharray="5,2" points="216,-84 120,-84 120,-48 216,-48 216,-84"/>
<text text-anchor="start" x="128" y="-68.8" font-family="Courier,monospace" font-size="9.00"> </text>
<text text-anchor="start" x="134" y="-68.2" font-family="Courier,monospace" font-size="11.00">loader.lgt</text>
<text text-anchor="start" x="202" y="-68.8" font-family="Courier,monospace" font-size="9.00"> </text>
<text text-anchor="start" x="128" y="-57.8" font-family="Courier,monospace" font-size="9.00"> </text>
<text text-anchor="start" x="158.5" y="-58.4" font-family="Courier,monospace" font-size="7.00">file</text>
<text text-anchor="start" x="202" y="-57.8" font-family="Courier,monospace" font-size="9.00"> </text>
</a>
</g>
</g>
<!-- /home/paul/Development/tictactoetalk/loader.lgt&#45;&gt;/home/paul/logtalk/library/types/loader.lgt -->
<g id="edge1" class="edge">
<title>/home/paul/Development/tictactoetalk/loader.lgt&#45;&gt;/home/paul/logtalk/library/types/loader.lgt</title>
<path fill="none" stroke="black" d="M216.59,-165.88C207.2,-146.78 191.9,-115.63 180.97,-93.4"/>
<polygon fill="black" stroke="black" points="184,-91.62 176.45,-84.19 177.71,-94.71 184,-91.62"/>
<g id="a_edge1&#45;label"><a xlink:title="loads">
<text text-anchor="middle" x="211.5" y="-122.8" font-family="Courier,monospace" font-size="9.00">loads</text>
</a>
</g>
</g>
<!-- /home/paul/logtalk/library/meta/loader.lgt -->
<g id="node4" class="node">
<title>/home/paul/logtalk/library/meta/loader.lgt</title>
<g id="a_node4"><a xlink:title="logtalk/library/meta/loader.lgt">
<polygon fill="powderblue" stroke="black" stroke-dasharray="5,2" points="330,-84 234,-84 234,-48 330,-48 330,-84"/>
<text text-anchor="start" x="242" y="-68.8" font-family="Courier,monospace" font-size="9.00"> </text>
<text text-anchor="start" x="248" y="-68.2" font-family="Courier,monospace" font-size="11.00">loader.lgt</text>
<text text-anchor="start" x="316" y="-68.8" font-family="Courier,monospace" font-size="9.00"> </text>
<text text-anchor="start" x="242" y="-57.8" font-family="Courier,monospace" font-size="9.00"> </text>
<text text-anchor="start" x="272.5" y="-58.4" font-family="Courier,monospace" font-size="7.00">file</text>
<text text-anchor="start" x="316" y="-57.8" font-family="Courier,monospace" font-size="9.00"> </text>
</a>
</g>
</g>
<!-- /home/paul/Development/tictactoetalk/loader.lgt&#45;&gt;/home/paul/logtalk/library/meta/loader.lgt -->
<g id="edge2" class="edge">
<title>/home/paul/Development/tictactoetalk/loader.lgt&#45;&gt;/home/paul/logtalk/library/meta/loader.lgt</title>
<path fill="none" stroke="black" d="M233.41,-165.88C242.8,-146.78 258.1,-115.63 269.03,-93.4"/>
<polygon fill="black" stroke="black" points="272.29,-94.71 273.55,-84.19 266,-91.62 272.29,-94.71"/>
<g id="a_edge2&#45;label"><a xlink:title="loads">
<text text-anchor="middle" x="268.5" y="-122.8" font-family="Courier,monospace" font-size="9.00">loads</text>
</a>
</g>
</g>
<!-- /home/paul/logtalk/library/random/loader.lgt -->
<g id="node5" class="node">
<title>/home/paul/logtalk/library/random/loader.lgt</title>
<g id="a_node5"><a xlink:title="logtalk/library/random/loader.lgt">
<polygon fill="powderblue" stroke="black" stroke-dasharray="5,2" points="444,-84 348,-84 348,-48 444,-48 444,-84"/>
<text text-anchor="start" x="356" y="-68.8" font-family="Courier,monospace" font-size="9.00"> </text>
<text text-anchor="start" x="362" y="-68.2" font-family="Courier,monospace" font-size="11.00">loader.lgt</text>
<text text-anchor="start" x="430" y="-68.8" font-family="Courier,monospace" font-size="9.00"> </text>
<text text-anchor="start" x="356" y="-57.8" font-family="Courier,monospace" font-size="9.00"> </text>
<text text-anchor="start" x="386.5" y="-58.4" font-family="Courier,monospace" font-size="7.00">file</text>
<text text-anchor="start" x="430" y="-57.8" font-family="Courier,monospace" font-size="9.00"> </text>
</a>
</g>
</g>
<!-- /home/paul/Development/tictactoetalk/loader.lgt&#45;&gt;/home/paul/logtalk/library/random/loader.lgt -->
<g id="edge3" class="edge">
<title>/home/paul/Development/tictactoetalk/loader.lgt&#45;&gt;/home/paul/logtalk/library/random/loader.lgt</title>
<path fill="none" stroke="black" d="M250.23,-165.88C279.91,-145.75 329.3,-112.25 362.25,-89.89"/>
<polygon fill="black" stroke="black" points="364.35,-92.7 370.66,-84.19 360.42,-86.9 364.35,-92.7"/>
<g id="a_edge3&#45;label"><a xlink:title="loads">
<text text-anchor="middle" x="328.5" y="-122.8" font-family="Courier,monospace" font-size="9.00">loads</text>
</a>
</g>
</g>
</g>
</svg>
