<?xml version="1.0" encoding="UTF-8" standalone="no"?>
<!DOCTYPE svg PUBLIC "-//W3C//DTD SVG 1.1//EN"
 "http://www.w3.org/Graphics/SVG/1.1/DTD/svg11.dtd">
<!-- Generated by graphviz version 2.43.0 (0)
 -->
<!-- Title: tictactoetalk Pages: 1 -->
<svg width="728pt" height="672pt"
 viewBox="72.00 72.00 656.00 600.00" xmlns="http://www.w3.org/2000/svg" xmlns:xlink="http://www.w3.org/1999/xlink">
<g id="graph0" class="graph" transform="scale(1 1) rotate(0) translate(76 596)">
<title>tictactoetalk</title>
<polygon fill="white" stroke="transparent" points="-4,4 -4,-524 580,-524 580,4 -4,4"/>
<text text-anchor="start" x="8" y="-18" font-family="Courier,monospace" font-size="10.00" fill="dimgray">Cross&#45;referencing diagram for directory tictactoetalk/</text>
<text text-anchor="start" x="8" y="-7" font-family="Courier,monospace" font-size="10.00" fill="dimgray">Generated on 2019/11/07, 00:21</text>
<g id="clust1" class="cluster">
<title>cluster_directory_tictactoetalk</title>
<g id="a_clust1"><a xlink:title="tictactoetalk/">
<path fill="whitesmoke" stroke="dimgray" d="M20,-38C20,-38 556,-38 556,-38 562,-38 568,-44 568,-50 568,-50 568,-500 568,-500 568,-506 562,-512 556,-512 556,-512 20,-512 20,-512 14,-512 8,-506 8,-500 8,-500 8,-50 8,-50 8,-44 14,-38 20,-38"/>
<text text-anchor="start" x="20.5" y="-495.5" font-family="Courier,monospace" font-size="10.00" fill="dimgray">tictactoetalk/</text>
</a>
</g>
</g>
<g id="clust3" class="cluster">
<title>cluster_file_/home/paul/Development/tictactoetalk/game.lgt</title>
<g id="a_clust3"><a xlink:title="tictactoetalk/game.lgt">
<path fill="snow" stroke="dimgray" d="M30,-176C30,-176 432,-176 432,-176 438,-176 444,-182 444,-188 444,-188 444,-463 444,-463 444,-469 438,-475 432,-475 432,-475 30,-475 30,-475 24,-475 18,-469 18,-463 18,-463 18,-188 18,-188 18,-182 24,-176 30,-176"/>
<text text-anchor="start" x="30.5" y="-458.5" font-family="Courier,monospace" font-size="10.00" fill="dimgray">game.lgt</text>
</a>
</g>
</g>
<!-- board(Board) -->
<g id="node1" class="node">
<title>board(Board)</title>
<g id="a_node1"><a xlink:title="prototype">
<polygon fill="cornsilk" stroke="black" points="235.5,-266 122.5,-266 122.5,-186 235.5,-186 235.5,-266"/>
<text text-anchor="start" x="131" y="-253.8" font-family="Courier,monospace" font-size="9.00"> </text>
<text text-anchor="start" x="138.5" y="-253.2" font-family="Courier,monospace" font-size="11.00">board(Board)</text>
<text text-anchor="start" x="222" y="-253.8" font-family="Courier,monospace" font-size="9.00"> </text>
<text text-anchor="start" x="131" y="-242.8" font-family="Courier,monospace" font-size="9.00"> </text>
<text text-anchor="start" x="159" y="-243.4" font-family="Courier,monospace" font-size="7.00">prototype</text>
<text text-anchor="start" x="222" y="-242.8" font-family="Courier,monospace" font-size="9.00"> </text>
<text text-anchor="start" x="131" y="-232.8" font-family="Courier,monospace" font-size="9.00"> </text>
<text text-anchor="start" x="131" y="-222.8" font-family="Courier,monospace" font-size="9.00"> </text>
<text text-anchor="start" x="163.5" y="-222.8" font-family="Courier,monospace" font-size="9.00">init/0</text>
<text text-anchor="start" x="222" y="-222.8" font-family="Courier,monospace" font-size="9.00"> </text>
<text text-anchor="start" x="131" y="-212.8" font-family="Courier,monospace" font-size="9.00"> </text>
<text text-anchor="start" x="137" y="-212.8" font-family="Courier,monospace" font-size="9.00">available_move/1</text>
<text text-anchor="start" x="222" y="-212.8" font-family="Courier,monospace" font-size="9.00"> </text>
<text text-anchor="start" x="131" y="-202.8" font-family="Courier,monospace" font-size="9.00"> </text>
<text text-anchor="start" x="158" y="-202.8" font-family="Courier,monospace" font-size="9.00">update/3</text>
<text text-anchor="start" x="222" y="-202.8" font-family="Courier,monospace" font-size="9.00"> </text>
<text text-anchor="start" x="131" y="-192.8" font-family="Courier,monospace" font-size="9.00"> </text>
<text text-anchor="start" x="145" y="-192.8" font-family="Courier,monospace" font-size="9.00">print_board/0</text>
<text text-anchor="start" x="222" y="-192.8" font-family="Courier,monospace" font-size="9.00"> </text>
</a>
</g>
</g>
<!-- list -->
<g id="node6" class="node">
<title>list</title>
<g id="a_node6"><a xlink:title="prototype">
<polygon fill="beige" stroke="black" stroke-dasharray="5,2" points="373.5,-84 304.5,-84 304.5,-48 373.5,-48 373.5,-84"/>
<text text-anchor="start" x="313" y="-68.8" font-family="Courier,monospace" font-size="9.00"> </text>
<text text-anchor="start" x="325.5" y="-68.2" font-family="Courier,monospace" font-size="11.00">list</text>
<text text-anchor="start" x="360" y="-68.8" font-family="Courier,monospace" font-size="9.00"> </text>
<text text-anchor="start" x="313" y="-57.8" font-family="Courier,monospace" font-size="9.00"> </text>
<text text-anchor="start" x="319" y="-58.4" font-family="Courier,monospace" font-size="7.00">prototype</text>
<text text-anchor="start" x="360" y="-57.8" font-family="Courier,monospace" font-size="9.00"> </text>
</a>
</g>
</g>
<!-- board(Board)&#45;&gt;list -->
<g id="edge1" class="edge">
<title>board(Board)&#45;&gt;list</title>
<path fill="none" stroke="black" d="M218.55,-185.94C248.41,-156.46 288.46,-116.91 314.01,-91.68"/>
<polygon fill="black" stroke="black" points="316.79,-93.85 321.44,-84.34 311.87,-88.87 316.79,-93.85"/>
<g id="a_edge1&#45;label"><a xlink:title="calls">
<text text-anchor="start" x="282" y="-142.8" font-family="Courier,monospace" font-size="9.00">flatten/2</text>
<text text-anchor="start" x="284.5" y="-132.8" font-family="Courier,monospace" font-size="9.00">member/2</text>
<text text-anchor="start" x="284.5" y="-122.8" font-family="Courier,monospace" font-size="9.00">select/4</text>
</a>
</g>
</g>
<!-- meta -->
<g id="node7" class="node">
<title>meta</title>
<g id="a_node7"><a xlink:title="prototype">
<polygon fill="beige" stroke="black" stroke-dasharray="5,2" points="213.5,-84 144.5,-84 144.5,-48 213.5,-48 213.5,-84"/>
<text text-anchor="start" x="153" y="-68.8" font-family="Courier,monospace" font-size="9.00"> </text>
<text text-anchor="start" x="165.5" y="-68.2" font-family="Courier,monospace" font-size="11.00">meta</text>
<text text-anchor="start" x="200" y="-68.8" font-family="Courier,monospace" font-size="9.00"> </text>
<text text-anchor="start" x="153" y="-57.8" font-family="Courier,monospace" font-size="9.00"> </text>
<text text-anchor="start" x="159" y="-58.4" font-family="Courier,monospace" font-size="7.00">prototype</text>
<text text-anchor="start" x="200" y="-57.8" font-family="Courier,monospace" font-size="9.00"> </text>
</a>
</g>
</g>
<!-- board(Board)&#45;&gt;meta -->
<g id="edge2" class="edge">
<title>board(Board)&#45;&gt;meta</title>
<path fill="none" stroke="black" d="M179,-185.94C179,-157.48 179,-119.62 179,-94.34"/>
<polygon fill="black" stroke="black" points="182.5,-94.34 179,-84.34 175.5,-94.34 182.5,-94.34"/>
<g id="a_edge2&#45;label"><a xlink:title="calls">
<text text-anchor="start" x="179" y="-132.8" font-family="Courier,monospace" font-size="9.00">map/2</text>
</a>
</g>
</g>
<!-- human(Char) -->
<g id="node2" class="node">
<title>human(Char)</title>
<g id="a_node2"><a xlink:title="prototype">
<polygon fill="cornsilk" stroke="black" points="356.5,-244 253.5,-244 253.5,-208 356.5,-208 356.5,-244"/>
<text text-anchor="start" x="262" y="-228.8" font-family="Courier,monospace" font-size="9.00"> </text>
<text text-anchor="start" x="268" y="-228.2" font-family="Courier,monospace" font-size="11.00">human(Char)</text>
<text text-anchor="start" x="343" y="-228.8" font-family="Courier,monospace" font-size="9.00"> </text>
<text text-anchor="start" x="262" y="-217.8" font-family="Courier,monospace" font-size="9.00"> </text>
<text text-anchor="start" x="285" y="-218.4" font-family="Courier,monospace" font-size="7.00">prototype</text>
<text text-anchor="start" x="343" y="-217.8" font-family="Courier,monospace" font-size="9.00"> </text>
</a>
</g>
</g>
<!-- computer(Difficulty) -->
<g id="node3" class="node">
<title>computer(Difficulty)</title>
<g id="a_node3"><a xlink:title="prototype">
<polygon fill="cornsilk" stroke="black" points="434,-418 270,-418 270,-368 434,-368 434,-418"/>
<text text-anchor="start" x="278" y="-405.8" font-family="Courier,monospace" font-size="9.00"> </text>
<text text-anchor="start" x="284" y="-405.2" font-family="Courier,monospace" font-size="11.00">computer(Difficulty)</text>
<text text-anchor="start" x="420" y="-405.8" font-family="Courier,monospace" font-size="9.00"> </text>
<text text-anchor="start" x="278" y="-394.8" font-family="Courier,monospace" font-size="9.00"> </text>
<text text-anchor="start" x="331.5" y="-395.4" font-family="Courier,monospace" font-size="7.00">prototype</text>
<text text-anchor="start" x="420" y="-394.8" font-family="Courier,monospace" font-size="9.00"> </text>
<text text-anchor="start" x="278" y="-384.8" font-family="Courier,monospace" font-size="9.00"> </text>
<text text-anchor="start" x="278" y="-374.8" font-family="Courier,monospace" font-size="9.00"> </text>
<text text-anchor="start" x="317.5" y="-374.8" font-family="Courier,monospace" font-size="9.00">choose_move/3</text>
<text text-anchor="start" x="420" y="-374.8" font-family="Courier,monospace" font-size="9.00"> </text>
</a>
</g>
</g>
<!-- computer(Difficulty)&#45;&gt;human(Char) -->
<g id="edge5" class="edge">
<title>computer(Difficulty)&#45;&gt;human(Char)</title>
<path fill="none" stroke="black" d="M323.33,-367.74C308.52,-353.27 291.92,-333.56 284,-312 276.99,-292.92 283.03,-270.57 290.41,-253.58"/>
<polygon fill="black" stroke="black" points="293.7,-254.8 294.82,-244.26 287.38,-251.81 293.7,-254.8"/>
<g id="a_edge5&#45;label"><a xlink:title="calls">
<text text-anchor="start" x="284" y="-304.8" font-family="Courier,monospace" font-size="9.00">has_won/1</text>
</a>
</g>
</g>
<!-- computer(Difficulty)&#45;&gt;list -->
<g id="edge4" class="edge">
<title>computer(Difficulty)&#45;&gt;list</title>
<path fill="none" stroke="black" d="M356.47,-367.94C363.24,-327.97 374.47,-245.38 366,-176 362.51,-147.43 354.07,-115.57 347.55,-93.71"/>
<polygon fill="black" stroke="black" points="350.89,-92.67 344.62,-84.13 344.19,-94.71 350.89,-92.67"/>
<g id="a_edge4&#45;label"><a xlink:title="calls">
<text text-anchor="start" x="369" y="-223.8" font-family="Courier,monospace" font-size="9.00">member/2</text>
</a>
</g>
</g>
<!-- fast_random -->
<g id="node8" class="node">
<title>fast_random</title>
<g id="a_node8"><a xlink:title="prototype">
<polygon fill="beige" stroke="black" stroke-dasharray="5,2" points="557.5,-244 454.5,-244 454.5,-208 557.5,-208 557.5,-244"/>
<text text-anchor="start" x="463" y="-228.8" font-family="Courier,monospace" font-size="9.00"> </text>
<text text-anchor="start" x="469" y="-228.2" font-family="Courier,monospace" font-size="11.00">fast_random</text>
<text text-anchor="start" x="544" y="-228.8" font-family="Courier,monospace" font-size="9.00"> </text>
<text text-anchor="start" x="463" y="-217.8" font-family="Courier,monospace" font-size="9.00"> </text>
<text text-anchor="start" x="486" y="-218.4" font-family="Courier,monospace" font-size="7.00">prototype</text>
<text text-anchor="start" x="544" y="-217.8" font-family="Courier,monospace" font-size="9.00"> </text>
</a>
</g>
</g>
<!-- computer(Difficulty)&#45;&gt;fast_random -->
<g id="edge3" class="edge">
<title>computer(Difficulty)&#45;&gt;fast_random</title>
<path fill="none" stroke="black" d="M374.72,-367.65C403.72,-336.58 453.63,-283.11 482.84,-251.82"/>
<polygon fill="black" stroke="black" points="485.53,-254.06 489.79,-244.37 480.41,-249.29 485.53,-254.06"/>
<g id="a_edge3&#45;label"><a xlink:title="calls">
<text text-anchor="start" x="433" y="-304.8" font-family="Courier,monospace" font-size="9.00">permutation/2</text>
</a>
</g>
</g>
<!-- game(Mode) -->
<g id="node4" class="node">
<title>game(Mode)</title>
<g id="a_node4"><a xlink:title="prototype">
<polygon fill="cornsilk" stroke="black" points="252,-418 156,-418 156,-368 252,-368 252,-418"/>
<text text-anchor="start" x="164" y="-405.8" font-family="Courier,monospace" font-size="9.00"> </text>
<text text-anchor="start" x="170" y="-405.2" font-family="Courier,monospace" font-size="11.00">game(Mode)</text>
<text text-anchor="start" x="238" y="-405.8" font-family="Courier,monospace" font-size="9.00"> </text>
<text text-anchor="start" x="164" y="-394.8" font-family="Courier,monospace" font-size="9.00"> </text>
<text text-anchor="start" x="183.5" y="-395.4" font-family="Courier,monospace" font-size="7.00">prototype</text>
<text text-anchor="start" x="238" y="-394.8" font-family="Courier,monospace" font-size="9.00"> </text>
<text text-anchor="start" x="164" y="-384.8" font-family="Courier,monospace" font-size="9.00"> </text>
<text text-anchor="start" x="164" y="-374.8" font-family="Courier,monospace" font-size="9.00"> </text>
<text text-anchor="start" x="188" y="-374.8" font-family="Courier,monospace" font-size="9.00">play/0</text>
<text text-anchor="start" x="238" y="-374.8" font-family="Courier,monospace" font-size="9.00"> </text>
</a>
</g>
</g>
<!-- game(Mode)&#45;&gt;board(Board) -->
<g id="edge6" class="edge">
<title>game(Mode)&#45;&gt;board(Board)</title>
<path fill="none" stroke="black" d="M200.31,-367.65C196.67,-343.65 191.01,-306.29 186.44,-276.11"/>
<polygon fill="black" stroke="black" points="189.89,-275.54 184.94,-266.17 182.97,-276.59 189.89,-275.54"/>
<g id="a_edge6&#45;label"><a xlink:title="calls">
<text text-anchor="start" x="191" y="-304.8" font-family="Courier,monospace" font-size="9.00">init/0</text>
</a>
</g>
</g>
<!-- player(Char) -->
<g id="node5" class="node">
<title>player(Char)</title>
<g id="a_node5"><a xlink:title="category">
<polygon fill="lightcyan" stroke="black" points="138,-438 28,-438 28,-434 24,-434 24,-430 28,-430 28,-356 24,-356 24,-352 28,-352 28,-348 138,-348 138,-438"/>
<polyline fill="none" stroke="black" points="28,-434 32,-434 32,-430 28,-430 "/>
<polyline fill="none" stroke="black" points="28,-356 32,-356 32,-352 28,-352 "/>
<text text-anchor="start" x="36" y="-425.8" font-family="Courier,monospace" font-size="9.00"> </text>
<text text-anchor="start" x="42" y="-425.2" font-family="Courier,monospace" font-size="11.00">player(Char)</text>
<text text-anchor="start" x="124" y="-425.8" font-family="Courier,monospace" font-size="9.00"> </text>
<text text-anchor="start" x="36" y="-414.8" font-family="Courier,monospace" font-size="9.00"> </text>
<text text-anchor="start" x="64.5" y="-415.4" font-family="Courier,monospace" font-size="7.00">category</text>
<text text-anchor="start" x="124" y="-414.8" font-family="Courier,monospace" font-size="9.00"> </text>
<text text-anchor="start" x="36" y="-404.8" font-family="Courier,monospace" font-size="9.00"> </text>
<text text-anchor="start" x="36" y="-394.8" font-family="Courier,monospace" font-size="9.00"> </text>
<text text-anchor="start" x="67" y="-394.8" font-family="Courier,monospace" font-size="9.00">char/1</text>
<text text-anchor="start" x="124" y="-394.8" font-family="Courier,monospace" font-size="9.00"> </text>
<text text-anchor="start" x="36" y="-384.8" font-family="Courier,monospace" font-size="9.00"> </text>
<text text-anchor="start" x="48.5" y="-384.8" font-family="Courier,monospace" font-size="9.00">choose_move/2</text>
<text text-anchor="start" x="124" y="-384.8" font-family="Courier,monospace" font-size="9.00"> </text>
<text text-anchor="start" x="36" y="-374.8" font-family="Courier,monospace" font-size="9.00"> </text>
<text text-anchor="start" x="59" y="-374.8" font-family="Courier,monospace" font-size="9.00">has_won/1</text>
<text text-anchor="start" x="124" y="-374.8" font-family="Courier,monospace" font-size="9.00"> </text>
<text text-anchor="start" x="36" y="-364.8" font-family="Courier,monospace" font-size="9.00"> </text>
<text text-anchor="start" x="67" y="-364.8" font-family="Courier,monospace" font-size="9.00">move/2</text>
<text text-anchor="start" x="124" y="-364.8" font-family="Courier,monospace" font-size="9.00"> </text>
<text text-anchor="start" x="36" y="-354.8" font-family="Courier,monospace" font-size="9.00"> </text>
<text text-anchor="start" x="59" y="-354.8" font-family="Courier,monospace" font-size="9.00">win_msg/0</text>
<text text-anchor="start" x="124" y="-354.8" font-family="Courier,monospace" font-size="9.00"> </text>
</a>
</g>
</g>
</g>
</svg>
