<?xml version="1.0" encoding="UTF-8" standalone="no"?>
<!DOCTYPE svg PUBLIC "-//W3C//DTD SVG 1.1//EN"
 "http://www.w3.org/Graphics/SVG/1.1/DTD/svg11.dtd">
<!-- Generated by graphviz version 2.40.1 (20161225.0304)
 -->
<!-- Title: tictactoetalk Pages: 1 -->
<svg width="521pt" height="473pt"
 viewBox="72.00 72.00 449.00 401.00" xmlns="http://www.w3.org/2000/svg" xmlns:xlink="http://www.w3.org/1999/xlink">
<g id="graph0" class="graph" transform="scale(1 1) rotate(0) translate(76 397)">
<title>tictactoetalk</title>
<polygon fill="#ffffff" stroke="transparent" points="-4,4 -4,-325 373,-325 373,4 -4,4"/>
<text text-anchor="start" x="8" y="-18" font-family="Courier,monospace" font-size="10.00" fill="#696969">File dependency diagram for directory tictactoetalk/</text>
<text text-anchor="start" x="8" y="-7" font-family="Courier,monospace" font-size="10.00" fill="#696969">Generated on 2019/11/06, 11:48</text>
<g id="clust1" class="cluster">
<title>cluster_directory_tictactoetalk</title>
<g id="a_clust1"><a xlink:title="tictactoetalk/">
<path fill="#f5f5f5" stroke="#696969" d="M20,-38C20,-38 349,-38 349,-38 355,-38 361,-44 361,-50 361,-50 361,-301 361,-301 361,-307 355,-313 349,-313 349,-313 20,-313 20,-313 14,-313 8,-307 8,-301 8,-301 8,-50 8,-50 8,-44 14,-38 20,-38"/>
<text text-anchor="start" x="20.5" y="-296.5" font-family="Courier,monospace" font-size="10.00" fill="#696969">tictactoetalk/</text>
</a>
</g>
</g>
<!-- /home/paul/Development/tictactoetalk/loader.lgt -->
<g id="node1" class="node">
<title>/home/paul/Development/tictactoetalk/loader.lgt</title>
<g id="a_node1"><a xlink:title="tictactoetalk/loader.lgt">
<polygon fill="#afeeee" stroke="#000000" points="334,-276 238,-276 238,-240 334,-240 334,-276"/>
<text text-anchor="start" x="246" y="-260.8" font-family="Courier,monospace" font-size="9.00" fill="#000000"> </text>
<text text-anchor="start" x="252" y="-260.2" font-family="Courier,monospace" font-size="11.00" fill="#000000">loader.lgt</text>
<text text-anchor="start" x="320" y="-260.8" font-family="Courier,monospace" font-size="9.00" fill="#000000"> </text>
<text text-anchor="start" x="246" y="-249.8" font-family="Courier,monospace" font-size="9.00" fill="#000000"> </text>
<text text-anchor="start" x="276.5" y="-250.4" font-family="Courier,monospace" font-size="7.00" fill="#000000">file</text>
<text text-anchor="start" x="320" y="-249.8" font-family="Courier,monospace" font-size="9.00" fill="#000000"> </text>
</a>
</g>
</g>
<!-- /home/paul/Development/tictactoetalk/game.lgt -->
<g id="node2" class="node">
<title>/home/paul/Development/tictactoetalk/game.lgt</title>
<g id="a_node2"><a xlink:title="tictactoetalk/game.lgt">
<polygon fill="#afeeee" stroke="#000000" points="202.5,-276 119.5,-276 119.5,-240 202.5,-240 202.5,-276"/>
<text text-anchor="start" x="128" y="-260.8" font-family="Courier,monospace" font-size="9.00" fill="#000000"> </text>
<text text-anchor="start" x="134" y="-260.2" font-family="Courier,monospace" font-size="11.00" fill="#000000">game.lgt</text>
<text text-anchor="start" x="189" y="-260.8" font-family="Courier,monospace" font-size="9.00" fill="#000000"> </text>
<text text-anchor="start" x="128" y="-249.8" font-family="Courier,monospace" font-size="9.00" fill="#000000"> </text>
<text text-anchor="start" x="152" y="-250.4" font-family="Courier,monospace" font-size="7.00" fill="#000000">file</text>
<text text-anchor="start" x="189" y="-249.8" font-family="Courier,monospace" font-size="9.00" fill="#000000"> </text>
</a>
</g>
</g>
<!-- /home/paul/logtalk/library/types/list.lgt -->
<g id="node3" class="node">
<title>/home/paul/logtalk/library/types/list.lgt</title>
<g id="a_node3"><a xlink:title="logtalk/library/types/list.lgt">
<polygon fill="#b0e0e6" stroke="#000000" stroke-dasharray="5,2" points="101.5,-84 18.5,-84 18.5,-48 101.5,-48 101.5,-84"/>
<text text-anchor="start" x="27" y="-68.8" font-family="Courier,monospace" font-size="9.00" fill="#000000"> </text>
<text text-anchor="start" x="33" y="-68.2" font-family="Courier,monospace" font-size="11.00" fill="#000000">list.lgt</text>
<text text-anchor="start" x="88" y="-68.8" font-family="Courier,monospace" font-size="9.00" fill="#000000"> </text>
<text text-anchor="start" x="27" y="-57.8" font-family="Courier,monospace" font-size="9.00" fill="#000000"> </text>
<text text-anchor="start" x="51" y="-58.4" font-family="Courier,monospace" font-size="7.00" fill="#000000">file</text>
<text text-anchor="start" x="88" y="-57.8" font-family="Courier,monospace" font-size="9.00" fill="#000000"> </text>
</a>
</g>
</g>
<!-- /home/paul/Development/tictactoetalk/game.lgt&#45;&gt;/home/paul/logtalk/library/types/list.lgt -->
<g id="edge1" class="edge">
<title>/home/paul/Development/tictactoetalk/game.lgt&#45;&gt;/home/paul/logtalk/library/types/list.lgt</title>
<path fill="none" stroke="#000000" d="M151.4982,-239.9371C133.6771,-206.0594 95.1506,-132.821 74.2241,-93.0398"/>
<polygon fill="#000000" stroke="#000000" points="77.3033,-91.3755 69.5502,-84.1548 71.1082,-94.6344 77.3033,-91.3755"/>
<g id="a_edge1&#45;label"><a xlink:title="depends">
<text text-anchor="middle" x="131.5" y="-159.8" font-family="Courier,monospace" font-size="9.00" fill="#000000">depends</text>
</a>
</g>
</g>
<!-- /home/paul/logtalk/library/meta/meta.lgt -->
<g id="node4" class="node">
<title>/home/paul/logtalk/library/meta/meta.lgt</title>
<g id="a_node4"><a xlink:title="logtalk/library/meta/meta.lgt">
<polygon fill="#b0e0e6" stroke="#000000" stroke-dasharray="5,2" points="202.5,-84 119.5,-84 119.5,-48 202.5,-48 202.5,-84"/>
<text text-anchor="start" x="128" y="-68.8" font-family="Courier,monospace" font-size="9.00" fill="#000000"> </text>
<text text-anchor="start" x="134" y="-68.2" font-family="Courier,monospace" font-size="11.00" fill="#000000">meta.lgt</text>
<text text-anchor="start" x="189" y="-68.8" font-family="Courier,monospace" font-size="9.00" fill="#000000"> </text>
<text text-anchor="start" x="128" y="-57.8" font-family="Courier,monospace" font-size="9.00" fill="#000000"> </text>
<text text-anchor="start" x="152" y="-58.4" font-family="Courier,monospace" font-size="7.00" fill="#000000">file</text>
<text text-anchor="start" x="189" y="-57.8" font-family="Courier,monospace" font-size="9.00" fill="#000000"> </text>
</a>
</g>
</g>
<!-- /home/paul/Development/tictactoetalk/game.lgt&#45;&gt;/home/paul/logtalk/library/meta/meta.lgt -->
<g id="edge2" class="edge">
<title>/home/paul/Development/tictactoetalk/game.lgt&#45;&gt;/home/paul/logtalk/library/meta/meta.lgt</title>
<path fill="none" stroke="#000000" d="M161,-239.9371C161,-206.4168 161,-134.3617 161,-94.3098"/>
<polygon fill="#000000" stroke="#000000" points="164.5001,-94.1547 161,-84.1548 157.5001,-94.1548 164.5001,-94.1547"/>
<g id="a_edge2&#45;label"><a xlink:title="depends">
<text text-anchor="middle" x="179.5" y="-159.8" font-family="Courier,monospace" font-size="9.00" fill="#000000">depends</text>
</a>
</g>
</g>
<!-- /home/paul/logtalk/library/random/fast_random.lgt -->
<g id="node5" class="node">
<title>/home/paul/logtalk/library/random/fast_random.lgt</title>
<g id="a_node5"><a xlink:title="logtalk/library/random/fast_random.lgt">
<polygon fill="#b0e0e6" stroke="#000000" stroke-dasharray="5,2" points="351,-84 221,-84 221,-48 351,-48 351,-84"/>
<text text-anchor="start" x="229" y="-68.8" font-family="Courier,monospace" font-size="9.00" fill="#000000"> </text>
<text text-anchor="start" x="235" y="-68.2" font-family="Courier,monospace" font-size="11.00" fill="#000000">fast_random.lgt</text>
<text text-anchor="start" x="337" y="-68.8" font-family="Courier,monospace" font-size="9.00" fill="#000000"> </text>
<text text-anchor="start" x="229" y="-57.8" font-family="Courier,monospace" font-size="9.00" fill="#000000"> </text>
<text text-anchor="start" x="276.5" y="-58.4" font-family="Courier,monospace" font-size="7.00" fill="#000000">file</text>
<text text-anchor="start" x="337" y="-57.8" font-family="Courier,monospace" font-size="9.00" fill="#000000"> </text>
</a>
</g>
</g>
<!-- /home/paul/Development/tictactoetalk/game.lgt&#45;&gt;/home/paul/logtalk/library/random/fast_random.lgt -->
<g id="edge3" class="edge">
<title>/home/paul/Development/tictactoetalk/game.lgt&#45;&gt;/home/paul/logtalk/library/random/fast_random.lgt</title>
<path fill="none" stroke="#000000" d="M172.7597,-239.9371C194.9085,-205.9165 242.8996,-132.2022 268.7226,-92.538"/>
<polygon fill="#000000" stroke="#000000" points="271.6576,-94.4449 274.1805,-84.1548 265.7913,-90.6256 271.6576,-94.4449"/>
<g id="a_edge3&#45;label"><a xlink:title="depends">
<text text-anchor="middle" x="244.5" y="-159.8" font-family="Courier,monospace" font-size="9.00" fill="#000000">depends</text>
</a>
</g>
</g>
</g>
</svg>
