<?xml version="1.0" encoding="UTF-8" standalone="no"?>
<!DOCTYPE svg PUBLIC "-//W3C//DTD SVG 1.1//EN"
 "http://www.w3.org/Graphics/SVG/1.1/DTD/svg11.dtd">
<!-- Generated by graphviz version 2.40.1 (20161225.0304)
 -->
<!-- Title: tictactoetalk Pages: 1 -->
<svg width="755pt" height="473pt"
 viewBox="72.00 72.00 683.00 401.00" xmlns="http://www.w3.org/2000/svg" xmlns:xlink="http://www.w3.org/1999/xlink">
<g id="graph0" class="graph" transform="scale(1 1) rotate(0) translate(76 397)">
<title>tictactoetalk</title>
<polygon fill="#ffffff" stroke="transparent" points="-4,4 -4,-325 607,-325 607,4 -4,4"/>
<text text-anchor="start" x="8" y="-18" font-family="Courier,monospace" font-size="10.00" fill="#696969">Directory dependency diagram for directory tictactoetalk/</text>
<text text-anchor="start" x="8" y="-7" font-family="Courier,monospace" font-size="10.00" fill="#696969">Generated on 2019/11/06, 11:48</text>
<g id="clust1" class="cluster">
<title>cluster_directory_tictactoetalk</title>
<g id="a_clust1"><a xlink:title="tictactoetalk/">
<path fill="#f5f5f5" stroke="#696969" d="M20,-38C20,-38 583,-38 583,-38 589,-38 595,-44 595,-50 595,-50 595,-301 595,-301 595,-307 589,-313 583,-313 583,-313 20,-313 20,-313 14,-313 8,-307 8,-301 8,-301 8,-50 8,-50 8,-44 14,-38 20,-38"/>
<text text-anchor="start" x="20.5" y="-296.5" font-family="Courier,monospace" font-size="10.00" fill="#696969">tictactoetalk/</text>
</a>
</g>
</g>
<!-- /home/paul/Development/tictactoetalk/ -->
<g id="node1" class="node">
<title>/home/paul/Development/tictactoetalk/</title>
<g id="a_node1"><a xlink:title="tictactoetalk/">
<polygon fill="#ffa07a" stroke="#000000" points="359.5,-276 248.5,-276 248.5,-280 236.5,-280 236.5,-240 359.5,-240 359.5,-276"/>
<polyline fill="none" stroke="#000000" points="236.5,-276 248.5,-276 "/>
<text text-anchor="start" x="245" y="-260.8" font-family="Courier,monospace" font-size="9.00" fill="#000000"> </text>
<text text-anchor="start" x="251" y="-260.2" font-family="Courier,monospace" font-size="11.00" fill="#000000">tictactoetalk/</text>
<text text-anchor="start" x="346" y="-260.8" font-family="Courier,monospace" font-size="9.00" fill="#000000"> </text>
<text text-anchor="start" x="245" y="-249.8" font-family="Courier,monospace" font-size="9.00" fill="#000000"> </text>
<text text-anchor="start" x="278" y="-250.4" font-family="Courier,monospace" font-size="7.00" fill="#000000">directory</text>
<text text-anchor="start" x="346" y="-249.8" font-family="Courier,monospace" font-size="9.00" fill="#000000"> </text>
</a>
</g>
</g>
<!-- /home/paul/logtalk/library/types/ -->
<g id="node2" class="node">
<title>/home/paul/logtalk/library/types/</title>
<g id="a_node2"><a xlink:title="logtalk/library/types/">
<polygon fill="#fa8072" stroke="#000000" stroke-dasharray="5,2" points="194.5,-84 29.5,-84 29.5,-88 17.5,-88 17.5,-48 194.5,-48 194.5,-84"/>
<polyline fill="none" stroke="#000000" stroke-dasharray="5,2" points="17.5,-84 29.5,-84 "/>
<text text-anchor="start" x="26" y="-68.8" font-family="Courier,monospace" font-size="9.00" fill="#000000"> </text>
<text text-anchor="start" x="32" y="-68.2" font-family="Courier,monospace" font-size="11.00" fill="#000000">logtalk/library/types/</text>
<text text-anchor="start" x="181" y="-68.8" font-family="Courier,monospace" font-size="9.00" fill="#000000"> </text>
<text text-anchor="start" x="26" y="-57.8" font-family="Courier,monospace" font-size="9.00" fill="#000000"> </text>
<text text-anchor="start" x="86" y="-58.4" font-family="Courier,monospace" font-size="7.00" fill="#000000">directory</text>
<text text-anchor="start" x="181" y="-57.8" font-family="Courier,monospace" font-size="9.00" fill="#000000"> </text>
</a>
</g>
</g>
<!-- /home/paul/Development/tictactoetalk/&#45;&gt;/home/paul/logtalk/library/types/ -->
<g id="edge1" class="edge">
<title>/home/paul/Development/tictactoetalk/&#45;&gt;/home/paul/logtalk/library/types/</title>
<path fill="none" stroke="#000000" d="M279.9371,-239.9371C245.6306,-205.6306 170.9605,-130.9605 131.5453,-91.5453"/>
<polygon fill="#000000" stroke="#000000" points="133.7007,-88.751 124.1548,-84.1548 128.751,-93.7007 133.7007,-88.751"/>
<g id="a_edge1&#45;label"><a xlink:title="depends">
<text text-anchor="middle" x="224.5" y="-159.8" font-family="Courier,monospace" font-size="9.00" fill="#000000">depends</text>
</a>
</g>
</g>
<!-- /home/paul/logtalk/library/meta/ -->
<g id="node3" class="node">
<title>/home/paul/logtalk/library/meta/</title>
<g id="a_node3"><a xlink:title="logtalk/library/meta/">
<polygon fill="#fa8072" stroke="#000000" stroke-dasharray="5,2" points="383,-84 225,-84 225,-88 213,-88 213,-48 383,-48 383,-84"/>
<polyline fill="none" stroke="#000000" stroke-dasharray="5,2" points="213,-84 225,-84 "/>
<text text-anchor="start" x="221" y="-68.8" font-family="Courier,monospace" font-size="9.00" fill="#000000"> </text>
<text text-anchor="start" x="227" y="-68.2" font-family="Courier,monospace" font-size="11.00" fill="#000000">logtalk/library/meta/</text>
<text text-anchor="start" x="369" y="-68.8" font-family="Courier,monospace" font-size="9.00" fill="#000000"> </text>
<text text-anchor="start" x="221" y="-57.8" font-family="Courier,monospace" font-size="9.00" fill="#000000"> </text>
<text text-anchor="start" x="277.5" y="-58.4" font-family="Courier,monospace" font-size="7.00" fill="#000000">directory</text>
<text text-anchor="start" x="369" y="-57.8" font-family="Courier,monospace" font-size="9.00" fill="#000000"> </text>
</a>
</g>
</g>
<!-- /home/paul/Development/tictactoetalk/&#45;&gt;/home/paul/logtalk/library/meta/ -->
<g id="edge2" class="edge">
<title>/home/paul/Development/tictactoetalk/&#45;&gt;/home/paul/logtalk/library/meta/</title>
<path fill="none" stroke="#000000" d="M298,-239.9371C298,-206.4168 298,-134.3617 298,-94.3098"/>
<polygon fill="#000000" stroke="#000000" points="301.5001,-94.1547 298,-84.1548 294.5001,-94.1548 301.5001,-94.1547"/>
<g id="a_edge2&#45;label"><a xlink:title="depends">
<text text-anchor="middle" x="316.5" y="-159.8" font-family="Courier,monospace" font-size="9.00" fill="#000000">depends</text>
</a>
</g>
</g>
<!-- /home/paul/logtalk/library/random/ -->
<g id="node4" class="node">
<title>/home/paul/logtalk/library/random/</title>
<g id="a_node4"><a xlink:title="logtalk/library/random/">
<polygon fill="#fa8072" stroke="#000000" stroke-dasharray="5,2" points="585,-84 413,-84 413,-88 401,-88 401,-48 585,-48 585,-84"/>
<polyline fill="none" stroke="#000000" stroke-dasharray="5,2" points="401,-84 413,-84 "/>
<text text-anchor="start" x="409" y="-68.8" font-family="Courier,monospace" font-size="9.00" fill="#000000"> </text>
<text text-anchor="start" x="415" y="-68.2" font-family="Courier,monospace" font-size="11.00" fill="#000000">logtalk/library/random/</text>
<text text-anchor="start" x="571" y="-68.8" font-family="Courier,monospace" font-size="9.00" fill="#000000"> </text>
<text text-anchor="start" x="409" y="-57.8" font-family="Courier,monospace" font-size="9.00" fill="#000000"> </text>
<text text-anchor="start" x="472.5" y="-58.4" font-family="Courier,monospace" font-size="7.00" fill="#000000">directory</text>
<text text-anchor="start" x="571" y="-57.8" font-family="Courier,monospace" font-size="9.00" fill="#000000"> </text>
</a>
</g>
</g>
<!-- /home/paul/Development/tictactoetalk/&#45;&gt;/home/paul/logtalk/library/random/ -->
<g id="edge3" class="edge">
<title>/home/paul/Development/tictactoetalk/&#45;&gt;/home/paul/logtalk/library/random/</title>
<path fill="none" stroke="#000000" d="M316.3451,-239.9371C351.1877,-205.6306 427.0245,-130.9605 467.0555,-91.5453"/>
<polygon fill="#000000" stroke="#000000" points="469.8915,-93.6648 474.5616,-84.1548 464.9802,-88.6768 469.8915,-93.6648"/>
<g id="a_edge3&#45;label"><a xlink:title="depends">
<text text-anchor="middle" x="418.5" y="-159.8" font-family="Courier,monospace" font-size="9.00" fill="#000000">depends</text>
</a>
</g>
</g>
</g>
</svg>
