<?xml version="1.0" encoding="UTF-8" standalone="no"?>
<!DOCTYPE svg PUBLIC "-//W3C//DTD SVG 1.1//EN"
 "http://www.w3.org/Graphics/SVG/1.1/DTD/svg11.dtd">
<!-- Generated by graphviz version 2.40.1 (20161225.0304)
 -->
<!-- Title: tictactoetalk Pages: 1 -->
<svg width="739pt" height="766pt"
 viewBox="72.00 72.00 667.00 694.00" xmlns="http://www.w3.org/2000/svg" xmlns:xlink="http://www.w3.org/1999/xlink">
<g id="graph0" class="graph" transform="scale(1 1) rotate(0) translate(76 690)">
<title>tictactoetalk</title>
<polygon fill="#ffffff" stroke="transparent" points="-4,4 -4,-618 591,-618 591,4 -4,4"/>
<text text-anchor="start" x="8" y="-18" font-family="Courier,monospace" font-size="10.00" fill="#696969">Inheritance diagram for directory tictactoetalk/</text>
<text text-anchor="start" x="8" y="-7" font-family="Courier,monospace" font-size="10.00" fill="#696969">Generated on 2019/11/06, 11:48</text>
<g id="clust1" class="cluster">
<title>cluster_directory_tictactoetalk</title>
<g id="a_clust1"><a xlink:title="tictactoetalk/">
<path fill="#f5f5f5" stroke="#696969" d="M20,-38C20,-38 567,-38 567,-38 573,-38 579,-44 579,-50 579,-50 579,-594 579,-594 579,-600 573,-606 567,-606 567,-606 20,-606 20,-606 14,-606 8,-600 8,-594 8,-594 8,-50 8,-50 8,-44 14,-38 20,-38"/>
<text text-anchor="start" x="20.5" y="-48.5" font-family="Courier,monospace" font-size="10.00" fill="#696969">tictactoetalk/</text>
</a>
</g>
</g>
<g id="clust3" class="cluster">
<title>cluster_file_/home/paul/Development/tictactoetalk/game.lgt</title>
<g id="a_clust3"><a xlink:title="tictactoetalk/game.lgt">
<path fill="#fffafa" stroke="#696969" d="M30,-75C30,-75 557,-75 557,-75 563,-75 569,-81 569,-87 569,-87 569,-584 569,-584 569,-590 563,-596 557,-596 557,-596 30,-596 30,-596 24,-596 18,-590 18,-584 18,-584 18,-87 18,-87 18,-81 24,-75 30,-75"/>
<text text-anchor="start" x="30.5" y="-85.5" font-family="Courier,monospace" font-size="10.00" fill="#696969">game.lgt</text>
</a>
</g>
</g>
<!-- board(Board) -->
<g id="node1" class="node">
<title>board(Board)</title>
<g id="a_node1"><a xlink:title="prototype">
<polygon fill="#fff8dc" stroke="#000000" points="558.5,-192 445.5,-192 445.5,-112 558.5,-112 558.5,-192"/>
<text text-anchor="start" x="454" y="-179.8" font-family="Courier,monospace" font-size="9.00" fill="#000000"> </text>
<text text-anchor="start" x="461.5" y="-179.2" font-family="Courier,monospace" font-size="11.00" fill="#000000">board(Board)</text>
<text text-anchor="start" x="545" y="-179.8" font-family="Courier,monospace" font-size="9.00" fill="#000000"> </text>
<text text-anchor="start" x="454" y="-168.8" font-family="Courier,monospace" font-size="9.00" fill="#000000"> </text>
<text text-anchor="start" x="482" y="-169.4" font-family="Courier,monospace" font-size="7.00" fill="#000000">prototype</text>
<text text-anchor="start" x="545" y="-168.8" font-family="Courier,monospace" font-size="9.00" fill="#000000"> </text>
<text text-anchor="start" x="454" y="-158.8" font-family="Courier,monospace" font-size="9.00" fill="#000000"> </text>
<text text-anchor="start" x="454" y="-148.8" font-family="Courier,monospace" font-size="9.00" fill="#000000"> </text>
<text text-anchor="start" x="486.5" y="-148.8" font-family="Courier,monospace" font-size="9.00" fill="#000000">init/0</text>
<text text-anchor="start" x="545" y="-148.8" font-family="Courier,monospace" font-size="9.00" fill="#000000"> </text>
<text text-anchor="start" x="454" y="-138.8" font-family="Courier,monospace" font-size="9.00" fill="#000000"> </text>
<text text-anchor="start" x="460" y="-138.8" font-family="Courier,monospace" font-size="9.00" fill="#000000">available_move/1</text>
<text text-anchor="start" x="545" y="-138.8" font-family="Courier,monospace" font-size="9.00" fill="#000000"> </text>
<text text-anchor="start" x="454" y="-128.8" font-family="Courier,monospace" font-size="9.00" fill="#000000"> </text>
<text text-anchor="start" x="481" y="-128.8" font-family="Courier,monospace" font-size="9.00" fill="#000000">update/3</text>
<text text-anchor="start" x="545" y="-128.8" font-family="Courier,monospace" font-size="9.00" fill="#000000"> </text>
<text text-anchor="start" x="454" y="-118.8" font-family="Courier,monospace" font-size="9.00" fill="#000000"> </text>
<text text-anchor="start" x="468" y="-118.8" font-family="Courier,monospace" font-size="9.00" fill="#000000">print_board/0</text>
<text text-anchor="start" x="545" y="-118.8" font-family="Courier,monospace" font-size="9.00" fill="#000000"> </text>
</a>
</g>
</g>
<!-- human(Char) -->
<g id="node2" class="node">
<title>human(Char)</title>
<g id="a_node2"><a xlink:title="prototype">
<polygon fill="#fff8dc" stroke="#000000" points="427.5,-170 324.5,-170 324.5,-134 427.5,-134 427.5,-170"/>
<text text-anchor="start" x="333" y="-154.8" font-family="Courier,monospace" font-size="9.00" fill="#000000"> </text>
<text text-anchor="start" x="339" y="-154.2" font-family="Courier,monospace" font-size="11.00" fill="#000000">human(Char)</text>
<text text-anchor="start" x="414" y="-154.8" font-family="Courier,monospace" font-size="9.00" fill="#000000"> </text>
<text text-anchor="start" x="333" y="-143.8" font-family="Courier,monospace" font-size="9.00" fill="#000000"> </text>
<text text-anchor="start" x="356" y="-144.4" font-family="Courier,monospace" font-size="7.00" fill="#000000">prototype</text>
<text text-anchor="start" x="414" y="-143.8" font-family="Courier,monospace" font-size="9.00" fill="#000000"> </text>
</a>
</g>
</g>
<!-- player(Char) -->
<g id="node5" class="node">
<title>player(Char)</title>
<g id="a_node5"><a xlink:title="category">
<polygon fill="#e0ffff" stroke="#000000" points="355,-586 245,-586 245,-582 241,-582 241,-578 245,-578 245,-504 241,-504 241,-500 245,-500 245,-496 355,-496 355,-586"/>
<polyline fill="none" stroke="#000000" points="245,-582 249,-582 249,-578 245,-578 "/>
<polyline fill="none" stroke="#000000" points="245,-504 249,-504 249,-500 245,-500 "/>
<text text-anchor="start" x="253" y="-573.8" font-family="Courier,monospace" font-size="9.00" fill="#000000"> </text>
<text text-anchor="start" x="259" y="-573.2" font-family="Courier,monospace" font-size="11.00" fill="#000000">player(Char)</text>
<text text-anchor="start" x="341" y="-573.8" font-family="Courier,monospace" font-size="9.00" fill="#000000"> </text>
<text text-anchor="start" x="253" y="-562.8" font-family="Courier,monospace" font-size="9.00" fill="#000000"> </text>
<text text-anchor="start" x="281.5" y="-563.4" font-family="Courier,monospace" font-size="7.00" fill="#000000">category</text>
<text text-anchor="start" x="341" y="-562.8" font-family="Courier,monospace" font-size="9.00" fill="#000000"> </text>
<text text-anchor="start" x="253" y="-552.8" font-family="Courier,monospace" font-size="9.00" fill="#000000"> </text>
<text text-anchor="start" x="253" y="-542.8" font-family="Courier,monospace" font-size="9.00" fill="#000000"> </text>
<text text-anchor="start" x="284" y="-542.8" font-family="Courier,monospace" font-size="9.00" fill="#000000">char/1</text>
<text text-anchor="start" x="341" y="-542.8" font-family="Courier,monospace" font-size="9.00" fill="#000000"> </text>
<text text-anchor="start" x="253" y="-532.8" font-family="Courier,monospace" font-size="9.00" fill="#000000"> </text>
<text text-anchor="start" x="265.5" y="-532.8" font-family="Courier,monospace" font-size="9.00" fill="#000000">choose_move/2</text>
<text text-anchor="start" x="341" y="-532.8" font-family="Courier,monospace" font-size="9.00" fill="#000000"> </text>
<text text-anchor="start" x="253" y="-522.8" font-family="Courier,monospace" font-size="9.00" fill="#000000"> </text>
<text text-anchor="start" x="276" y="-522.8" font-family="Courier,monospace" font-size="9.00" fill="#000000">has_won/1</text>
<text text-anchor="start" x="341" y="-522.8" font-family="Courier,monospace" font-size="9.00" fill="#000000"> </text>
<text text-anchor="start" x="253" y="-512.8" font-family="Courier,monospace" font-size="9.00" fill="#000000"> </text>
<text text-anchor="start" x="284" y="-512.8" font-family="Courier,monospace" font-size="9.00" fill="#000000">move/2</text>
<text text-anchor="start" x="341" y="-512.8" font-family="Courier,monospace" font-size="9.00" fill="#000000"> </text>
<text text-anchor="start" x="253" y="-502.8" font-family="Courier,monospace" font-size="9.00" fill="#000000"> </text>
<text text-anchor="start" x="276" y="-502.8" font-family="Courier,monospace" font-size="9.00" fill="#000000">win_msg/0</text>
<text text-anchor="start" x="341" y="-502.8" font-family="Courier,monospace" font-size="9.00" fill="#000000"> </text>
</a>
</g>
</g>
<!-- human(Char)&#45;&gt;player(Char) -->
<g id="edge1" class="edge">
<title>human(Char)&#45;&gt;player(Char)</title>
<path fill="none" stroke="#000000" d="M370.7452,-170.3048C364.8196,-192.5955 356,-231.4856 356,-265.5 356,-265.5 356,-265.5 356,-422.5 356,-444.7954 347.7964,-467.3833 337.669,-486.7738"/>
<polygon fill="#000000" stroke="#000000" points="336.2416,-497.661 329.2333,-493.8029 333.0914,-486.7947 340.0997,-490.6528 336.2416,-497.661"/>
<polyline fill="none" stroke="#000000" points="336.5955,-488.7237 337.5601,-486.9717 "/>
<g id="a_edge1&#45;label"><a xlink:title="imports">
<text text-anchor="middle" x="374.5" y="-341.8" font-family="Courier,monospace" font-size="9.00" fill="#000000">imports</text>
</a>
</g>
</g>
<!-- computer(Difficulty) -->
<g id="node3" class="node">
<title>computer(Difficulty)</title>
<g id="a_node3"><a xlink:title="prototype">
<polygon fill="#fff8dc" stroke="#000000" points="306,-177 142,-177 142,-127 306,-127 306,-177"/>
<text text-anchor="start" x="150" y="-164.8" font-family="Courier,monospace" font-size="9.00" fill="#000000"> </text>
<text text-anchor="start" x="156" y="-164.2" font-family="Courier,monospace" font-size="11.00" fill="#000000">computer(Difficulty)</text>
<text text-anchor="start" x="292" y="-164.8" font-family="Courier,monospace" font-size="9.00" fill="#000000"> </text>
<text text-anchor="start" x="150" y="-153.8" font-family="Courier,monospace" font-size="9.00" fill="#000000"> </text>
<text text-anchor="start" x="203.5" y="-154.4" font-family="Courier,monospace" font-size="7.00" fill="#000000">prototype</text>
<text text-anchor="start" x="292" y="-153.8" font-family="Courier,monospace" font-size="9.00" fill="#000000"> </text>
<text text-anchor="start" x="150" y="-143.8" font-family="Courier,monospace" font-size="9.00" fill="#000000"> </text>
<text text-anchor="start" x="150" y="-133.8" font-family="Courier,monospace" font-size="9.00" fill="#000000"> </text>
<text text-anchor="start" x="189.5" y="-133.8" font-family="Courier,monospace" font-size="9.00" fill="#000000">choose_move/3</text>
<text text-anchor="start" x="292" y="-133.8" font-family="Courier,monospace" font-size="9.00" fill="#000000"> </text>
</a>
</g>
</g>
<!-- computer(Difficulty)&#45;&gt;player(Char) -->
<g id="edge2" class="edge">
<title>computer(Difficulty)&#45;&gt;player(Char)</title>
<path fill="none" stroke="#000000" d="M230.995,-177.0219C236.7625,-199.8728 244,-234.687 244,-265.5 244,-265.5 244,-265.5 244,-422.5 244,-444.7954 252.2036,-467.3833 262.331,-486.7738"/>
<polygon fill="#000000" stroke="#000000" points="270.7667,-493.8029 263.7584,-497.661 259.9003,-490.6528 266.9086,-486.7947 270.7667,-493.8029"/>
<polyline fill="none" stroke="#000000" points="263.4045,-488.7237 262.4399,-486.9717 "/>
<g id="a_edge2&#45;label"><a xlink:title="imports">
<text text-anchor="middle" x="262.5" y="-341.8" font-family="Courier,monospace" font-size="9.00" fill="#000000">imports</text>
</a>
</g>
</g>
<!-- game(Mode) -->
<g id="node4" class="node">
<title>game(Mode)</title>
<g id="a_node4"><a xlink:title="prototype">
<polygon fill="#fff8dc" stroke="#000000" points="124,-177 28,-177 28,-127 124,-127 124,-177"/>
<text text-anchor="start" x="36" y="-164.8" font-family="Courier,monospace" font-size="9.00" fill="#000000"> </text>
<text text-anchor="start" x="42" y="-164.2" font-family="Courier,monospace" font-size="11.00" fill="#000000">game(Mode)</text>
<text text-anchor="start" x="110" y="-164.8" font-family="Courier,monospace" font-size="9.00" fill="#000000"> </text>
<text text-anchor="start" x="36" y="-153.8" font-family="Courier,monospace" font-size="9.00" fill="#000000"> </text>
<text text-anchor="start" x="55.5" y="-154.4" font-family="Courier,monospace" font-size="7.00" fill="#000000">prototype</text>
<text text-anchor="start" x="110" y="-153.8" font-family="Courier,monospace" font-size="9.00" fill="#000000"> </text>
<text text-anchor="start" x="36" y="-143.8" font-family="Courier,monospace" font-size="9.00" fill="#000000"> </text>
<text text-anchor="start" x="36" y="-133.8" font-family="Courier,monospace" font-size="9.00" fill="#000000"> </text>
<text text-anchor="start" x="60" y="-133.8" font-family="Courier,monospace" font-size="9.00" fill="#000000">play/0</text>
<text text-anchor="start" x="110" y="-133.8" font-family="Courier,monospace" font-size="9.00" fill="#000000"> </text>
</a>
</g>
</g>
</g>
</svg>
