<?xml version="1.0" encoding="UTF-8" standalone="no"?>
<!DOCTYPE svg PUBLIC "-//W3C//DTD SVG 1.1//EN"
 "http://www.w3.org/Graphics/SVG/1.1/DTD/svg11.dtd">
<!-- Generated by graphviz version 2.43.0 (0)
 -->
<!-- Title: tictactoetalk Pages: 1 -->
<svg width="739pt" height="544pt"
 viewBox="72.00 72.00 667.00 472.00" xmlns="http://www.w3.org/2000/svg" xmlns:xlink="http://www.w3.org/1999/xlink">
<g id="graph0" class="graph" transform="scale(1 1) rotate(0) translate(76 468)">
<title>tictactoetalk</title>
<polygon fill="white" stroke="transparent" points="-4,4 -4,-396 591,-396 591,4 -4,4"/>
<text text-anchor="start" x="8" y="-18" font-family="Courier,monospace" font-size="10.00" fill="dimgray">Inheritance diagram for directory tictactoetalk/</text>
<text text-anchor="start" x="8" y="-7" font-family="Courier,monospace" font-size="10.00" fill="dimgray">Generated on 2019/11/07, 00:21</text>
<g id="clust1" class="cluster">
<title>cluster_directory_tictactoetalk</title>
<g id="a_clust1"><a xlink:title="tictactoetalk/">
<path fill="whitesmoke" stroke="dimgray" d="M20,-38C20,-38 567,-38 567,-38 573,-38 579,-44 579,-50 579,-50 579,-372 579,-372 579,-378 573,-384 567,-384 567,-384 20,-384 20,-384 14,-384 8,-378 8,-372 8,-372 8,-50 8,-50 8,-44 14,-38 20,-38"/>
<text text-anchor="start" x="20.5" y="-48.5" font-family="Courier,monospace" font-size="10.00" fill="dimgray">tictactoetalk/</text>
</a>
</g>
</g>
<g id="clust3" class="cluster">
<title>cluster_file_/home/paul/Development/tictactoetalk/game.lgt</title>
<g id="a_clust3"><a xlink:title="tictactoetalk/game.lgt">
<path fill="snow" stroke="dimgray" d="M30,-75C30,-75 557,-75 557,-75 563,-75 569,-81 569,-87 569,-87 569,-362 569,-362 569,-368 563,-374 557,-374 557,-374 30,-374 30,-374 24,-374 18,-368 18,-362 18,-362 18,-87 18,-87 18,-81 24,-75 30,-75"/>
<text text-anchor="start" x="30.5" y="-85.5" font-family="Courier,monospace" font-size="10.00" fill="dimgray">game.lgt</text>
</a>
</g>
</g>
<!-- board(Board) -->
<g id="node1" class="node">
<title>board(Board)</title>
<g id="a_node1"><a xlink:title="prototype">
<polygon fill="cornsilk" stroke="black" points="558.5,-192 445.5,-192 445.5,-112 558.5,-112 558.5,-192"/>
<text text-anchor="start" x="454" y="-179.8" font-family="Courier,monospace" font-size="9.00"> </text>
<text text-anchor="start" x="461.5" y="-179.2" font-family="Courier,monospace" font-size="11.00">board(Board)</text>
<text text-anchor="start" x="545" y="-179.8" font-family="Courier,monospace" font-size="9.00"> </text>
<text text-anchor="start" x="454" y="-168.8" font-family="Courier,monospace" font-size="9.00"> </text>
<text text-anchor="start" x="482" y="-169.4" font-family="Courier,monospace" font-size="7.00">prototype</text>
<text text-anchor="start" x="545" y="-168.8" font-family="Courier,monospace" font-size="9.00"> </text>
<text text-anchor="start" x="454" y="-158.8" font-family="Courier,monospace" font-size="9.00"> </text>
<text text-anchor="start" x="454" y="-148.8" font-family="Courier,monospace" font-size="9.00"> </text>
<text text-anchor="start" x="486.5" y="-148.8" font-family="Courier,monospace" font-size="9.00">init/0</text>
<text text-anchor="start" x="545" y="-148.8" font-family="Courier,monospace" font-size="9.00"> </text>
<text text-anchor="start" x="454" y="-138.8" font-family="Courier,monospace" font-size="9.00"> </text>
<text text-anchor="start" x="460" y="-138.8" font-family="Courier,monospace" font-size="9.00">available_move/1</text>
<text text-anchor="start" x="545" y="-138.8" font-family="Courier,monospace" font-size="9.00"> </text>
<text text-anchor="start" x="454" y="-128.8" font-family="Courier,monospace" font-size="9.00"> </text>
<text text-anchor="start" x="481" y="-128.8" font-family="Courier,monospace" font-size="9.00">update/3</text>
<text text-anchor="start" x="545" y="-128.8" font-family="Courier,monospace" font-size="9.00"> </text>
<text text-anchor="start" x="454" y="-118.8" font-family="Courier,monospace" font-size="9.00"> </text>
<text text-anchor="start" x="468" y="-118.8" font-family="Courier,monospace" font-size="9.00">print_board/0</text>
<text text-anchor="start" x="545" y="-118.8" font-family="Courier,monospace" font-size="9.00"> </text>
</a>
</g>
</g>
<!-- human(Char) -->
<g id="node2" class="node">
<title>human(Char)</title>
<g id="a_node2"><a xlink:title="prototype">
<polygon fill="cornsilk" stroke="black" points="427.5,-170 324.5,-170 324.5,-134 427.5,-134 427.5,-170"/>
<text text-anchor="start" x="333" y="-154.8" font-family="Courier,monospace" font-size="9.00"> </text>
<text text-anchor="start" x="339" y="-154.2" font-family="Courier,monospace" font-size="11.00">human(Char)</text>
<text text-anchor="start" x="414" y="-154.8" font-family="Courier,monospace" font-size="9.00"> </text>
<text text-anchor="start" x="333" y="-143.8" font-family="Courier,monospace" font-size="9.00"> </text>
<text text-anchor="start" x="356" y="-144.4" font-family="Courier,monospace" font-size="7.00">prototype</text>
<text text-anchor="start" x="414" y="-143.8" font-family="Courier,monospace" font-size="9.00"> </text>
</a>
</g>
</g>
<!-- player(Char) -->
<g id="node5" class="node">
<title>player(Char)</title>
<g id="a_node5"><a xlink:title="category">
<polygon fill="lightcyan" stroke="black" points="332,-364 222,-364 222,-360 218,-360 218,-356 222,-356 222,-282 218,-282 218,-278 222,-278 222,-274 332,-274 332,-364"/>
<polyline fill="none" stroke="black" points="222,-360 226,-360 226,-356 222,-356 "/>
<polyline fill="none" stroke="black" points="222,-282 226,-282 226,-278 222,-278 "/>
<text text-anchor="start" x="230" y="-351.8" font-family="Courier,monospace" font-size="9.00"> </text>
<text text-anchor="start" x="236" y="-351.2" font-family="Courier,monospace" font-size="11.00">player(Char)</text>
<text text-anchor="start" x="318" y="-351.8" font-family="Courier,monospace" font-size="9.00"> </text>
<text text-anchor="start" x="230" y="-340.8" font-family="Courier,monospace" font-size="9.00"> </text>
<text text-anchor="start" x="258.5" y="-341.4" font-family="Courier,monospace" font-size="7.00">category</text>
<text text-anchor="start" x="318" y="-340.8" font-family="Courier,monospace" font-size="9.00"> </text>
<text text-anchor="start" x="230" y="-330.8" font-family="Courier,monospace" font-size="9.00"> </text>
<text text-anchor="start" x="230" y="-320.8" font-family="Courier,monospace" font-size="9.00"> </text>
<text text-anchor="start" x="261" y="-320.8" font-family="Courier,monospace" font-size="9.00">char/1</text>
<text text-anchor="start" x="318" y="-320.8" font-family="Courier,monospace" font-size="9.00"> </text>
<text text-anchor="start" x="230" y="-310.8" font-family="Courier,monospace" font-size="9.00"> </text>
<text text-anchor="start" x="242.5" y="-310.8" font-family="Courier,monospace" font-size="9.00">choose_move/2</text>
<text text-anchor="start" x="318" y="-310.8" font-family="Courier,monospace" font-size="9.00"> </text>
<text text-anchor="start" x="230" y="-300.8" font-family="Courier,monospace" font-size="9.00"> </text>
<text text-anchor="start" x="253" y="-300.8" font-family="Courier,monospace" font-size="9.00">has_won/1</text>
<text text-anchor="start" x="318" y="-300.8" font-family="Courier,monospace" font-size="9.00"> </text>
<text text-anchor="start" x="230" y="-290.8" font-family="Courier,monospace" font-size="9.00"> </text>
<text text-anchor="start" x="261" y="-290.8" font-family="Courier,monospace" font-size="9.00">move/2</text>
<text text-anchor="start" x="318" y="-290.8" font-family="Courier,monospace" font-size="9.00"> </text>
<text text-anchor="start" x="230" y="-280.8" font-family="Courier,monospace" font-size="9.00"> </text>
<text text-anchor="start" x="253" y="-280.8" font-family="Courier,monospace" font-size="9.00">win_msg/0</text>
<text text-anchor="start" x="318" y="-280.8" font-family="Courier,monospace" font-size="9.00"> </text>
</a>
</g>
</g>
<!-- human(Char)&#45;&gt;player(Char) -->
<g id="edge1" class="edge">
<title>human(Char)&#45;&gt;player(Char)</title>
<path fill="none" stroke="black" d="M365.78,-170.04C352.4,-192.33 328.34,-232.44 308.64,-265.27"/>
<polygon fill="black" stroke="black" points="306.9,-275.94 300.04,-271.82 304.16,-264.97 311.02,-269.08 306.9,-275.94"/>
<polyline fill="none" stroke="black" points="307.59,-267.02 308.62,-265.31 "/>
<g id="a_edge1&#45;label"><a xlink:title="imports">
<text text-anchor="middle" x="347.5" y="-230.8" font-family="Courier,monospace" font-size="9.00">imports</text>
</a>
</g>
</g>
<!-- computer(Difficulty) -->
<g id="node3" class="node">
<title>computer(Difficulty)</title>
<g id="a_node3"><a xlink:title="prototype">
<polygon fill="cornsilk" stroke="black" points="306,-177 142,-177 142,-127 306,-127 306,-177"/>
<text text-anchor="start" x="150" y="-164.8" font-family="Courier,monospace" font-size="9.00"> </text>
<text text-anchor="start" x="156" y="-164.2" font-family="Courier,monospace" font-size="11.00">computer(Difficulty)</text>
<text text-anchor="start" x="292" y="-164.8" font-family="Courier,monospace" font-size="9.00"> </text>
<text text-anchor="start" x="150" y="-153.8" font-family="Courier,monospace" font-size="9.00"> </text>
<text text-anchor="start" x="203.5" y="-154.4" font-family="Courier,monospace" font-size="7.00">prototype</text>
<text text-anchor="start" x="292" y="-153.8" font-family="Courier,monospace" font-size="9.00"> </text>
<text text-anchor="start" x="150" y="-143.8" font-family="Courier,monospace" font-size="9.00"> </text>
<text text-anchor="start" x="150" y="-133.8" font-family="Courier,monospace" font-size="9.00"> </text>
<text text-anchor="start" x="189.5" y="-133.8" font-family="Courier,monospace" font-size="9.00">choose_move/3</text>
<text text-anchor="start" x="292" y="-133.8" font-family="Courier,monospace" font-size="9.00"> </text>
</a>
</g>
</g>
<!-- computer(Difficulty)&#45;&gt;player(Char) -->
<g id="edge2" class="edge">
<title>computer(Difficulty)&#45;&gt;player(Char)</title>
<path fill="none" stroke="black" d="M231.82,-177.35C239.14,-200.14 250.33,-234.98 259.75,-264.28"/>
<polygon fill="black" stroke="black" points="266.67,-272.76 259.05,-275.21 256.61,-267.59 264.22,-265.14 266.67,-272.76"/>
<polyline fill="none" stroke="black" points="260.41,-266.37 259.8,-264.46 "/>
<g id="a_edge2&#45;label"><a xlink:title="imports">
<text text-anchor="middle" x="268.5" y="-230.8" font-family="Courier,monospace" font-size="9.00">imports</text>
</a>
</g>
</g>
<!-- game(Mode) -->
<g id="node4" class="node">
<title>game(Mode)</title>
<g id="a_node4"><a xlink:title="prototype">
<polygon fill="cornsilk" stroke="black" points="124,-177 28,-177 28,-127 124,-127 124,-177"/>
<text text-anchor="start" x="36" y="-164.8" font-family="Courier,monospace" font-size="9.00"> </text>
<text text-anchor="start" x="42" y="-164.2" font-family="Courier,monospace" font-size="11.00">game(Mode)</text>
<text text-anchor="start" x="110" y="-164.8" font-family="Courier,monospace" font-size="9.00"> </text>
<text text-anchor="start" x="36" y="-153.8" font-family="Courier,monospace" font-size="9.00"> </text>
<text text-anchor="start" x="55.5" y="-154.4" font-family="Courier,monospace" font-size="7.00">prototype</text>
<text text-anchor="start" x="110" y="-153.8" font-family="Courier,monospace" font-size="9.00"> </text>
<text text-anchor="start" x="36" y="-143.8" font-family="Courier,monospace" font-size="9.00"> </text>
<text text-anchor="start" x="36" y="-133.8" font-family="Courier,monospace" font-size="9.00"> </text>
<text text-anchor="start" x="60" y="-133.8" font-family="Courier,monospace" font-size="9.00">play/0</text>
<text text-anchor="start" x="110" y="-133.8" font-family="Courier,monospace" font-size="9.00"> </text>
</a>
</g>
</g>
</g>
</svg>
