<?xml version="1.0" encoding="UTF-8" standalone="no"?>
<!DOCTYPE svg PUBLIC "-//W3C//DTD SVG 1.1//EN"
 "http://www.w3.org/Graphics/SVG/1.1/DTD/svg11.dtd">
<!-- Generated by graphviz version 2.40.1 (20161225.0304)
 -->
<!-- Title: tictactoetalk Pages: 1 -->
<svg width="614pt" height="473pt"
 viewBox="72.00 72.00 542.00 401.00" xmlns="http://www.w3.org/2000/svg" xmlns:xlink="http://www.w3.org/1999/xlink">
<g id="graph0" class="graph" transform="scale(1 1) rotate(0) translate(76 397)">
<title>tictactoetalk</title>
<polygon fill="#ffffff" stroke="transparent" points="-4,4 -4,-325 466,-325 466,4 -4,4"/>
<text text-anchor="start" x="8" y="-18" font-family="Courier,monospace" font-size="10.00" fill="#696969">File load diagram for directory tictactoetalk/</text>
<text text-anchor="start" x="8" y="-7" font-family="Courier,monospace" font-size="10.00" fill="#696969">Generated on 2019/11/06, 11:48</text>
<g id="clust1" class="cluster">
<title>cluster_directory_tictactoetalk</title>
<g id="a_clust1"><a xlink:title="tictactoetalk/">
<path fill="#f5f5f5" stroke="#696969" d="M20,-38C20,-38 442,-38 442,-38 448,-38 454,-44 454,-50 454,-50 454,-301 454,-301 454,-307 448,-313 442,-313 442,-313 20,-313 20,-313 14,-313 8,-307 8,-301 8,-301 8,-50 8,-50 8,-44 14,-38 20,-38"/>
<text text-anchor="start" x="20.5" y="-296.5" font-family="Courier,monospace" font-size="10.00" fill="#696969">tictactoetalk/</text>
</a>
</g>
</g>
<!-- /home/paul/Development/tictactoetalk/loader.lgt -->
<g id="node1" class="node">
<title>/home/paul/Development/tictactoetalk/loader.lgt</title>
<g id="a_node1"><a xlink:title="tictactoetalk/loader.lgt">
<polygon fill="#afeeee" stroke="#000000" points="273,-276 177,-276 177,-240 273,-240 273,-276"/>
<text text-anchor="start" x="185" y="-260.8" font-family="Courier,monospace" font-size="9.00" fill="#000000"> </text>
<text text-anchor="start" x="191" y="-260.2" font-family="Courier,monospace" font-size="11.00" fill="#000000">loader.lgt</text>
<text text-anchor="start" x="259" y="-260.8" font-family="Courier,monospace" font-size="9.00" fill="#000000"> </text>
<text text-anchor="start" x="185" y="-249.8" font-family="Courier,monospace" font-size="9.00" fill="#000000"> </text>
<text text-anchor="start" x="215.5" y="-250.4" font-family="Courier,monospace" font-size="7.00" fill="#000000">file</text>
<text text-anchor="start" x="259" y="-249.8" font-family="Courier,monospace" font-size="9.00" fill="#000000"> </text>
</a>
</g>
</g>
<!-- /home/paul/Development/tictactoetalk/game.lgt -->
<g id="node2" class="node">
<title>/home/paul/Development/tictactoetalk/game.lgt</title>
<g id="a_node2"><a xlink:title="tictactoetalk/game.lgt">
<polygon fill="#afeeee" stroke="#000000" points="101.5,-84 18.5,-84 18.5,-48 101.5,-48 101.5,-84"/>
<text text-anchor="start" x="27" y="-68.8" font-family="Courier,monospace" font-size="9.00" fill="#000000"> </text>
<text text-anchor="start" x="33" y="-68.2" font-family="Courier,monospace" font-size="11.00" fill="#000000">game.lgt</text>
<text text-anchor="start" x="88" y="-68.8" font-family="Courier,monospace" font-size="9.00" fill="#000000"> </text>
<text text-anchor="start" x="27" y="-57.8" font-family="Courier,monospace" font-size="9.00" fill="#000000"> </text>
<text text-anchor="start" x="51" y="-58.4" font-family="Courier,monospace" font-size="7.00" fill="#000000">file</text>
<text text-anchor="start" x="88" y="-57.8" font-family="Courier,monospace" font-size="9.00" fill="#000000"> </text>
</a>
</g>
</g>
<!-- /home/paul/Development/tictactoetalk/loader.lgt&#45;&gt;/home/paul/Development/tictactoetalk/game.lgt -->
<g id="edge4" class="edge">
<title>/home/paul/Development/tictactoetalk/loader.lgt&#45;&gt;/home/paul/Development/tictactoetalk/game.lgt</title>
<path fill="none" stroke="#000000" d="M209.4772,-239.9371C180.1179,-205.7735 116.3596,-131.5821 82.378,-92.0399"/>
<polygon fill="#000000" stroke="#000000" points="84.7739,-89.4578 75.6018,-84.1548 79.465,-94.0202 84.7739,-89.4578"/>
<g id="a_edge4&#45;label"><a xlink:title="loads">
<text text-anchor="middle" x="159.5" y="-159.8" font-family="Courier,monospace" font-size="9.00" fill="#000000">loads</text>
</a>
</g>
</g>
<!-- /home/paul/logtalk/library/types/loader.lgt -->
<g id="node3" class="node">
<title>/home/paul/logtalk/library/types/loader.lgt</title>
<g id="a_node3"><a xlink:title="logtalk/library/types/loader.lgt">
<polygon fill="#b0e0e6" stroke="#000000" stroke-dasharray="5,2" points="216,-84 120,-84 120,-48 216,-48 216,-84"/>
<text text-anchor="start" x="128" y="-68.8" font-family="Courier,monospace" font-size="9.00" fill="#000000"> </text>
<text text-anchor="start" x="134" y="-68.2" font-family="Courier,monospace" font-size="11.00" fill="#000000">loader.lgt</text>
<text text-anchor="start" x="202" y="-68.8" font-family="Courier,monospace" font-size="9.00" fill="#000000"> </text>
<text text-anchor="start" x="128" y="-57.8" font-family="Courier,monospace" font-size="9.00" fill="#000000"> </text>
<text text-anchor="start" x="158.5" y="-58.4" font-family="Courier,monospace" font-size="7.00" fill="#000000">file</text>
<text text-anchor="start" x="202" y="-57.8" font-family="Courier,monospace" font-size="9.00" fill="#000000"> </text>
</a>
</g>
</g>
<!-- /home/paul/Development/tictactoetalk/loader.lgt&#45;&gt;/home/paul/logtalk/library/types/loader.lgt -->
<g id="edge1" class="edge">
<title>/home/paul/Development/tictactoetalk/loader.lgt&#45;&gt;/home/paul/logtalk/library/types/loader.lgt</title>
<path fill="none" stroke="#000000" d="M219.6376,-239.9371C209.6438,-206.2738 188.1122,-133.7464 176.2529,-93.7991"/>
<polygon fill="#000000" stroke="#000000" points="179.591,-92.7451 173.3897,-84.1548 172.8805,-94.7374 179.591,-92.7451"/>
<g id="a_edge1&#45;label"><a xlink:title="loads">
<text text-anchor="middle" x="210.5" y="-159.8" font-family="Courier,monospace" font-size="9.00" fill="#000000">loads</text>
</a>
</g>
</g>
<!-- /home/paul/logtalk/library/meta/loader.lgt -->
<g id="node4" class="node">
<title>/home/paul/logtalk/library/meta/loader.lgt</title>
<g id="a_node4"><a xlink:title="logtalk/library/meta/loader.lgt">
<polygon fill="#b0e0e6" stroke="#000000" stroke-dasharray="5,2" points="330,-84 234,-84 234,-48 330,-48 330,-84"/>
<text text-anchor="start" x="242" y="-68.8" font-family="Courier,monospace" font-size="9.00" fill="#000000"> </text>
<text text-anchor="start" x="248" y="-68.2" font-family="Courier,monospace" font-size="11.00" fill="#000000">loader.lgt</text>
<text text-anchor="start" x="316" y="-68.8" font-family="Courier,monospace" font-size="9.00" fill="#000000"> </text>
<text text-anchor="start" x="242" y="-57.8" font-family="Courier,monospace" font-size="9.00" fill="#000000"> </text>
<text text-anchor="start" x="272.5" y="-58.4" font-family="Courier,monospace" font-size="7.00" fill="#000000">file</text>
<text text-anchor="start" x="316" y="-57.8" font-family="Courier,monospace" font-size="9.00" fill="#000000"> </text>
</a>
</g>
</g>
<!-- /home/paul/Development/tictactoetalk/loader.lgt&#45;&gt;/home/paul/logtalk/library/meta/loader.lgt -->
<g id="edge2" class="edge">
<title>/home/paul/Development/tictactoetalk/loader.lgt&#45;&gt;/home/paul/logtalk/library/meta/loader.lgt</title>
<path fill="none" stroke="#000000" d="M230.3624,-239.9371C240.3562,-206.2738 261.8878,-133.7464 273.7471,-93.7991"/>
<polygon fill="#000000" stroke="#000000" points="277.1195,-94.7374 276.6103,-84.1548 270.409,-92.7451 277.1195,-94.7374"/>
<g id="a_edge2&#45;label"><a xlink:title="loads">
<text text-anchor="middle" x="267.5" y="-159.8" font-family="Courier,monospace" font-size="9.00" fill="#000000">loads</text>
</a>
</g>
</g>
<!-- /home/paul/logtalk/library/random/loader.lgt -->
<g id="node5" class="node">
<title>/home/paul/logtalk/library/random/loader.lgt</title>
<g id="a_node5"><a xlink:title="logtalk/library/random/loader.lgt">
<polygon fill="#b0e0e6" stroke="#000000" stroke-dasharray="5,2" points="444,-84 348,-84 348,-48 444,-48 444,-84"/>
<text text-anchor="start" x="356" y="-68.8" font-family="Courier,monospace" font-size="9.00" fill="#000000"> </text>
<text text-anchor="start" x="362" y="-68.2" font-family="Courier,monospace" font-size="11.00" fill="#000000">loader.lgt</text>
<text text-anchor="start" x="430" y="-68.8" font-family="Courier,monospace" font-size="9.00" fill="#000000"> </text>
<text text-anchor="start" x="356" y="-57.8" font-family="Courier,monospace" font-size="9.00" fill="#000000"> </text>
<text text-anchor="start" x="386.5" y="-58.4" font-family="Courier,monospace" font-size="7.00" fill="#000000">file</text>
<text text-anchor="start" x="430" y="-57.8" font-family="Courier,monospace" font-size="9.00" fill="#000000"> </text>
</a>
</g>
</g>
<!-- /home/paul/Development/tictactoetalk/loader.lgt&#45;&gt;/home/paul/logtalk/library/random/loader.lgt -->
<g id="edge3" class="edge">
<title>/home/paul/Development/tictactoetalk/loader.lgt&#45;&gt;/home/paul/logtalk/library/random/loader.lgt</title>
<path fill="none" stroke="#000000" d="M241.0873,-239.9371C271.5142,-205.7735 337.591,-131.5821 372.8083,-92.0399"/>
<polygon fill="#000000" stroke="#000000" points="375.7937,-93.9503 379.8309,-84.1548 370.5663,-89.2946 375.7937,-93.9503"/>
<g id="a_edge3&#45;label"><a xlink:title="loads">
<text text-anchor="middle" x="327.5" y="-159.8" font-family="Courier,monospace" font-size="9.00" fill="#000000">loads</text>
</a>
</g>
</g>
</g>
</svg>
