<?xml version="1.0" encoding="UTF-8" standalone="no"?>
<!DOCTYPE svg PUBLIC "-//W3C//DTD SVG 1.1//EN"
 "http://www.w3.org/Graphics/SVG/1.1/DTD/svg11.dtd">
<!-- Generated by graphviz version 2.43.0 (0)
 -->
<!-- Title: tictactoetalk Pages: 1 -->
<svg width="728pt" height="652pt"
 viewBox="72.00 72.00 656.00 580.00" xmlns="http://www.w3.org/2000/svg" xmlns:xlink="http://www.w3.org/1999/xlink">
<g id="graph0" class="graph" transform="scale(1 1) rotate(0) translate(76 576)">
<title>tictactoetalk</title>
<polygon fill="white" stroke="transparent" points="-4,4 -4,-504 580,-504 580,4 -4,4"/>
<text text-anchor="start" x="8" y="-18" font-family="Courier,monospace" font-size="10.00" fill="dimgray">Uses diagram for directory tictactoetalk/</text>
<text text-anchor="start" x="8" y="-7" font-family="Courier,monospace" font-size="10.00" fill="dimgray">Generated on 2019/11/07, 00:21</text>
<g id="clust1" class="cluster">
<title>cluster_directory_tictactoetalk</title>
<g id="a_clust1"><a xlink:title="tictactoetalk/">
<path fill="whitesmoke" stroke="dimgray" d="M20,-38C20,-38 556,-38 556,-38 562,-38 568,-44 568,-50 568,-50 568,-480 568,-480 568,-486 562,-492 556,-492 556,-492 20,-492 20,-492 14,-492 8,-486 8,-480 8,-480 8,-50 8,-50 8,-44 14,-38 20,-38"/>
<text text-anchor="start" x="20.5" y="-475.5" font-family="Courier,monospace" font-size="10.00" fill="dimgray">tictactoetalk/</text>
</a>
</g>
</g>
<g id="clust3" class="cluster">
<title>cluster_file_/home/paul/Development/tictactoetalk/game.lgt</title>
<g id="a_clust3"><a xlink:title="tictactoetalk/game.lgt">
<path fill="snow" stroke="dimgray" d="M30,-156C30,-156 432,-156 432,-156 438,-156 444,-162 444,-168 444,-168 444,-443 444,-443 444,-449 438,-455 432,-455 432,-455 30,-455 30,-455 24,-455 18,-449 18,-443 18,-443 18,-168 18,-168 18,-162 24,-156 30,-156"/>
<text text-anchor="start" x="30.5" y="-438.5" font-family="Courier,monospace" font-size="10.00" fill="dimgray">game.lgt</text>
</a>
</g>
</g>
<!-- board(Board) -->
<g id="node1" class="node">
<title>board(Board)</title>
<g id="a_node1"><a xlink:title="prototype">
<polygon fill="cornsilk" stroke="black" points="256.5,-246 143.5,-246 143.5,-166 256.5,-166 256.5,-246"/>
<text text-anchor="start" x="152" y="-233.8" font-family="Courier,monospace" font-size="9.00"> </text>
<text text-anchor="start" x="159.5" y="-233.2" font-family="Courier,monospace" font-size="11.00">board(Board)</text>
<text text-anchor="start" x="243" y="-233.8" font-family="Courier,monospace" font-size="9.00"> </text>
<text text-anchor="start" x="152" y="-222.8" font-family="Courier,monospace" font-size="9.00"> </text>
<text text-anchor="start" x="180" y="-223.4" font-family="Courier,monospace" font-size="7.00">prototype</text>
<text text-anchor="start" x="243" y="-222.8" font-family="Courier,monospace" font-size="9.00"> </text>
<text text-anchor="start" x="152" y="-212.8" font-family="Courier,monospace" font-size="9.00"> </text>
<text text-anchor="start" x="152" y="-202.8" font-family="Courier,monospace" font-size="9.00"> </text>
<text text-anchor="start" x="184.5" y="-202.8" font-family="Courier,monospace" font-size="9.00">init/0</text>
<text text-anchor="start" x="243" y="-202.8" font-family="Courier,monospace" font-size="9.00"> </text>
<text text-anchor="start" x="152" y="-192.8" font-family="Courier,monospace" font-size="9.00"> </text>
<text text-anchor="start" x="158" y="-192.8" font-family="Courier,monospace" font-size="9.00">available_move/1</text>
<text text-anchor="start" x="243" y="-192.8" font-family="Courier,monospace" font-size="9.00"> </text>
<text text-anchor="start" x="152" y="-182.8" font-family="Courier,monospace" font-size="9.00"> </text>
<text text-anchor="start" x="179" y="-182.8" font-family="Courier,monospace" font-size="9.00">update/3</text>
<text text-anchor="start" x="243" y="-182.8" font-family="Courier,monospace" font-size="9.00"> </text>
<text text-anchor="start" x="152" y="-172.8" font-family="Courier,monospace" font-size="9.00"> </text>
<text text-anchor="start" x="166" y="-172.8" font-family="Courier,monospace" font-size="9.00">print_board/0</text>
<text text-anchor="start" x="243" y="-172.8" font-family="Courier,monospace" font-size="9.00"> </text>
</a>
</g>
</g>
<!-- list -->
<g id="node6" class="node">
<title>list</title>
<g id="a_node6"><a xlink:title="prototype">
<polygon fill="beige" stroke="black" stroke-dasharray="5,2" points="399.5,-84 330.5,-84 330.5,-48 399.5,-48 399.5,-84"/>
<text text-anchor="start" x="339" y="-68.8" font-family="Courier,monospace" font-size="9.00"> </text>
<text text-anchor="start" x="351.5" y="-68.2" font-family="Courier,monospace" font-size="11.00">list</text>
<text text-anchor="start" x="386" y="-68.8" font-family="Courier,monospace" font-size="9.00"> </text>
<text text-anchor="start" x="339" y="-57.8" font-family="Courier,monospace" font-size="9.00"> </text>
<text text-anchor="start" x="345" y="-58.4" font-family="Courier,monospace" font-size="7.00">prototype</text>
<text text-anchor="start" x="386" y="-57.8" font-family="Courier,monospace" font-size="9.00"> </text>
</a>
</g>
</g>
<!-- board(Board)&#45;&gt;list -->
<g id="edge1" class="edge">
<title>board(Board)&#45;&gt;list</title>
<path fill="none" stroke="black" d="M246.84,-165.82C275.77,-141.63 311.95,-111.37 336.6,-90.75"/>
<polygon fill="black" stroke="black" points="339.07,-93.25 344.49,-84.15 334.58,-87.88 339.07,-93.25"/>
<g id="a_edge1&#45;label"><a xlink:title="uses">
<text text-anchor="middle" x="308" y="-122.8" font-family="Courier,monospace" font-size="9.00">uses</text>
</a>
</g>
</g>
<!-- meta -->
<g id="node7" class="node">
<title>meta</title>
<g id="a_node7"><a xlink:title="prototype">
<polygon fill="beige" stroke="black" stroke-dasharray="5,2" points="234.5,-84 165.5,-84 165.5,-48 234.5,-48 234.5,-84"/>
<text text-anchor="start" x="174" y="-68.8" font-family="Courier,monospace" font-size="9.00"> </text>
<text text-anchor="start" x="186.5" y="-68.2" font-family="Courier,monospace" font-size="11.00">meta</text>
<text text-anchor="start" x="221" y="-68.8" font-family="Courier,monospace" font-size="9.00"> </text>
<text text-anchor="start" x="174" y="-57.8" font-family="Courier,monospace" font-size="9.00"> </text>
<text text-anchor="start" x="180" y="-58.4" font-family="Courier,monospace" font-size="7.00">prototype</text>
<text text-anchor="start" x="221" y="-57.8" font-family="Courier,monospace" font-size="9.00"> </text>
</a>
</g>
</g>
<!-- board(Board)&#45;&gt;meta -->
<g id="edge2" class="edge">
<title>board(Board)&#45;&gt;meta</title>
<path fill="none" stroke="black" d="M200,-165.82C200,-142.99 200,-114.77 200,-94.34"/>
<polygon fill="black" stroke="black" points="203.5,-94.15 200,-84.15 196.5,-94.15 203.5,-94.15"/>
<g id="a_edge2&#45;label"><a xlink:title="uses">
<text text-anchor="middle" x="211" y="-122.8" font-family="Courier,monospace" font-size="9.00">uses</text>
</a>
</g>
</g>
<!-- human(Char) -->
<g id="node2" class="node">
<title>human(Char)</title>
<g id="a_node2"><a xlink:title="prototype">
<polygon fill="cornsilk" stroke="black" points="377.5,-224 274.5,-224 274.5,-188 377.5,-188 377.5,-224"/>
<text text-anchor="start" x="283" y="-208.8" font-family="Courier,monospace" font-size="9.00"> </text>
<text text-anchor="start" x="289" y="-208.2" font-family="Courier,monospace" font-size="11.00">human(Char)</text>
<text text-anchor="start" x="364" y="-208.8" font-family="Courier,monospace" font-size="9.00"> </text>
<text text-anchor="start" x="283" y="-197.8" font-family="Courier,monospace" font-size="9.00"> </text>
<text text-anchor="start" x="306" y="-198.4" font-family="Courier,monospace" font-size="7.00">prototype</text>
<text text-anchor="start" x="364" y="-197.8" font-family="Courier,monospace" font-size="9.00"> </text>
</a>
</g>
</g>
<!-- computer(Difficulty) -->
<g id="node3" class="node">
<title>computer(Difficulty)</title>
<g id="a_node3"><a xlink:title="prototype">
<polygon fill="cornsilk" stroke="black" points="434,-398 270,-398 270,-348 434,-348 434,-398"/>
<text text-anchor="start" x="278" y="-385.8" font-family="Courier,monospace" font-size="9.00"> </text>
<text text-anchor="start" x="284" y="-385.2" font-family="Courier,monospace" font-size="11.00">computer(Difficulty)</text>
<text text-anchor="start" x="420" y="-385.8" font-family="Courier,monospace" font-size="9.00"> </text>
<text text-anchor="start" x="278" y="-374.8" font-family="Courier,monospace" font-size="9.00"> </text>
<text text-anchor="start" x="331.5" y="-375.4" font-family="Courier,monospace" font-size="7.00">prototype</text>
<text text-anchor="start" x="420" y="-374.8" font-family="Courier,monospace" font-size="9.00"> </text>
<text text-anchor="start" x="278" y="-364.8" font-family="Courier,monospace" font-size="9.00"> </text>
<text text-anchor="start" x="278" y="-354.8" font-family="Courier,monospace" font-size="9.00"> </text>
<text text-anchor="start" x="317.5" y="-354.8" font-family="Courier,monospace" font-size="9.00">choose_move/3</text>
<text text-anchor="start" x="420" y="-354.8" font-family="Courier,monospace" font-size="9.00"> </text>
</a>
</g>
</g>
<!-- computer(Difficulty)&#45;&gt;human(Char) -->
<g id="edge3" class="edge">
<title>computer(Difficulty)&#45;&gt;human(Char)</title>
<path fill="none" stroke="black" d="M342.46,-347.93C336.76,-332.27 330.05,-311.26 327,-292 323.97,-272.87 323.78,-251.01 324.32,-234.25"/>
<polygon fill="black" stroke="black" points="327.82,-234.2 324.76,-224.06 320.83,-233.9 327.82,-234.2"/>
<g id="a_edge3&#45;label"><a xlink:title="uses">
<text text-anchor="middle" x="338" y="-284.8" font-family="Courier,monospace" font-size="9.00">uses</text>
</a>
</g>
</g>
<!-- computer(Difficulty)&#45;&gt;list -->
<g id="edge5" class="edge">
<title>computer(Difficulty)&#45;&gt;list</title>
<path fill="none" stroke="black" d="M360.84,-347.79C369.49,-322.72 382.06,-282.22 387,-246 392.4,-206.37 391.83,-195.71 387,-156 384.43,-134.93 378.57,-111.67 373.55,-94.21"/>
<polygon fill="black" stroke="black" points="376.76,-92.75 370.56,-84.16 370.05,-94.75 376.76,-92.75"/>
<g id="a_edge5&#45;label"><a xlink:title="uses">
<text text-anchor="middle" x="401" y="-203.8" font-family="Courier,monospace" font-size="9.00">uses</text>
</a>
</g>
</g>
<!-- fast_random -->
<g id="node8" class="node">
<title>fast_random</title>
<g id="a_node8"><a xlink:title="prototype">
<polygon fill="beige" stroke="black" stroke-dasharray="5,2" points="557.5,-224 454.5,-224 454.5,-188 557.5,-188 557.5,-224"/>
<text text-anchor="start" x="463" y="-208.8" font-family="Courier,monospace" font-size="9.00"> </text>
<text text-anchor="start" x="469" y="-208.2" font-family="Courier,monospace" font-size="11.00">fast_random</text>
<text text-anchor="start" x="544" y="-208.8" font-family="Courier,monospace" font-size="9.00"> </text>
<text text-anchor="start" x="463" y="-197.8" font-family="Courier,monospace" font-size="9.00"> </text>
<text text-anchor="start" x="486" y="-198.4" font-family="Courier,monospace" font-size="7.00">prototype</text>
<text text-anchor="start" x="544" y="-197.8" font-family="Courier,monospace" font-size="9.00"> </text>
</a>
</g>
</g>
<!-- computer(Difficulty)&#45;&gt;fast_random -->
<g id="edge4" class="edge">
<title>computer(Difficulty)&#45;&gt;fast_random</title>
<path fill="none" stroke="black" d="M374.72,-347.65C403.72,-316.58 453.63,-263.11 482.84,-231.82"/>
<polygon fill="black" stroke="black" points="485.53,-234.06 489.79,-224.37 480.41,-229.29 485.53,-234.06"/>
<g id="a_edge4&#45;label"><a xlink:title="uses">
<text text-anchor="middle" x="444" y="-284.8" font-family="Courier,monospace" font-size="9.00">uses</text>
</a>
</g>
</g>
<!-- game(Mode) -->
<g id="node4" class="node">
<title>game(Mode)</title>
<g id="a_node4"><a xlink:title="prototype">
<polygon fill="cornsilk" stroke="black" points="252,-398 156,-398 156,-348 252,-348 252,-398"/>
<text text-anchor="start" x="164" y="-385.8" font-family="Courier,monospace" font-size="9.00"> </text>
<text text-anchor="start" x="170" y="-385.2" font-family="Courier,monospace" font-size="11.00">game(Mode)</text>
<text text-anchor="start" x="238" y="-385.8" font-family="Courier,monospace" font-size="9.00"> </text>
<text text-anchor="start" x="164" y="-374.8" font-family="Courier,monospace" font-size="9.00"> </text>
<text text-anchor="start" x="183.5" y="-375.4" font-family="Courier,monospace" font-size="7.00">prototype</text>
<text text-anchor="start" x="238" y="-374.8" font-family="Courier,monospace" font-size="9.00"> </text>
<text text-anchor="start" x="164" y="-364.8" font-family="Courier,monospace" font-size="9.00"> </text>
<text text-anchor="start" x="164" y="-354.8" font-family="Courier,monospace" font-size="9.00"> </text>
<text text-anchor="start" x="188" y="-354.8" font-family="Courier,monospace" font-size="9.00">play/0</text>
<text text-anchor="start" x="238" y="-354.8" font-family="Courier,monospace" font-size="9.00"> </text>
</a>
</g>
</g>
<!-- game(Mode)&#45;&gt;board(Board) -->
<g id="edge6" class="edge">
<title>game(Mode)&#45;&gt;board(Board)</title>
<path fill="none" stroke="black" d="M203.41,-347.65C202.83,-323.76 201.93,-286.62 201.2,-256.5"/>
<polygon fill="black" stroke="black" points="204.69,-256.09 200.95,-246.17 197.69,-256.26 204.69,-256.09"/>
<g id="a_edge6&#45;label"><a xlink:title="uses">
<text text-anchor="middle" x="213" y="-284.8" font-family="Courier,monospace" font-size="9.00">uses</text>
</a>
</g>
</g>
<!-- player(Char) -->
<g id="node5" class="node">
<title>player(Char)</title>
<g id="a_node5"><a xlink:title="category">
<polygon fill="lightcyan" stroke="black" points="138,-418 28,-418 28,-414 24,-414 24,-410 28,-410 28,-336 24,-336 24,-332 28,-332 28,-328 138,-328 138,-418"/>
<polyline fill="none" stroke="black" points="28,-414 32,-414 32,-410 28,-410 "/>
<polyline fill="none" stroke="black" points="28,-336 32,-336 32,-332 28,-332 "/>
<text text-anchor="start" x="36" y="-405.8" font-family="Courier,monospace" font-size="9.00"> </text>
<text text-anchor="start" x="42" y="-405.2" font-family="Courier,monospace" font-size="11.00">player(Char)</text>
<text text-anchor="start" x="124" y="-405.8" font-family="Courier,monospace" font-size="9.00"> </text>
<text text-anchor="start" x="36" y="-394.8" font-family="Courier,monospace" font-size="9.00"> </text>
<text text-anchor="start" x="64.5" y="-395.4" font-family="Courier,monospace" font-size="7.00">category</text>
<text text-anchor="start" x="124" y="-394.8" font-family="Courier,monospace" font-size="9.00"> </text>
<text text-anchor="start" x="36" y="-384.8" font-family="Courier,monospace" font-size="9.00"> </text>
<text text-anchor="start" x="36" y="-374.8" font-family="Courier,monospace" font-size="9.00"> </text>
<text text-anchor="start" x="67" y="-374.8" font-family="Courier,monospace" font-size="9.00">char/1</text>
<text text-anchor="start" x="124" y="-374.8" font-family="Courier,monospace" font-size="9.00"> </text>
<text text-anchor="start" x="36" y="-364.8" font-family="Courier,monospace" font-size="9.00"> </text>
<text text-anchor="start" x="48.5" y="-364.8" font-family="Courier,monospace" font-size="9.00">choose_move/2</text>
<text text-anchor="start" x="124" y="-364.8" font-family="Courier,monospace" font-size="9.00"> </text>
<text text-anchor="start" x="36" y="-354.8" font-family="Courier,monospace" font-size="9.00"> </text>
<text text-anchor="start" x="59" y="-354.8" font-family="Courier,monospace" font-size="9.00">has_won/1</text>
<text text-anchor="start" x="124" y="-354.8" font-family="Courier,monospace" font-size="9.00"> </text>
<text text-anchor="start" x="36" y="-344.8" font-family="Courier,monospace" font-size="9.00"> </text>
<text text-anchor="start" x="67" y="-344.8" font-family="Courier,monospace" font-size="9.00">move/2</text>
<text text-anchor="start" x="124" y="-344.8" font-family="Courier,monospace" font-size="9.00"> </text>
<text text-anchor="start" x="36" y="-334.8" font-family="Courier,monospace" font-size="9.00"> </text>
<text text-anchor="start" x="59" y="-334.8" font-family="Courier,monospace" font-size="9.00">win_msg/0</text>
<text text-anchor="start" x="124" y="-334.8" font-family="Courier,monospace" font-size="9.00"> </text>
</a>
</g>
</g>
</g>
</svg>
