<?xml version="1.0" encoding="UTF-8" standalone="no"?>
<!DOCTYPE svg PUBLIC "-//W3C//DTD SVG 1.1//EN"
 "http://www.w3.org/Graphics/SVG/1.1/DTD/svg11.dtd">
<!-- Generated by graphviz version 2.43.0 (0)
 -->
<!-- Title: tictactoetalk Pages: 1 -->
<svg width="521pt" height="399pt"
 viewBox="72.00 72.00 449.00 327.00" xmlns="http://www.w3.org/2000/svg" xmlns:xlink="http://www.w3.org/1999/xlink">
<g id="graph0" class="graph" transform="scale(1 1) rotate(0) translate(76 323)">
<title>tictactoetalk</title>
<polygon fill="white" stroke="transparent" points="-4,4 -4,-251 373,-251 373,4 -4,4"/>
<text text-anchor="start" x="8" y="-18" font-family="Courier,monospace" font-size="10.00" fill="dimgray">File dependency diagram for directory tictactoetalk/</text>
<text text-anchor="start" x="8" y="-7" font-family="Courier,monospace" font-size="10.00" fill="dimgray">Generated on 2019/11/07, 00:21</text>
<g id="clust1" class="cluster">
<title>cluster_directory_tictactoetalk</title>
<g id="a_clust1"><a xlink:title="tictactoetalk/">
<path fill="whitesmoke" stroke="dimgray" d="M20,-38C20,-38 349,-38 349,-38 355,-38 361,-44 361,-50 361,-50 361,-227 361,-227 361,-233 355,-239 349,-239 349,-239 20,-239 20,-239 14,-239 8,-233 8,-227 8,-227 8,-50 8,-50 8,-44 14,-38 20,-38"/>
<text text-anchor="start" x="20.5" y="-222.5" font-family="Courier,monospace" font-size="10.00" fill="dimgray">tictactoetalk/</text>
</a>
</g>
</g>
<!-- /home/paul/Development/tictactoetalk/loader.lgt -->
<g id="node1" class="node">
<title>/home/paul/Development/tictactoetalk/loader.lgt</title>
<g id="a_node1"><a xlink:title="tictactoetalk/loader.lgt">
<polygon fill="paleturquoise" stroke="black" points="334,-202 238,-202 238,-166 334,-166 334,-202"/>
<text text-anchor="start" x="246" y="-186.8" font-family="Courier,monospace" font-size="9.00"> </text>
<text text-anchor="start" x="252" y="-186.2" font-family="Courier,monospace" font-size="11.00">loader.lgt</text>
<text text-anchor="start" x="320" y="-186.8" font-family="Courier,monospace" font-size="9.00"> </text>
<text text-anchor="start" x="246" y="-175.8" font-family="Courier,monospace" font-size="9.00"> </text>
<text text-anchor="start" x="276.5" y="-176.4" font-family="Courier,monospace" font-size="7.00">file</text>
<text text-anchor="start" x="320" y="-175.8" font-family="Courier,monospace" font-size="9.00"> </text>
</a>
</g>
</g>
<!-- /home/paul/Development/tictactoetalk/game.lgt -->
<g id="node2" class="node">
<title>/home/paul/Development/tictactoetalk/game.lgt</title>
<g id="a_node2"><a xlink:title="tictactoetalk/game.lgt">
<polygon fill="paleturquoise" stroke="black" points="202.5,-202 119.5,-202 119.5,-166 202.5,-166 202.5,-202"/>
<text text-anchor="start" x="128" y="-186.8" font-family="Courier,monospace" font-size="9.00"> </text>
<text text-anchor="start" x="134" y="-186.2" font-family="Courier,monospace" font-size="11.00">game.lgt</text>
<text text-anchor="start" x="189" y="-186.8" font-family="Courier,monospace" font-size="9.00"> </text>
<text text-anchor="start" x="128" y="-175.8" font-family="Courier,monospace" font-size="9.00"> </text>
<text text-anchor="start" x="152" y="-176.4" font-family="Courier,monospace" font-size="7.00">file</text>
<text text-anchor="start" x="189" y="-175.8" font-family="Courier,monospace" font-size="9.00"> </text>
</a>
</g>
</g>
<!-- /home/paul/logtalk/library/types/list.lgt -->
<g id="node3" class="node">
<title>/home/paul/logtalk/library/types/list.lgt</title>
<g id="a_node3"><a xlink:title="logtalk/library/types/list.lgt">
<polygon fill="powderblue" stroke="black" stroke-dasharray="5,2" points="101.5,-84 18.5,-84 18.5,-48 101.5,-48 101.5,-84"/>
<text text-anchor="start" x="27" y="-68.8" font-family="Courier,monospace" font-size="9.00"> </text>
<text text-anchor="start" x="33" y="-68.2" font-family="Courier,monospace" font-size="11.00">list.lgt</text>
<text text-anchor="start" x="88" y="-68.8" font-family="Courier,monospace" font-size="9.00"> </text>
<text text-anchor="start" x="27" y="-57.8" font-family="Courier,monospace" font-size="9.00"> </text>
<text text-anchor="start" x="51" y="-58.4" font-family="Courier,monospace" font-size="7.00">file</text>
<text text-anchor="start" x="88" y="-57.8" font-family="Courier,monospace" font-size="9.00"> </text>
</a>
</g>
</g>
<!-- /home/paul/Development/tictactoetalk/game.lgt&#45;&gt;/home/paul/logtalk/library/types/list.lgt -->
<g id="edge1" class="edge">
<title>/home/paul/Development/tictactoetalk/game.lgt&#45;&gt;/home/paul/logtalk/library/types/list.lgt</title>
<path fill="none" stroke="black" d="M146.1,-165.88C129.09,-146.35 101.12,-114.23 81.7,-91.92"/>
<polygon fill="black" stroke="black" points="84.17,-89.43 74.96,-84.19 78.89,-94.03 84.17,-89.43"/>
<g id="a_edge1&#45;label"><a xlink:title="depends">
<text text-anchor="middle" x="131.5" y="-122.8" font-family="Courier,monospace" font-size="9.00">depends</text>
</a>
</g>
</g>
<!-- /home/paul/logtalk/library/meta/meta.lgt -->
<g id="node4" class="node">
<title>/home/paul/logtalk/library/meta/meta.lgt</title>
<g id="a_node4"><a xlink:title="logtalk/library/meta/meta.lgt">
<polygon fill="powderblue" stroke="black" stroke-dasharray="5,2" points="202.5,-84 119.5,-84 119.5,-48 202.5,-48 202.5,-84"/>
<text text-anchor="start" x="128" y="-68.8" font-family="Courier,monospace" font-size="9.00"> </text>
<text text-anchor="start" x="134" y="-68.2" font-family="Courier,monospace" font-size="11.00">meta.lgt</text>
<text text-anchor="start" x="189" y="-68.8" font-family="Courier,monospace" font-size="9.00"> </text>
<text text-anchor="start" x="128" y="-57.8" font-family="Courier,monospace" font-size="9.00"> </text>
<text text-anchor="start" x="152" y="-58.4" font-family="Courier,monospace" font-size="7.00">file</text>
<text text-anchor="start" x="189" y="-57.8" font-family="Courier,monospace" font-size="9.00"> </text>
</a>
</g>
</g>
<!-- /home/paul/Development/tictactoetalk/game.lgt&#45;&gt;/home/paul/logtalk/library/meta/meta.lgt -->
<g id="edge2" class="edge">
<title>/home/paul/Development/tictactoetalk/game.lgt&#45;&gt;/home/paul/logtalk/library/meta/meta.lgt</title>
<path fill="none" stroke="black" d="M161,-165.88C161,-147.04 161,-116.47 161,-94.3"/>
<polygon fill="black" stroke="black" points="164.5,-94.19 161,-84.19 157.5,-94.19 164.5,-94.19"/>
<g id="a_edge2&#45;label"><a xlink:title="depends">
<text text-anchor="middle" x="179.5" y="-122.8" font-family="Courier,monospace" font-size="9.00">depends</text>
</a>
</g>
</g>
<!-- /home/paul/logtalk/library/random/fast_random.lgt -->
<g id="node5" class="node">
<title>/home/paul/logtalk/library/random/fast_random.lgt</title>
<g id="a_node5"><a xlink:title="logtalk/library/random/fast_random.lgt">
<polygon fill="powderblue" stroke="black" stroke-dasharray="5,2" points="351,-84 221,-84 221,-48 351,-48 351,-84"/>
<text text-anchor="start" x="229" y="-68.8" font-family="Courier,monospace" font-size="9.00"> </text>
<text text-anchor="start" x="235" y="-68.2" font-family="Courier,monospace" font-size="11.00">fast_random.lgt</text>
<text text-anchor="start" x="337" y="-68.8" font-family="Courier,monospace" font-size="9.00"> </text>
<text text-anchor="start" x="229" y="-57.8" font-family="Courier,monospace" font-size="9.00"> </text>
<text text-anchor="start" x="276.5" y="-58.4" font-family="Courier,monospace" font-size="7.00">file</text>
<text text-anchor="start" x="337" y="-57.8" font-family="Courier,monospace" font-size="9.00"> </text>
</a>
</g>
</g>
<!-- /home/paul/Development/tictactoetalk/game.lgt&#45;&gt;/home/paul/logtalk/library/random/fast_random.lgt -->
<g id="edge3" class="edge">
<title>/home/paul/Development/tictactoetalk/game.lgt&#45;&gt;/home/paul/logtalk/library/random/fast_random.lgt</title>
<path fill="none" stroke="black" d="M179.44,-165.88C200.77,-146.09 236.02,-113.38 260.09,-91.05"/>
<polygon fill="black" stroke="black" points="262.53,-93.55 267.48,-84.19 257.77,-88.42 262.53,-93.55"/>
<g id="a_edge3&#45;label"><a xlink:title="depends">
<text text-anchor="middle" x="245.5" y="-122.8" font-family="Courier,monospace" font-size="9.00">depends</text>
</a>
</g>
</g>
</g>
</svg>
