<?xml version="1.0" encoding="UTF-8" standalone="no"?>
<!DOCTYPE svg PUBLIC "-//W3C//DTD SVG 1.1//EN"
 "http://www.w3.org/Graphics/SVG/1.1/DTD/svg11.dtd">
<!-- Generated by graphviz version 2.40.1 (20161225.0304)
 -->
<!-- Title: tictactoetalk Pages: 1 -->
<svg width="748pt" height="1052pt"
 viewBox="72.00 72.00 676.00 980.00" xmlns="http://www.w3.org/2000/svg" xmlns:xlink="http://www.w3.org/1999/xlink">
<g id="graph0" class="graph" transform="scale(1 1) rotate(0) translate(76 976)">
<title>tictactoetalk</title>
<polygon fill="#ffffff" stroke="transparent" points="-4,4 -4,-904 600,-904 600,4 -4,4"/>
<text text-anchor="start" x="8" y="-18" font-family="Courier,monospace" font-size="10.00" fill="#696969">Cross&#45;referencing diagram for directory tictactoetalk/</text>
<text text-anchor="start" x="8" y="-7" font-family="Courier,monospace" font-size="10.00" fill="#696969">Generated on 2019/11/06, 11:48</text>
<g id="clust1" class="cluster">
<title>cluster_directory_tictactoetalk</title>
<g id="a_clust1"><a xlink:title="tictactoetalk/">
<path fill="#f5f5f5" stroke="#696969" d="M20,-38C20,-38 576,-38 576,-38 582,-38 588,-44 588,-50 588,-50 588,-880 588,-880 588,-886 582,-892 576,-892 576,-892 20,-892 20,-892 14,-892 8,-886 8,-880 8,-880 8,-50 8,-50 8,-44 14,-38 20,-38"/>
<text text-anchor="start" x="20.5" y="-875.5" font-family="Courier,monospace" font-size="10.00" fill="#696969">tictactoetalk/</text>
</a>
</g>
</g>
<g id="clust3" class="cluster">
<title>cluster_file_/home/paul/Development/tictactoetalk/game.lgt</title>
<g id="a_clust3"><a xlink:title="tictactoetalk/game.lgt">
<path fill="#fffafa" stroke="#696969" d="M30,-250C30,-250 432,-250 432,-250 438,-250 444,-256 444,-262 444,-262 444,-843 444,-843 444,-849 438,-855 432,-855 432,-855 30,-855 30,-855 24,-855 18,-849 18,-843 18,-843 18,-262 18,-262 18,-256 24,-250 30,-250"/>
<text text-anchor="start" x="30.5" y="-838.5" font-family="Courier,monospace" font-size="10.00" fill="#696969">game.lgt</text>
</a>
</g>
</g>
<!-- board(Board) -->
<g id="node1" class="node">
<title>board(Board)</title>
<g id="a_node1"><a xlink:title="prototype">
<polygon fill="#fff8dc" stroke="#000000" points="163.5,-340 50.5,-340 50.5,-260 163.5,-260 163.5,-340"/>
<text text-anchor="start" x="59" y="-327.8" font-family="Courier,monospace" font-size="9.00" fill="#000000"> </text>
<text text-anchor="start" x="66.5" y="-327.2" font-family="Courier,monospace" font-size="11.00" fill="#000000">board(Board)</text>
<text text-anchor="start" x="150" y="-327.8" font-family="Courier,monospace" font-size="9.00" fill="#000000"> </text>
<text text-anchor="start" x="59" y="-316.8" font-family="Courier,monospace" font-size="9.00" fill="#000000"> </text>
<text text-anchor="start" x="87" y="-317.4" font-family="Courier,monospace" font-size="7.00" fill="#000000">prototype</text>
<text text-anchor="start" x="150" y="-316.8" font-family="Courier,monospace" font-size="9.00" fill="#000000"> </text>
<text text-anchor="start" x="59" y="-306.8" font-family="Courier,monospace" font-size="9.00" fill="#000000"> </text>
<text text-anchor="start" x="59" y="-296.8" font-family="Courier,monospace" font-size="9.00" fill="#000000"> </text>
<text text-anchor="start" x="91.5" y="-296.8" font-family="Courier,monospace" font-size="9.00" fill="#000000">init/0</text>
<text text-anchor="start" x="150" y="-296.8" font-family="Courier,monospace" font-size="9.00" fill="#000000"> </text>
<text text-anchor="start" x="59" y="-286.8" font-family="Courier,monospace" font-size="9.00" fill="#000000"> </text>
<text text-anchor="start" x="65" y="-286.8" font-family="Courier,monospace" font-size="9.00" fill="#000000">available_move/1</text>
<text text-anchor="start" x="150" y="-286.8" font-family="Courier,monospace" font-size="9.00" fill="#000000"> </text>
<text text-anchor="start" x="59" y="-276.8" font-family="Courier,monospace" font-size="9.00" fill="#000000"> </text>
<text text-anchor="start" x="86" y="-276.8" font-family="Courier,monospace" font-size="9.00" fill="#000000">update/3</text>
<text text-anchor="start" x="150" y="-276.8" font-family="Courier,monospace" font-size="9.00" fill="#000000"> </text>
<text text-anchor="start" x="59" y="-266.8" font-family="Courier,monospace" font-size="9.00" fill="#000000"> </text>
<text text-anchor="start" x="73" y="-266.8" font-family="Courier,monospace" font-size="9.00" fill="#000000">print_board/0</text>
<text text-anchor="start" x="150" y="-266.8" font-family="Courier,monospace" font-size="9.00" fill="#000000"> </text>
</a>
</g>
</g>
<!-- list -->
<g id="node6" class="node">
<title>list</title>
<g id="a_node6"><a xlink:title="prototype">
<polygon fill="#f5f5dc" stroke="#000000" stroke-dasharray="5,2" points="91.5,-84 22.5,-84 22.5,-48 91.5,-48 91.5,-84"/>
<text text-anchor="start" x="31" y="-68.8" font-family="Courier,monospace" font-size="9.00" fill="#000000"> </text>
<text text-anchor="start" x="43.5" y="-68.2" font-family="Courier,monospace" font-size="11.00" fill="#000000">list</text>
<text text-anchor="start" x="78" y="-68.8" font-family="Courier,monospace" font-size="9.00" fill="#000000"> </text>
<text text-anchor="start" x="31" y="-57.8" font-family="Courier,monospace" font-size="9.00" fill="#000000"> </text>
<text text-anchor="start" x="37" y="-58.4" font-family="Courier,monospace" font-size="7.00" fill="#000000">prototype</text>
<text text-anchor="start" x="78" y="-57.8" font-family="Courier,monospace" font-size="9.00" fill="#000000"> </text>
</a>
</g>
</g>
<!-- board(Board)&#45;&gt;list -->
<g id="edge1" class="edge">
<title>board(Board)&#45;&gt;list</title>
<path fill="none" stroke="#000000" d="M94.8506,-259.9997C88.6207,-238.5045 81.2589,-211.4629 76,-187 69.2261,-155.4894 63.813,-118.8755 60.524,-94.2473"/>
<polygon fill="#000000" stroke="#000000" points="63.9717,-93.6189 59.2058,-84.1565 57.0307,-94.5256 63.9717,-93.6189"/>
<g id="a_edge1&#45;label"><a xlink:title="calls">
<text text-anchor="start" x="76" y="-179.8" font-family="Courier,monospace" font-size="9.00" fill="#000000">flatten/2</text>
<text text-anchor="start" x="78.5" y="-169.8" font-family="Courier,monospace" font-size="9.00" fill="#000000">member/2</text>
<text text-anchor="start" x="78.5" y="-159.8" font-family="Courier,monospace" font-size="9.00" fill="#000000">select/4</text>
</a>
</g>
</g>
<!-- meta -->
<g id="node7" class="node">
<title>meta</title>
<g id="a_node7"><a xlink:title="prototype">
<polygon fill="#f5f5dc" stroke="#000000" stroke-dasharray="5,2" points="186.5,-84 117.5,-84 117.5,-48 186.5,-48 186.5,-84"/>
<text text-anchor="start" x="126" y="-68.8" font-family="Courier,monospace" font-size="9.00" fill="#000000"> </text>
<text text-anchor="start" x="138.5" y="-68.2" font-family="Courier,monospace" font-size="11.00" fill="#000000">meta</text>
<text text-anchor="start" x="173" y="-68.8" font-family="Courier,monospace" font-size="9.00" fill="#000000"> </text>
<text text-anchor="start" x="126" y="-57.8" font-family="Courier,monospace" font-size="9.00" fill="#000000"> </text>
<text text-anchor="start" x="132" y="-58.4" font-family="Courier,monospace" font-size="7.00" fill="#000000">prototype</text>
<text text-anchor="start" x="173" y="-57.8" font-family="Courier,monospace" font-size="9.00" fill="#000000"> </text>
</a>
</g>
</g>
<!-- board(Board)&#45;&gt;meta -->
<g id="edge2" class="edge">
<title>board(Board)&#45;&gt;meta</title>
<path fill="none" stroke="#000000" d="M114.7358,-259.774C123.8207,-212.5322 138.6554,-135.3918 146.5902,-94.1309"/>
<polygon fill="#000000" stroke="#000000" points="150.0456,-94.6958 148.4972,-84.2147 143.1716,-93.3738 150.0456,-94.6958"/>
<g id="a_edge2&#45;label"><a xlink:title="calls">
<text text-anchor="start" x="134" y="-169.8" font-family="Courier,monospace" font-size="9.00" fill="#000000">map/2</text>
</a>
</g>
</g>
<!-- human(Char) -->
<g id="node2" class="node">
<title>human(Char)</title>
<g id="a_node2"><a xlink:title="prototype">
<polygon fill="#fff8dc" stroke="#000000" points="284.5,-318 181.5,-318 181.5,-282 284.5,-282 284.5,-318"/>
<text text-anchor="start" x="190" y="-302.8" font-family="Courier,monospace" font-size="9.00" fill="#000000"> </text>
<text text-anchor="start" x="196" y="-302.2" font-family="Courier,monospace" font-size="11.00" fill="#000000">human(Char)</text>
<text text-anchor="start" x="271" y="-302.8" font-family="Courier,monospace" font-size="9.00" fill="#000000"> </text>
<text text-anchor="start" x="190" y="-291.8" font-family="Courier,monospace" font-size="9.00" fill="#000000"> </text>
<text text-anchor="start" x="213" y="-292.4" font-family="Courier,monospace" font-size="7.00" fill="#000000">prototype</text>
<text text-anchor="start" x="271" y="-291.8" font-family="Courier,monospace" font-size="9.00" fill="#000000"> </text>
</a>
</g>
</g>
<!-- user -->
<g id="node8" class="node">
<title>user</title>
<g id="a_node8"><a xlink:title="built&#45;in prototype">
<polygon fill="#f5f5dc" stroke="#000000" stroke-dasharray="5,2" points="423,-84 313,-84 313,-48 423,-48 423,-84"/>
<text text-anchor="start" x="321" y="-68.8" font-family="Courier,monospace" font-size="9.00" fill="#000000"> </text>
<text text-anchor="start" x="354" y="-68.2" font-family="Courier,monospace" font-size="11.00" fill="#000000">user</text>
<text text-anchor="start" x="409" y="-68.8" font-family="Courier,monospace" font-size="9.00" fill="#000000"> </text>
<text text-anchor="start" x="321" y="-57.8" font-family="Courier,monospace" font-size="9.00" fill="#000000"> </text>
<text text-anchor="start" x="327" y="-58.4" font-family="Courier,monospace" font-size="7.00" fill="#000000">built&#45;in prototype</text>
<text text-anchor="start" x="409" y="-57.8" font-family="Courier,monospace" font-size="9.00" fill="#000000"> </text>
</a>
</g>
</g>
<!-- human(Char)&#45;&gt;user -->
<g id="edge3" class="edge">
<title>human(Char)&#45;&gt;user</title>
<path fill="none" stroke="#000000" d="M227.0719,-281.968C218.8426,-253.487 207.2689,-197.2008 229,-157 246.0915,-125.3822 279.4776,-102.9839 309.2459,-88.3212"/>
<polygon fill="#000000" stroke="#000000" points="310.8025,-91.4567 318.3461,-84.0173 307.8097,-85.1287 310.8025,-91.4567"/>
<g id="a_edge3&#45;label"><a xlink:title="calls">
<text text-anchor="start" x="229" y="-169.8" font-family="Courier,monospace" font-size="9.00" fill="#000000">available_move/1</text>
</a>
</g>
</g>
<!-- computer(Difficulty) -->
<g id="node3" class="node">
<title>computer(Difficulty)</title>
<g id="a_node3"><a xlink:title="prototype">
<polygon fill="#fff8dc" stroke="#000000" points="306,-798 142,-798 142,-748 306,-748 306,-798"/>
<text text-anchor="start" x="150" y="-785.8" font-family="Courier,monospace" font-size="9.00" fill="#000000"> </text>
<text text-anchor="start" x="156" y="-785.2" font-family="Courier,monospace" font-size="11.00" fill="#000000">computer(Difficulty)</text>
<text text-anchor="start" x="292" y="-785.8" font-family="Courier,monospace" font-size="9.00" fill="#000000"> </text>
<text text-anchor="start" x="150" y="-774.8" font-family="Courier,monospace" font-size="9.00" fill="#000000"> </text>
<text text-anchor="start" x="203.5" y="-775.4" font-family="Courier,monospace" font-size="7.00" fill="#000000">prototype</text>
<text text-anchor="start" x="292" y="-774.8" font-family="Courier,monospace" font-size="9.00" fill="#000000"> </text>
<text text-anchor="start" x="150" y="-764.8" font-family="Courier,monospace" font-size="9.00" fill="#000000"> </text>
<text text-anchor="start" x="150" y="-754.8" font-family="Courier,monospace" font-size="9.00" fill="#000000"> </text>
<text text-anchor="start" x="189.5" y="-754.8" font-family="Courier,monospace" font-size="9.00" fill="#000000">choose_move/3</text>
<text text-anchor="start" x="292" y="-754.8" font-family="Courier,monospace" font-size="9.00" fill="#000000"> </text>
</a>
</g>
</g>
<!-- computer(Difficulty)&#45;&gt;human(Char) -->
<g id="edge7" class="edge">
<title>computer(Difficulty)&#45;&gt;human(Char)</title>
<path fill="none" stroke="#000000" d="M224.3274,-747.5588C224.6191,-722.6859 225,-683.7407 225,-650 225,-650 225,-650 225,-438 225,-400.0767 228.0483,-356.3893 230.3815,-328.5039"/>
<polygon fill="#000000" stroke="#000000" points="233.8906,-328.5491 231.2641,-318.285 226.9165,-327.9467 233.8906,-328.5491"/>
<g id="a_edge7&#45;label"><a xlink:title="calls">
<text text-anchor="start" x="225" y="-551.8" font-family="Courier,monospace" font-size="9.00" fill="#000000">has_won/1</text>
</a>
</g>
</g>
<!-- computer(Difficulty)&#45;&gt;list -->
<g id="edge6" class="edge">
<title>computer(Difficulty)&#45;&gt;list</title>
<path fill="none" stroke="#000000" d="M177.5281,-747.9152C121.8559,-717.1103 36,-666.8691 36,-650 36,-650 36,-650 36,-499.5 36,-388.5791 36.158,-360.767 42,-250 44.9066,-194.8898 50.6892,-130.6729 54.164,-94.5317"/>
<polygon fill="#000000" stroke="#000000" points="57.6787,-94.5497 55.1626,-84.258 50.7115,-93.8725 57.6787,-94.5497"/>
<g id="a_edge6&#45;label"><a xlink:title="calls">
<text text-anchor="start" x="36" y="-435.8" font-family="Courier,monospace" font-size="9.00" fill="#000000">member/2</text>
</a>
</g>
</g>
<!-- computer(Difficulty)&#45;&gt;user -->
<g id="edge4" class="edge">
<title>computer(Difficulty)&#45;&gt;user</title>
<path fill="none" stroke="#000000" d="M270.9663,-747.9549C327.2307,-717.1919 414,-666.995 414,-650 414,-650 414,-650 414,-172 414,-143.1664 399.4997,-113.2962 386.7815,-92.6425"/>
<polygon fill="#000000" stroke="#000000" points="389.6528,-90.6364 381.3051,-84.112 383.7622,-94.418 389.6528,-90.6364"/>
<g id="a_edge4&#45;label"><a xlink:title="calls">
<text text-anchor="start" x="414" y="-440.8" font-family="Courier,monospace" font-size="9.00" fill="#000000">available_move/1</text>
<text text-anchor="start" x="435" y="-430.8" font-family="Courier,monospace" font-size="9.00" fill="#000000">update/3</text>
</a>
</g>
</g>
<!-- fast_random -->
<g id="node9" class="node">
<title>fast_random</title>
<g id="a_node9"><a xlink:title="prototype">
<polygon fill="#f5f5dc" stroke="#000000" stroke-dasharray="5,2" points="557.5,-572 454.5,-572 454.5,-536 557.5,-536 557.5,-572"/>
<text text-anchor="start" x="463" y="-556.8" font-family="Courier,monospace" font-size="9.00" fill="#000000"> </text>
<text text-anchor="start" x="469" y="-556.2" font-family="Courier,monospace" font-size="11.00" fill="#000000">fast_random</text>
<text text-anchor="start" x="544" y="-556.8" font-family="Courier,monospace" font-size="9.00" fill="#000000"> </text>
<text text-anchor="start" x="463" y="-545.8" font-family="Courier,monospace" font-size="9.00" fill="#000000"> </text>
<text text-anchor="start" x="486" y="-546.4" font-family="Courier,monospace" font-size="7.00" fill="#000000">prototype</text>
<text text-anchor="start" x="544" y="-545.8" font-family="Courier,monospace" font-size="9.00" fill="#000000"> </text>
</a>
</g>
</g>
<!-- computer(Difficulty)&#45;&gt;fast_random -->
<g id="edge5" class="edge">
<title>computer(Difficulty)&#45;&gt;fast_random</title>
<path fill="none" stroke="#000000" d="M272.1197,-747.7966C285.8137,-741.0109 300.8546,-733.9181 315,-728 360.1232,-709.1217 380.6843,-722.4039 419,-692 456.0356,-662.6118 481.7642,-612.8713 495.1839,-581.8175"/>
<polygon fill="#000000" stroke="#000000" points="498.4759,-583.0173 499.1072,-572.4412 492.0184,-580.3152 498.4759,-583.0173"/>
<g id="a_edge5&#45;label"><a xlink:title="calls">
<text text-anchor="start" x="460" y="-647.8" font-family="Courier,monospace" font-size="9.00" fill="#000000">permutation/2</text>
</a>
</g>
</g>
<!-- game(Mode) -->
<g id="node4" class="node">
<title>game(Mode)</title>
<g id="a_node4"><a xlink:title="prototype">
<polygon fill="#fff8dc" stroke="#000000" points="124,-798 28,-798 28,-748 124,-748 124,-798"/>
<text text-anchor="start" x="36" y="-785.8" font-family="Courier,monospace" font-size="9.00" fill="#000000"> </text>
<text text-anchor="start" x="42" y="-785.2" font-family="Courier,monospace" font-size="11.00" fill="#000000">game(Mode)</text>
<text text-anchor="start" x="110" y="-785.8" font-family="Courier,monospace" font-size="9.00" fill="#000000"> </text>
<text text-anchor="start" x="36" y="-774.8" font-family="Courier,monospace" font-size="9.00" fill="#000000"> </text>
<text text-anchor="start" x="55.5" y="-775.4" font-family="Courier,monospace" font-size="7.00" fill="#000000">prototype</text>
<text text-anchor="start" x="110" y="-774.8" font-family="Courier,monospace" font-size="9.00" fill="#000000"> </text>
<text text-anchor="start" x="36" y="-764.8" font-family="Courier,monospace" font-size="9.00" fill="#000000"> </text>
<text text-anchor="start" x="36" y="-754.8" font-family="Courier,monospace" font-size="9.00" fill="#000000"> </text>
<text text-anchor="start" x="60" y="-754.8" font-family="Courier,monospace" font-size="9.00" fill="#000000">play/0</text>
<text text-anchor="start" x="110" y="-754.8" font-family="Courier,monospace" font-size="9.00" fill="#000000"> </text>
</a>
</g>
</g>
<!-- game(Mode)&#45;&gt;board(Board) -->
<g id="edge9" class="edge">
<title>game(Mode)&#45;&gt;board(Board)</title>
<path fill="none" stroke="#000000" d="M83.8585,-747.8381C90.8579,-723.1722 100,-684.3759 100,-650 100,-650 100,-650 100,-438 100,-408.8804 101.5738,-376.3488 103.229,-350.1879"/>
<polygon fill="#000000" stroke="#000000" points="106.7266,-350.3373 103.8889,-340.1296 99.7416,-349.8789 106.7266,-350.3373"/>
<g id="a_edge9&#45;label"><a xlink:title="calls">
<text text-anchor="start" x="100" y="-551.8" font-family="Courier,monospace" font-size="9.00" fill="#000000">init/0</text>
</a>
</g>
</g>
<!-- game(Mode)&#45;&gt;user -->
<g id="edge8" class="edge">
<title>game(Mode)&#45;&gt;user</title>
<path fill="none" stroke="#000000" d="M105.2865,-747.9223C113.934,-741.0643 123.6052,-733.9024 133,-728 199.9876,-685.914 293,-729.1111 293,-650 293,-650 293,-650 293,-499.5 293,-344.3942 340.1949,-162.5811 359.7088,-94.0352"/>
<polygon fill="#000000" stroke="#000000" points="363.0814,-94.9713 362.4851,-84.3932 356.3547,-93.0344 363.0814,-94.9713"/>
<g id="a_edge8&#45;label"><a xlink:title="calls">
<text text-anchor="start" x="297" y="-455.8" font-family="Courier,monospace" font-size="9.00" fill="#000000">available_move/1</text>
<text text-anchor="start" x="315.5" y="-445.8" font-family="Courier,monospace" font-size="9.00" fill="#000000">has_won/1</text>
<text text-anchor="start" x="323.5" y="-435.8" font-family="Courier,monospace" font-size="9.00" fill="#000000">move/2</text>
<text text-anchor="start" x="305" y="-425.8" font-family="Courier,monospace" font-size="9.00" fill="#000000">print_board/0</text>
<text text-anchor="start" x="315.5" y="-415.8" font-family="Courier,monospace" font-size="9.00" fill="#000000">win_msg/0</text>
</a>
</g>
</g>
<!-- player(Char) -->
<g id="node5" class="node">
<title>player(Char)</title>
<g id="a_node5"><a xlink:title="category">
<polygon fill="#e0ffff" stroke="#000000" points="434,-818 324,-818 324,-814 320,-814 320,-810 324,-810 324,-736 320,-736 320,-732 324,-732 324,-728 434,-728 434,-818"/>
<polyline fill="none" stroke="#000000" points="324,-814 328,-814 328,-810 324,-810 "/>
<polyline fill="none" stroke="#000000" points="324,-736 328,-736 328,-732 324,-732 "/>
<text text-anchor="start" x="332" y="-805.8" font-family="Courier,monospace" font-size="9.00" fill="#000000"> </text>
<text text-anchor="start" x="338" y="-805.2" font-family="Courier,monospace" font-size="11.00" fill="#000000">player(Char)</text>
<text text-anchor="start" x="420" y="-805.8" font-family="Courier,monospace" font-size="9.00" fill="#000000"> </text>
<text text-anchor="start" x="332" y="-794.8" font-family="Courier,monospace" font-size="9.00" fill="#000000"> </text>
<text text-anchor="start" x="360.5" y="-795.4" font-family="Courier,monospace" font-size="7.00" fill="#000000">category</text>
<text text-anchor="start" x="420" y="-794.8" font-family="Courier,monospace" font-size="9.00" fill="#000000"> </text>
<text text-anchor="start" x="332" y="-784.8" font-family="Courier,monospace" font-size="9.00" fill="#000000"> </text>
<text text-anchor="start" x="332" y="-774.8" font-family="Courier,monospace" font-size="9.00" fill="#000000"> </text>
<text text-anchor="start" x="363" y="-774.8" font-family="Courier,monospace" font-size="9.00" fill="#000000">char/1</text>
<text text-anchor="start" x="420" y="-774.8" font-family="Courier,monospace" font-size="9.00" fill="#000000"> </text>
<text text-anchor="start" x="332" y="-764.8" font-family="Courier,monospace" font-size="9.00" fill="#000000"> </text>
<text text-anchor="start" x="344.5" y="-764.8" font-family="Courier,monospace" font-size="9.00" fill="#000000">choose_move/2</text>
<text text-anchor="start" x="420" y="-764.8" font-family="Courier,monospace" font-size="9.00" fill="#000000"> </text>
<text text-anchor="start" x="332" y="-754.8" font-family="Courier,monospace" font-size="9.00" fill="#000000"> </text>
<text text-anchor="start" x="355" y="-754.8" font-family="Courier,monospace" font-size="9.00" fill="#000000">has_won/1</text>
<text text-anchor="start" x="420" y="-754.8" font-family="Courier,monospace" font-size="9.00" fill="#000000"> </text>
<text text-anchor="start" x="332" y="-744.8" font-family="Courier,monospace" font-size="9.00" fill="#000000"> </text>
<text text-anchor="start" x="363" y="-744.8" font-family="Courier,monospace" font-size="9.00" fill="#000000">move/2</text>
<text text-anchor="start" x="420" y="-744.8" font-family="Courier,monospace" font-size="9.00" fill="#000000"> </text>
<text text-anchor="start" x="332" y="-734.8" font-family="Courier,monospace" font-size="9.00" fill="#000000"> </text>
<text text-anchor="start" x="355" y="-734.8" font-family="Courier,monospace" font-size="9.00" fill="#000000">win_msg/0</text>
<text text-anchor="start" x="420" y="-734.8" font-family="Courier,monospace" font-size="9.00" fill="#000000"> </text>
</a>
</g>
</g>
<!-- player(Char)&#45;&gt;user -->
<g id="edge10" class="edge">
<title>player(Char)&#45;&gt;user</title>
<path fill="none" stroke="#000000" d="M434.1214,-741.1429C466.4979,-720.1266 506.1955,-690.0491 533,-655 557.2166,-623.3347 559.2994,-611.1131 567,-572 577.1384,-520.5045 535,-459.0697 535,-376.5 535,-376.5 535,-376.5 535,-172 535,-121.5056 479.9048,-94.0465 433.0055,-79.8193"/>
<polygon fill="#000000" stroke="#000000" points="433.7229,-76.3837 423.1449,-76.9807 431.7864,-83.1106 433.7229,-76.3837"/>
<g id="a_edge10&#45;label"><a xlink:title="calls">
<text text-anchor="start" x="548" y="-435.8" font-family="Courier,monospace" font-size="9.00" fill="#000000">update/3</text>
</a>
</g>
</g>
</g>
</svg>
